<mxfile host="app.diagrams.net" modified="2024-05-14T10:54:39.631Z" agent="Mozilla/5.0 (X11; Linux x86_64; rv:125.0) Gecko/20100101 Firefox/125.0" etag="nOswl2CGNBelJ0J8mnma" version="24.4.0" type="github">
  <diagram name="Page-1" id="VBl3iW1sPvMqhY_rW1Uk">
    <mxGraphModel dx="1434" dy="759" grid="1" gridSize="10" guides="1" tooltips="1" connect="1" arrows="1" fold="1" page="1" pageScale="1" pageWidth="850" pageHeight="1100" math="0" shadow="0">
      <root>
        <mxCell id="0" />
        <mxCell id="1" parent="0" />
        <mxCell id="fszYzf7_crKhQ_tD_Uuh-1" value="" style="shape=image;verticalLabelPosition=bottom;labelBackgroundColor=default;verticalAlign=top;aspect=fixed;imageAspect=0;image=data:image/png,iVBORw0KGgoAAAANSUhEUgAAAowAAAFdCAYAAACJuTzBAAAABHNCSVQICAgIfAhkiAAAABl0RVh0U29mdHdhcmUAZ25vbWUtc2NyZWVuc2hvdO8Dvz4AAAAtdEVYdENyZWF0aW9uIFRpbWUAVHVlIDE0IE1heSAyMDI0IDAxOjUxOjU2IFBNIE1TS9WbCHIAACAASURBVHic7H13fBVV+vd36r03N40QAiT0mhh671JF6SKi7oprw7Ko62/doq67urqurv7sioAgYkcFFKUI0nvvUkJLSEJIz+1Tn/ePmTv3XlJR35X3887388knd2bOOXPqM8952mGIiGDDhg0bNmzYsGHDRi1gf+0K2LBhw4YNGzZs2Li6YTOMNmzYsGHDhg0bNuqEzTDasGHDhg0bNmzYqBM2w2jDhg0bNmzYsGGjTtgMow0bNmzYsGHDho06YTOMNmzYsGHDhg0bNuqEzTDasGHDhg0bNmzYqBM2w2jDhg0bNmzYsGGjTtgMow0bNmzYsGHDho06YTOMNmzYsGHDhg0bNuqEzTDasGHDhg0bNmzYqBM2w2jDhg0bNmzYsGGjTtgMow0bNmzYsGHDho06wf/aFfj/HcdOH0NxTjEcDgdkWYYoitA0DQCgKAqcTicURQHP8yAi6LoOnucRCoUgihyICIqio027dLTLzKzxHcWFhTh76jwCgRDi4pzoeE0HNE5L+1n1zjl6FCXFHmiaBlEEeg8eCJ6vPp0u+i7i+ObjcDqdVvvC/yVJgiAIVpskSYLD4QAAhEKhmLazHIueA3rC6XTWWJ9AIICvPv4YXyz/Clu27ILH4wEAcA4HenTrg+m3T8ddt92GJk2aXHFb8388hVeWfIGNn3+Go2fPQg2FAIZBekYGhgzpj/tn/B4jx4284nJ1RcHGDRvw8Rcf4dMvl0My6wwAbTt3wE1Tp+JPf/gjmjZtWmP+0tJSHNt3DIIgWP0FIKYfAYCIoKoqiAiiKELX9Zg+b9y0MdJbpePkoZNQVdUqTxAEKIoCh8NhzT1N06yya5qv8Ynx6NanW43j5Pf7cezgMSghBUSE1u1bo2XbltXSybKMI/uPIOQPgYggyzISEx3wemVwHAeWZcGyrJVW13WrXeE2cRwHVVXRe3BvJCUl1ToGx48cx7yP5uGrz75Cfn6+dT+9dTuMv+46/PGPf0BmLetKVVTs2LgDAMBxXMy8FkXR6nNBEGL6NXpeS5KE5NRkZHXNgsvlqrWe58+exfx5s/H1d6tw7NiPAADB7UbfTp0wcPhQ3HP3A8jMzgTDMLWWURdOnziNt955BTs3bcPuI0es+6nNmmHcyJF47K9/Rbdu3X5S2QEApw6fQHl+IdxuAY74BGR3y4YgCD+pPADYv3M/Zn88GzvWbsHJ8+ehyTISU53o1roPho0fgwfuvQstW1afW2FUAcjdtw9lxZ5qNKcuOmXQOzFmPFtmZyBUFoSnwg9JksDzvEWvw+kAVKPrqqqCZVkwDGPNlbZZbdG6deta633h3AW8u/BdLPliKc5duAAlEACixmnmXXdhyOjRP7lfTxw+gcL8QgiCgKTUJGR1yfpZ4wQA+7dtR0gy6UM8j96DB/+s8mz8iiAbvypGjRhBAH7237hJE8jnC1Qr3+v10ozfzrDScQ4HvTX7XdI07SfXubSkjAYO6Rvz/m9XrKgx7fxX3yYAxHA/r30d2negvLN51etSXEqvvfwatWjXpsZ8LECM+bt5RnN68h9PUcGFgnrbqCgK7T+4n+68/U6Kj4+vt359evehzz/7nAJBX71leyo99MGHH1KvXj1rLY+L+n3//ffQ0cOHSVWUmHLeWzj7F5k7k8aNo3fffu0XKeuaa7Lo6NEj1dqsaRp9/OEH5HQ6rbS33/ob8nq81dLmnDlJvXr3+EXq8+G8edXKD4VCtGnTJrph0qSa54wgxFxff/0E+mHtWpJCoZhyzp8//7PnNQBq3bYdHThwsFo95WCItm/dRlNunkKAMyYPw3HVyrl29LX09ddfk6fSU+8cJCKSJInWrl1Lk6dNI4atv54jRo6iFauWkd9fnc7UhSOHjlJ2VhernLSUFPrxxLErKoOIKBAI0OrVa2jYsGHEsGyddRUEkW6Zdgtt2byZZFmuVlZpaSm1bJPxi8yxxx57lEaMGvWLlPXUP56qcZz27TtAU26+mThRrLeMQX360JLFi8nnq58WRePM6TPUu3dvq5zExEQ6sO/AFY9TNH48epSEuKhxiYujQ0eq0wcb/2/AljD+SvADcANIqkOqcCXgWA6CwFW7X1xSjHVbN1rXmiRh7coVuOfO39Up0agLBw4dxPkzBTH35s6bjQnjxlVP3NiQBDEm1xZTZwegST+pCgCAU+d/xN8f+ydWLl8Jn+oDAIhiPDp2bomMVm3BsRwqCwpwNCcHXq8XFwsu4sV/v4jjx05h7luvo0nz5jWWq6oqvv7qKzzzwr9w7PAx635CchK6ZV+DxEaNoYSCyMs7j3Pn8qAoCvbu24tHH3sUpZeqMOsP99Va5+KSErz+6ht47a3XEfLL1v3Omdlo1iINDk4E6ToOHzyI4vJykKZhwYJFOJFzDm+98Qa6duli5eHZxJ/eeZdBRvwvUg7LseDF2HmoqhJUlbBq1WqEQiHr/g9bNqDKW4X4hNh3C3CAh/iL1OdyBP1+vL9oEZ7/179w8eJF635GRgbade4AtzsRIMLhg0dw8WI+SNOwevV3OHXiKN5+8x3cMNGY45JkTNya5vWVg2os45ul3+Af/3wax0+dAACwPI/mqaloltEcca4UyEoFcnLOo7y8HACw6YdNOLDrAP72+BOY9chDcMfXPqZSMIiPP/0U/37uNZzNPQaGAzhRRKPERHTs3AFJKU2ghUI4l3MW54rOQgsRNqxfj9OnzuD1V/4XU6ff1KCW6bqOPfv24Oz5s9a94vJyrFi5Elmdr2lwDwUCAbzzzjt47bU3cfFiRBLcokUGmqe1QlKKG8VFBcgrKEJlZSUURcbirxbj0NFD+Ps//45pU6ZBFGPn1E8UxlYDy/PgxZ8nhQtD07WYa5/PhxUrVuD551/AkSOHLBuy5ORkZGV1MsZJlpF34RxO5ZwDaRq2792LM488gpcDAcy4806oqgqGYcBx1b8PYRAR9h7Yi1M5p6x7Ho8HX3z1BXr06vGT27N0yRIogci1Eghg+bJl6BZFx2z8vwOGiH4+vbPRYChKADzvgs4w4ABsXbcOh4oq0EiWoUCBAAEaNHgEEW1cPKbMmAE1GAQAvPLWi2jmbglRFFGk5CKNawlVVeFwONCocTKGjBhajSh++clXmD5jOhA1zO6kJJw4ehQtWrS44vqrqooXXngBTz/zNEiPlCkIPA7uOYT2me1j1KFnzpzBip0H0FTTLPWcoihgGAY6aXju2b/j+FnjY3LnzDsxZuCYSF+Z/SFBAt+kOW4ePRROpxulAJhLlzDjvnuxavl3VvobbhiFZ5/9D1q2agFRdBiqHllGlacMr787H3PeecdSJ984bRoWLViAhIQE+Hw+xEd9XLds344777gDZ8+cAQA4kjk8/T/P4va7ZiAuzgWOF0C6DkmS8OOhH/HnPz6M/T8aasI4VzwWfLwIN44fD57nqxHpV/7zKp78xxOQZYNZzO6Wjef++RwGDhwEURTAMCxAhLLSUixZ+gX+9Y/Z8MmFYFgWXbt0wdatW+FyiWBZDhfyC7Ft3VaoUFEpxiFVluFDJZLEFJSVlOLdBe/g6NETiEvmcevkuzHq2mvNfpWgQoYLCQCAZhnNkNa5OQ6t3w8/R4jjXWAlCT62HI2F5pBlGS++9ioOH94LwQ3cPGkaJt9wM4JqEJWOeDRVFHiZcsRpiUhMSsKgYYPQOLUxJMkLhyMBRDrOeLzo2bYNfBWVkc5gGHwwdyGm3joVCQkJ1u2qQBW2bdiGQGUApWohGjFNoWkaGIYBy7L4YdMqzH9/EQCgc+cueP4fz1gMHABUoAiN0AwA0HNgL2RkZiLMWi9ZsgQPPvggSkpKAAAtWrTBk39+HJOnTYTD6QTHcSBdRzAYwr5dG3DHA4/C7yuBEgCatmiEzSs3oVPXrtB1HbIsY+lnS6336tDh5TnEawApMr5c+jm+37waSgAYOXoYHvjdQ2BZFiVKARoxTS01ttvtxLBR1yI5JQWqGoJfcOHHDdsx6babUHapCACQmJiAv/3tCUyffhvc7jiwDA+ChlBIwrdfL8Wrry/A6TNHABASkpPx8fz5GHTTTUg1TQHcbnfMPNyyZQumT5+OS0XFIOho3rwF/vrHv+CmW2+E0+UEb85xvy+I/XsP4IFHZ+FiXi4AIDkpGau/XY2e/XuCYZg6VZaSJOH3v5+J99//KOZ+p06dcPLkyVrzheHxeOB2uzFnzhw88cQT8Hq9Rv7sTnj6sacxfOxwiIIIjuegKDL8ZeX4/Ntv8cpLL6GsrAwAkJrWBJ9+vhhjRoywytU0Dd8t+Q5+v99cEwqqRDdSzXV5+sIxPP30vwEArVu3xovP/xtBzQ+nHm+ZYaiqCgDI6tEBhWVBlOcXwiUIMSptADhx5gSee/45o6wOrfH8k8+DQc3cavd+3ZGdnW1d79i2DXfMmIHT584BANJSUvDHP/wJv7nrdrhcLkv1LckSDu45iD8//mccPXbUmDMJCVjy+VKMumEUANRqruDz+eAQHXjiiafw2puvQjfbBQDJTeNw5mAFUppd+QaurLIME8bfgp3b18XcH9S/P5Z/8w0a12JqY+Mqxq8t4vz/HZqm1vosFPKQMyHBEufnnj8f81zXNdJ1vVo+hYiqlBCFQkHq0bMPAaD4Ri4aMTyi/n79309TxU+ob2lpKQ0ePJgAkOh0Ut8Bfawy//HKK5aqW1U1CoUUqx1ERLJsqLIqo9o8bNRIK/9niz6o9b2appKiGCpBRZHppZdfINFUz8QnJNK/nv13jOpJkmLzq4pC77z0KiUlNyIAlNoklZYs+6qaar6yspJGjR1r1alTp060YcNGqqGbLRQT0bRpk4g11WTdevakssJC63mQiEJEtH3nduKdIIAhhgVNnDyZSi5erLO/N67ZSCmNG1v1efyJJ0hVVdJ13erXmlBYWEhjxowx1XMCzZn7dp3vqQ+Tp0206vDyyy/HPAuPa02QJJUURaNnn/q7mZ+hKeNusFSK3br1IUmSSNc1Umopw0tEStScmT9/vlWX0TeMblD9NU2livIKatMhYrowoE9vOnLEUAXruk66HpkLum78FRQUULuOnQgw6jtm4lgqCQRqXHfRCAaC9IdZjxjvYhh64I9/jHmuEpFORJIUURuGZ29BzikSzXXPuxjK7NqFzp44Uef7zpw8Q70GDLD6NTu7B1VVFMfQCFmWSZZlKr6UT+0z2xuqbYCysrNp++7ddZZfWHiRBgzob6ngB44YTEU+P2maMRej6ZhxbfRlUWEhJScnEwBq3rI1ZXfpbPX/2lVr63xnGNu2bqUOHdoSAOI4jiZNnkz5+fk1pvWa9O/88ePUr1cvYhiGANDkm26ikpJia+1Ej3VNWLziw8g8GTgs5pmu6yTJAbq8BEmKmFdE98fKFV9HyhrQu8GqYm+Vl4aMGGLl7dCxA23cvLnOPBe9F+n6kSMJZrs7de5MBZ6qqHoRKUqw2norLSmhVunNCAClNE+gzM6Z1nuXfL7EGueGwuv10rcrv6UmTZsQAGqV0YJat2hhzIP0dFrzww/WPAkGgw0u18avC5th/C9DVaWYhRdmgmpDoklsAdCZU6dinmmaWifDuXbtWuIcRt6pkyfQ/t37iWFZYjiO2qV1Io/UMFunaKz7fh25XC4CQOMnT6Z5s2eTy+EgADRs6DAqKymrt02qGuHmhlw7wGrfx4sWNKgOp0/lU+fsyIfn4VkPU0V5hP1VVbnGD0JFeQXdf8/9FmN3+29+Q16vQeQVRSFN02jRokXEmuXyTietXLmGFKV+e8+9e3ZT1+yuBIDi3HE0e94c66OpaSp5PFXUs2/YZlGgCRPG1MsshvHOnDnkMPu4RevWlHPiFGla3cQ7mmEURZEWfFh/3+q6Tqpa3d6LiGjClBtqZRijET22YZReukTtOrUzPhYtmtKps6eoQ+cOVnlbN20kVZXJT8bHjIgoYDJUYUTPqbdmv3XFDKOqSnT/Pfdb+Tp3bk/7DkbsBi9vu6YZf0REa1Z+T+nprQkANUpOph/WrK6X4QgFg/Q/D0UYxnsffDDmeZCoGsPhJSK/z0f3zbzbYuYG9h9IPx4+3KA2nj59mjpkt7La+MnHi0jTlGp1ffShRyP90KEt7dq7N+Z5NF3RdY00TSFFIdq7bw+1aWeU73A4aNlnyyx6Fj3umqaRYtrbvvrqS9a75rz2Nv3liSes69/cNYM0rbZtQqRPpt803cozauxoOn32bL194dV1+m75cmqalkYAqGWzDPph1VoKBoNWm6Jx+bxdt2Kd9c5+AwfGPFOUIMkmY3o5wvO0Kmq+Ll+x1ipr8NAB5PPXzjBG9+ULz71s5WvauDFt3LSeGsJa7T94kDpnZ5trX6APFkTseNWoz0W4jqFQiBZ9+gmxgmmT+bfH6OUXXrc2B+MnTaJg0FvvnI9GKBSivz3+N+J5nnhBoKf+8TT9bsbviGEYYnmenvn70yRfvqu3cdXDDqvzXwbDxKooed5Ra1oAEKI8j1U+1nqAZTmwbGx5suyzfi/57DNoEsDCiZHjJ6Jbr27o2bMLSNdxtvgUVn276orrv/DDuQiaKvK/PvQQevbvjwzTq+/EiZPYtXsvWNaos6pK0HW1WhkcF1FvaEzktxfJdb5bkiRomoatG5fg5I+GOktMSMBT/3gcyY0ieY0+Ycz+kC3VUXKjZNx+5ww4HIYH755du1BR7jXzsFBVBk8+8wx0s5w/P/YQbrhhDHi+5mWiacYfAHTr1gPjJowDx3EI+AM4uu8AJNNej2EYrP9qDQ7sOWDUI9mNt96Yg9RmzepsbxjXjRmDa7p2BQBUVZTj8InDYNkrMMAiAMGGJb18PoXhDTTMxlFlOPjN3z6foZLbtGMHzp02zA6uHzkWrdJbYeq4KVaeN99+B4AApw6wrKHevFzJGb1OBO7K7cXOnszFwo8WWtfPP/8ienXvbl0bNl6RcjUtCNMRG/0G98eEcaPBAKjyerF24yZomo46wTJgXMY6qEmZ56whplk8gONnz2LDtp0AgOTkFNz/wIPoHKWirAvt27fHo/c+ZF0v+vhT6DpvmDkAkACcy8vD4uURNfojsx5Gv969Y8phGCZKfclA0xRwnI7MzlmYOvUWMKYq/fst66DrjJletNaC4cGuQZJU/Of1twAAvNOJGTPvxKhhw5DaqBEAYMfG7Th57EydbTq2Yx++/vZr63r+K6+hfdu2NabVdRWaZsy5eIbByNGj0XXAAABAwaWL2Ld3FwTBMPsI06hIm2u379N9/phrlhUg1BJiJFxuXPR8RYQG6ppWr9Erw3CoqKjAm7Nft+49Mut/cO2wEag5RkQsOnVog1um3QoAkGUFm7Zsh6IokCQvwhYysgzEm3XleR6vvPQyoACi04lHHnwIAwb3Rnpzgz4dOnAAR4/nWPOoIfD5vNi4+QfDZEoUMX3KZIwcPdLwNldVrN+wBl6vpwEl2biaYDu9/JdR2we5NviinARcQv1OKqJofNhP/ngS36/fAADIym6DQX16g+M4TLhuCvbvOwwA+PqrZZg6eSo4jgXAVjMCJ9INxothQADOnc7BF9+sBAD0zM5G5ujR4EtLkZmVidM5OSgpL8WhY/tw3diRICJwnFhvmA89FCGmbpTXmTZsG/nmnM8sovuXRx5AWlp6TDqGYS2TzbBNpxHiIoT+3brizy++AHcoCFbkkdQoHkQ6WJbFlvXrUGDaCsUlJeHxv/zdKqemZnCc0UdELARRwO9+exOaN2+KYEhCy2adAV2AJHkhCG6s2vWDle+GiRPRPCPDrFft5YfRIj0dz/z97zh69ABcFQ60TE+vPXENIAbQHfUzmMZY1ZwuOalh3kkOloNIhhNHfLyIoD+A9+fNA+lAoiMRY0feAFEUMWDccDjmzYbkD2Drtm0oLDyPjIwWYBjzI1bHO3whXx1PYxEe9+/WfWfZlHXr3htDhgwDAKgqwLLGX/RYCIILigJwnA53nBu333U3OqV0BDXh0L17F9T31SeNoPmNua0AcDUgNAnpOvZt3IgzpwzHg65dumDMqJFgWRYagDDl8HolJCQ4oCgBCEKclV/XCddNmIK/XCyFHPIhrVUGgBBk2QlRBBwA1vywCqVFhrNP1jXdcP2kKdXqEc0YGDaKLhABTqcTU6dMRvOmaZAkL3r06A2GIRARWJaBqoZAJIJhWPC8Az+s+hyX8i4AAGbMmIE4txsdOndGl549sXH9epSWFWLP4Y3odE2Hara+mqYAILzz7svWuN12x21ok90FYbN7hmEQCAQQFxcHXddjmEAigtPpwJ9+PxNZbdKhMClo3znTCNMEIKSGkMCJVlsvp8sluBDp17jYZ3XR8PCz6PnLIbK5IL3ujUYpw6AJw2H9li0orzBsMNu3bo0p08eBSIemyeB5JzweDxITa3Z6c7uTcONNk5GUHI/iiiL06doHiqIgLs6wE1bVEARBtGbUlnWbcfjgQQDAmLGj0CqjDUTGiaxOXVGQX4TKkkrs37AbPbt1BcOwkGXZCpulKIoVrivS9zr27j+Ebdt3AQBGjR+Nrj17IiU9DYkJCSgtK8Ouo8dx+nwu+jVOrbM/bFxdsBnGqxwuUUT4Uy1rcp1p5fCA6jq27tmOkrISMAyDvr0GoE3rdggAGDpqGBLfTYKnsgoHDxzC8cPHkdm1AwAXBMGQmIVptyFZEKESoBKwYtmnkH0+MCyLsZMmoQkApKZi9Kjh+H7VKiiygh++W437774PSY1SoGl6jZ7b0RBdkTaJ9XjG6roGT0Ul9u/fad27afJvakyrqkD4G220Q4AguADBhX8+8ojRX7IMnuehqhIEwYV9B/dY+fv07IPExEQzZiGB56u3Q9fDHzYHBAHI6toXWV37Wu9kWQ4Mk4Dikkv48bjhbc1xHIYNGmQ5Cug6LElWbXA6nZg0aRImTZoETZOhc2IMA1EvCAiFrlyZEO43AFB9DWMYjf4wPpyyrOB8Tg7OnMoBAKS3aY7M7p3BMAy6t81E18xM7N23H1VVVVi/fiPuuOOOmHGrDcnuuiXR0TAcZUTs27XPute3b0+43QajFR06NOxYY2ygjHooSgiCEIehgwZh6KBBVtpQKASO46HraoxkMvJeIMxXEICgotRbV1XT8GNOjuV0kHnNNWiabsRLDQAIuwXFx4um5D5WOxEKqejYoSP+85//GO8l44/nYUjeSMCPh36Eqhjl9+jRBcnJtceojKmbCggCh8GDB2NwVBw9SVItesHzYSZCg66r+HjxagCAUxQxvH9/AEDLFi0woGdPbNm4EV5PCJvWHcT4sZVonNo45n0cJ8Dn8WDb1t1Gf3IcpoydYtbFiF/IcRzi4uLMtoes3wCgaQSGUTF27ASMHTsBMCWQDMOBByDydcvqmiAqhqNUXUvyU6HqddO4VCJouoLD+w5ANedM5y7ZaJyajhDDwmXW26BNRp5o+hGm3z26dkUPUytxOcLjJEkKeJ7Fws8Xmvd5jB893qhHWip69O2BjVs2whfyYv3u7zHddzOSk1KqxVi93NFSVSW8t2ixUTeex3233wMAaNI0A+PHjcOijz6CVFmJRR99Wk26bePqhq2SvsoRLaFz1kPkwvKhgD+A7Ru3wef1welyYvCIwWiU0ggsgM4dOqJ7tkFILuTnY+OWzWBZMYq5iugued7wNOZIgye/Cgs/MzySGyUmYtz111vppk6aCqep5t2xezfO5eaCZZl6mUUAENmIqlNB/R/VY4ciYW54pxPZPQx1narGOILHMB21STlFUQTLsgYjCWDn3r3Wsx5m2AeGqZ2hYxijj8LvkiQVuuk5znGCJb0oLi1FeaXhHRwfF4eMZs3Asix0XQMgX2F4Dwa1ywFrr2dcnNaAlJfni7xFaGAIprBqN9z2TXt24XxBPhiGQbdu3dGhQycAQEZGCwwdei1YlkUgEMDG9Rvh9/rrZRZ/CnweD4oKC63r7KysmI+eohhzPixphLUZQIwELxrh/HVJ0K80aouiqjh2+oR13bdXb3CcAEUJIAEG06dHhV0Jv1tVVVOCVFfnMZAkCReLiiwJXeeOHZFQR+idMFRVAs/XLBlzOHgwDGOZqYRx/NQp7NtvMHttOl6DHv0NJpMVBAwdPRoJiYkACFu3rkOVp8pov6JY5iMAUJhXiOLiYgCAOy4OnbI7AwAEQYiRSEqSVC1EGMOwMaYvNbXJ0KA0AL9gHBGmAYXpOoMLF/KsQN+d2rZHvNsN1tyQhecAkQIiBXIdcgRDwl7zZo/ngfzcfOzcbmyUW7dujX4D+0GWDeZx7IjRSIw3tik7du9BXt6FamXUNP8v5Rdh5dKPAQBt23bE9WPGmG0H7ps1y5JSff7RhygtLa23P2xcPbAZxqsc0SrpeqEEANJRXFiALatXAACSE5Nw/XAjrIITQLP05ujSrSsYhoHP78Xe3bsR8EcCZYlidcaAZTnsPLAWZ88YdoO9evRAh/btrectW7fG8OEGAxkIhfDpkiUNrrLHE/lACNUs16rX43j+eeu6a1Z3S1LH8wZjpOuqRSCJdChKECzLo6oq0o+hUFW1siVJQqUvoupsnWHY7xj2TjUzvgwDKIph3yTLxseTZRlomhYTb7CqqtKy10lKbYSUZk2s9tT1UYtGMBiEpmngOAH8lS5cMgN/XiGiVXxSsGH2RuE8Xq8EKRTCxu/XIBQMQhRFTJo8Ce54N4oAOJwO9BvcD3HuOBARduzairz83Aa9o9xXt+nC5Qj4QwgFja9qXFwcWrZqFXMqUXjDoOscdN3oWSLFlNlHEA7pEgYxDCrZmpU0RIBq8nYMALdY/zjrmoaC85es69Yt0836GUwrx4lQFM6UmvLgeRahUCV4nq8xtI0k6dYGkOMEVJQXoarM2LiIooj0jAwI9dTLYB4cYBi2Wvuj4XK5EAwGoes6OA5Yt2YlzpvmHX2yOyG7QxujHgD69+1rhfk5lZOD48ePm+0UYsal6FIBNFOM1iS1FNUrAwAAIABJREFUGeLdCdXeGw7RxTCMZb8dttW73IaaZQ3m1ufzWW2qDUU4F7mokxGvH5VRMU45tu5NMcMwkDUPPH7DbIDleTRv2wZOlwsOcxzD9IjjBHCcAFGM0L0wHx1uO8Mw4HkHZBkIhSove5eA1atWI98Ml3RNp05o36YNwlNi0NAhSEk3YtXmncvHgR0Hq9U3erx8Jv1c8PmHCAWD4AHcMf1WME4nyk275F7dM9G5QwcAQHl5KdatXPkTetTGrwWbYbzKER8lCQl66v5oC0IcGIbFhm3bcMaMQTZs5Ei0iDISFwQBUyaNt+wBN+/YiPO552otEwACfh/Wr9sCn88PjuPRc9AQNG4We7TgY4/MAGNSqw/mzkVFaVGD2udKjEgmKhpk0h2BKFafvsaH1GibrrNgWRd0HYiPjzB9TmcSdF2Han7Rw2pUPYphbNq8YUcI8rzb/K9C0xRUmmrn2o4wdEKAi8JHhRn3whKu2qDrKlwuFziOg27Gf7wiMGaU+J8BwVWzpE2WI5yookSkXwkJDhRcyMdm046paWqqFQcy7OoztO9gpDUx5lHOmVwcPHAEDUFy3JUFLNegQkP9akWGUaBpqqWKDzPz4fFJSEgwj0g0JTyagpRaywL4KJV0SK3//bquw+crsa7jkiIMkqpq0DQZDoehQfjnU89i4MD+6NdvFAYO7I9u3XpjwNAsdOvWGz1798OAHgMxYsRwbNywwaovg0hsQJ7jwLMUI7GsCTyvQZYVEBnt1/VIfxjSrki7XC4XWJZFVaUH27fuNY8vFTHqhgngnE5rnTVu3Bgz77nDyjd37twa313s80I3pYAJiSKEqPUelmjyvABBEDFu3Bj07zMCA/v3QP8BwzCg2wD06jUIQ4YMQffuvdF3QFeMHnUd/D5/TMzV2pDmzLJ+C2rdjon1IRkRuqLp9TOfsh+Qokj95fadum4w8ob9tNE/0XQPpnaIZXlL+sjzgNOZDF3XoGkKNA2o8lRi95GtCEoSBJ7HmLFjkdw4YhoQFxeHWffda12/veAN6DpBilLRh6Xb4fQll0qw9ru1IADuRgm4dsxQsIC1TpzOJNx2++1W/jnz5sLnr76Bt3F1wmYYr3JEx1Vn4mKlAbJpUK9EhdL3APh00SLo5iJ++OGHqxH2QYOGIt085SQ3rwB7duy0DKoBQFEMJiWc52JRIXbt2gFd15GYmIBxI0dA5AQEApH39h4wGtmmyqisrAzLVxke2Kpat4SUPJGPYhzqJxzOKIHO5dqQcH00LVo9rQDQYvRKimKe0EGRdCwLMK4Ik+fTjLaHCWxtCEszWZYHxwmWn7eiKNBN6Yio8hA03qqNbKk9dZPY1q7uVZTYOcCybExg9IaAQFCvlMm8vIxgzao0UYxwokSx/bVs2VLrVI6bbr0VzS4LFN+8ZXOMH2/YTOmqii8WN0wyfaVnDdR8jkp0/8N0cBEginw1HWRYAhlRu9Jl/2t7bwQNUU8zADjiYm+EfzKcKWE0pHhFRQXYuXM3jhzZb/3ftfUEjhzZj4P792DXoZ04euwAyjweSyIlCIJlb6YBkPT6jRtYljMDykcYRZ53marOiKNJtET9QkEe1m/dBpiOatdfHw7GH+mRO2bcDd7cVK1btw45x3OgqmqMSppIt7IY0tJI/mgVNBGwffseHDyyFzt3H8Khgwex68guHDmyHzt27MLhw/uxd9dR7N2/A6rWMHtEKcrmlKFf6EgYI8ZSvWk4XgAXJfllLlP9qmoIohhWNxMuXw7R5rJh6WOYlhtzQQARUFZaig1rtoF0HaKjEa4dNSqm/wHgNzf/BsnJyQAE7N9/DHt2bIfDwVubVp7noeu6tSZ379uLk+ZpMX2690On9pkx3ycAGDpyJFLTjI3ikRMnceTIjw3uPxu/Lmynl6scgagPvYOLMAqS5IHoMCUtvMvyKszffgAbt24FAHTp2BEtmjdHaWk5gsGgRXTi4uIwZuJ1mPvmXOPouQ8+xV0zZ4JlBciyD4IQH+NSceDQUew/Ykh/kps2Ras2bZCbm4vExETrxAzAgb4DhuDE4QtQ4cfC97/Fb2+7DRzngA6gUpORBKaagwDFR/Ys9Tm9AIA7SoXrlWJVZOGPSNgOzfBi5qEogChylnRFEMKenIAse+BwJIJlCYIakbYESgz1DcOwdaquDG9DQ9IWzTzxPA+fz4eEhARwLgGcw1hqGlRopJhpGKiqZjpZ1Kz2NlTtRp95vV4kJCRAkiRwHBejDqoLDBjwDVCJ1gUV9ZtGiCIHIrLUl6+8/7717LYpU5CbG6tydrlcGHPtGLz1lhF65ftNX6Oqqgrx8S4gaq4oSjBGhegJNtxLGgB4COBMUhdSFATNeWCo63h4vV7Ex0c2LhHJYsTUAabdoqH+5GPS1QQiIFp4p9bjHWtWCHyUwWywKtLOQMAYe553QuJ8SOuQhokTx6GyUkFysmA4T/lYVOoScnPPIC/vLFiGgTNqjrAca0mrSNPA1mODGUakH0RIkgKXy2A4RFGE3y8jLk6I2cQs/3IJKksvQgBwyx23IBQKGWOfDKASAHiwgohu2T2xf98OBAIBLPpyEZ77+3Mx72WjukzgCdGRpMKnMzEMEAwGMGjQCARCQbAcA1XSkJoqwhvwQlM5bN+zD5LHY9lkNwSMFpGcy8FfTgLGs3U7LuoAvDwHXogKp6ZpCIU8cLmSTecjo68NpzqzjjLAMMY64XkWqiqZjmc8HA4OHAeEQoDTGaGPK79eifPnDROf/kO7okVyMvLzL4FhYpnGfv16YM2ajdBV4Isln6H/4MExji7h37IsY/26H1BaUgKGAzr2bAtJkVBYUAKBSYaCSqQ5HBBEEW3atUNpcTGqqqqwYf0GDBww8BfqYRv/N2EzjFc54p1OlJvHV0UTO4fJLOq6ZtrCCdA0Da989p4l2TqRn4OObXpAE/xgdA6khcA6OaghBohS0W3fsQkHDx9Gz+7dIYrxpudu5F2rli2DEjQYhnMnTyLrmiyA4yAHg+B4HpwRcwO6rkMzA/6dO7sHB/cdQZ/+fcEASKnl4yr5IgS0AjWrPaPRrr2hKmIBnD5xxtoRh48dDIdR4TgRRAwURbE+ZmHCduTIMfh9ZQCc6JTZAQ6H0bedO2dh7Ubj3O3cAsOWLBRS4XLVrEYyJJk6eJ6DKLrh8/pw6PBBiIIIt9uN9qatTkJiIpJS44EcoLKsAmWXSq3xFIR6HJkYQ+2Tl3cBpaUl4FkWqU2aoGWrVvX2lQUCIP08KQnrrN+bVgYgmnN0y/pNKDsXMXUYcsP1AELQQgxYhwomlAiV9YCLcioJeTS89MoreP7ZZyNlykGIoguyDMu2qpHQMM/eMBLTkuFOSQDL89AVBeWXLkFVVYvhjqiadWgaB0Ew1lXYaSsYDMIf8CP3fC5UVUVqoxQ0ada01rAmMMctWpPI1ecKb0qPm7RoitN5eQCAk/kFGGzKn8NHJzIMg/i4BPzz8edqLMPv9eGRhx7C+x+ehU4UowqPS45DcobRd7Iso6iwEKqq1nm0XzAYhMMhAmDB8xw83iocP34eqqqiUWISWrdra9ElTdOgKAo++dKIm6gAmP/OfHw49wPASYAvCeCqoLIsOEGJOWP400++xB8e+AOapEVMQdq1aAue4yFBQm5eIS4VX0KbNoZ5TXx8PHRdBcvycDgcWLFiaY3MoKZpaJPUBvnw1HocX41jES0fTvx5Kmk1ajOoUd2fXBZAM6eIxk1TjeNTVRWXzp0HdN50stNjpMLhJhtrI2yLC3h9Ms6dOw1VUZDgdqNtu3ZwmhtqTZOgqjq+Wvm1JRlcv3o9mmdlGQFbfUlAfBXUEANOFKFEaZI++2IZ/ufxJ9E4oYlFF8P9nldYiL27DBMU0oB5r32M9+csBlgvmBCgMA5wDglMiINqrgdVVbFl8xZcuvsS3PFuc1w1c6P+y0l2bfwysFXSVzlULSKmkAKxon1dh2WDpGmGx9vaVZFzO9UgoKASuqKANGOw9ZAWwyyGMe+992LKDeNS6SV8axomcw6AI4Isy5BN9RypKmRNg+b3Qw0GLVJWVlmCHbu3m+qKiL3e5SpqR1xEgupGrFF2TWjbqS04hyG1VINBHDlw5DKjf7IMw8Pq27CqPeyMcuc9MzF1ys2YMnkKTuZEzrNt1amz9fvwESPIdm3MIkwJJsNExmfX7l24++7fYcKECXjiySdRUVEBAGjUJA1xLsOKxxcMIu/CBciybvV1fRpWWQ5i3rz3MG7ceEydPBmLFi60PCgbAgIQangQnhqhKPUTb9n05FVVFYsWx54dLPv8kH0EUgmKH5A1D3QF0LXYOb3s889RWVYGWZbNWJ7GRy5GQCpHdVjdAhsAgJMT0SY1DazJIJ7MyanRDpRIt7y0iSL963S68O13K3DjjTdi3A034KWXX4J5SpY1t2qCFdcRANuAjx/HcWiR0ca6PnzgEDg5dEUq+KAkobi8osZnIiuiWXIrM7A2kHPqFHxeb61etDClwNHexJs2bcJN027ChPHj8ezTT8NXFTG203Ud67evwokTsbaosqpC9mmQUQ5Z06ArscwiAJQVXcLG9Ztj7jVvmgoxzhh/fyCAS4VFMeMWVrPqdUhvKysrke/Pr/V5bZCjJeo/M6xONMOo6/XLaBiGRduWLSByLBgAJ88UwuMLRnl2h+derKmMpilmTExg/67tuG36dEwYPx5PPfEkykvLrHQ878Cxw3uwfcOu2Db7fJFx8mnQVTWGWQQAb2UVtqzdYNFFXdesb9D+gwexe58RvooDoCMEOeiF7AcUDdBVCYrfYc2BMA4cOYQTuact21Ii7af46Nn4L8CWMF7lkKMYg2i1Ylh1HFaLMQzw/dKvUF5kSMauHTIEN0+9BfHxCXCIYbtE4+MV/vzs2rML785/FwCw+rvvcOmJJ9A0IwM8D8u2693576Kk3PBKHT34Rvzu9kmQZA1OJw+vV0JcnAOqau55WeDL5Uvw3Xffwe+RsHvHXvz2tko0atwIuh4Cx7mskzzCUOXIFGyISjoxMREDBnfAtvXHoAF47/138EYPow3hUxwuVyGHT3FgGAY5x/fj1Imj8Hm9SE9rhhbNMqx0Y4ZF4stt374dBd4SNHc3AVGstCgMg2AzkCSAZRWs3bgBZ87mQlM1pCQlId70BE1JjEePzE7YtP4H6IqCLZs345577oWuC2Ycv7olGKWl5di+fSvKykoRcLnQLKNZNUP4OsEAgtDAECJRUJSgZb/HU/1e0vEAdIbDgcOHsWOHEVKldeuWuO+u+9CuTUvoOoNgUEVcHAtZNhgoRZOhyAE89eyzKC8vx7n8fOzYtw/XjTI8+w1v15AZBN4Y1youSiVdDwXTAQQ4Dv2HDMG8Dz8EAGzZuBE+rxdut9tU3fGWlN7Kp4vWmHurPNi1ZQfy8/MBcIiLT4XbbfRLbSeEEAF6FJ/HN0DCKAgCenTvgS+//BIAcPLYUZReKkPzFunQNM04NaMe+9UqbyWO55g2YToLhCLpOY7DgKH9MXu2AEmSsGfXLpSXlSGpjliM4eDgsgzoWhD7d+1G7vlcEBH4hHgkNUq2TCUYRsB7//rAyvvgvQ9i2JD+UBQNqsrA5WIRCCpgGQaiyKGi0ocvly7Gpq1b4fP7sH7jDxhz4wQkOxyQACS1SEeX9u2xpbQUuqpiybfLMH7iRMiyDJZlrXiCNUlIdV2HLMvYsnNntWcNQTwaRS5qiMF6JXBG7WoErn7TDpbl0KtbT3C8AFI17Nm/A8XFF5CW1t2yRzUk4oaqOdz/4WeyLGP33r04c/YsNF0H73QiJTUVXq8XLpcbuk6Y+/ZcaDCYwfvuugvDhw1DKKSBQIhzCQgEFTBg4HBw8HhCWPbtMqxZtwY+vx+bt27FlKlT4XK5zDVpTPSvPvnAsmX9/YO/R59rukPjBTidbFToHxaCoCMYVPHs208h73gRLl0swq7123GtGXqJ40T8PJmujf9r+LXPJrRRN1KbNLHOEz2xL/bsYV03/oiISspLaOLNNxIYhniHg55/5RVS1drPmSYiOrh/P7VrZZwN645304effhjz3OcNUVbWNca5yjxP27dvt57VVvLS5UspMTHBODe4SRPasG5dTH0vx3XXjbDaN/u99xrQI0Tvz/mAwLisfKdPn7aeaRqRohhn4IaijrSuqqoiRVbo6af/RRzHEwCaMm0aVVVVWWkkyUdZWVlWuTPvvZNkOVDr2djh/g+Fqujc6bN0/YgpBLDkdDrp1Vdfjen/5StXWuXyTicdPnIk6r3eWttaVVVFa9aupfj4eAJAac2b077Dh+rto+izpAVBoDlz3643T12YfPOkGs+SDoWqon4b5wjPf+MNinc6CQBNuvU3VFJZVa286PlT6fHQ7bfeapyfzDA0c+ZMCoVC1vhFz3Miornz5l7xWdK5p0+TQxStfC8995+Y57quWedYhyHLGum6TgcPHaDsbl0IACUkJtCSr5fU+75QMEiPPVL7WdK14fuVK6lJ48YEgFJSUunjjz6zziSvD7qu0eIvvyDOPHc8PiGePv/qs5g0+efOUXpKitUPTz/xdK1rmaL6Xtc1OnXqDPXsOsA6o3je3HdIliPnbx/ef5hatDXoVbtWrejg/v1UXEu5Jeb/t99+2zonvVuPHnTs+HEi8zx4VZVo9vz5Vl0Ft5uOm8/D8Pv91m9Jij2jWZZleuCBh638DrebKiorrb7SayJIJtasWG3l69O/bx09VD9Wr4is/f79+5LPV/tZ0mT2ud8foNbtO1r5/vjQQzHz4PKqR1/n5ubT0JHDrbX/vy+8EJP2Qv4Fat68OQEsJaal0K69O+ttwwcLFlC8200AqEePHrRvX+z55kUXS6iJ+a1yOJ1UUFBg1kurNgfCZ1I/8/wzVvv6ZvelSmtsjL/Lx9PGrw9bJX2VIxDlfSg2iw1yGq0OOH36NI4c2AsQoWnjFIwa0B9yPVKoVm1aY/C1QwEAwUAQOzfvRDAQCfGyacManDtnnAHcrXcPdOjYwXpW2z55xKBhyEg3pHYXS0qw3zxyStc1K4xNNCoqIqoJVz31VVUVuq5j5PXDkZkZUd09/+/nrIDELBs52cLhiORJSEjAtl078MXiT6BpKlwuJ64bORxut9s6ZlkU3XjyySct1eXC+UuxbPnnlkOKquqWGiwcKJzIsCf9cukX2LpnDQAd6S1aYPTo0TFSwOFDhiC7mxlkPBTCIw8/jNyzhk0cx8WbfaRa6r+whFcKBPDM889bMc6GjxmD7tdk1tlPl4NhGAh8wwJv1wbNV7PqNWxLa/wGSktKsHrTJvhCITicDowc1AcpCdVj+oSs9hIQF4e+AwfD4XCCiHDsyGFcLCyAwxEOVm3YXVl5lYbHJiUiKIqCVu3b464HZln333znNezYvQOqqpqqY6baqc8sq0LTJMx/dz6OH84BwKJDxw4Y2t9YM3WGN2IY6OF4eQ2uLdC1Vy90N0+/KC8vxXvvz0bZxUIzDFTEXleJUumFeyPn+HH86/nnoJn1YmqQbGa0aYO7755pXb819y1s3LUduq5aTmGIUm+G57gs+7Bw3vs4dMKQ2LXOaIGJ46dGnVikY/X61SguNBxEBgwZiOYZTVFbcKrwgXB9+vRCqnnKy9lTp3Dq+HEznqAR1uiWG29Ep05GzFfF78czzzyD4qISS93vdMZZJjRhpzNNk+HXdWz+YT2+/SZybnZiXJxlGmCs49pV/X5EJOqi9+c5jElR80rRHfV6phMZnvl/efg+696Cjz7CmjWrrPmqqrH0X9Mi6+mDBZ9h2xbDFjulZUvcNH16TPnfrfgOFZUVAHSMGDQMHdp2rLcNvQYMQJp5JOmJEydw9NCBmOfvv/eG5QB5661TkW6m1TSl2hwIq9Kn3XyHpYbec2wPjprxOI25TTFOhDauEvzaHKuNuhEXH0+suQs7n3feui9J4V2yRpLkpbdff5s4jjMkZ+PGUcgfIMmSnNQmIdPprdlvkdNlSIN6dO9Kp06dJCKiYDBID8z6PTEsSwzH0d+feIJkSWpQnR/461+tnWNWVpb5Ls3aWcpywErbt+8QK+1HCxfWWa6mGVIBRZbp5ZdesCQTcXFx9ORf/0pFkkSSFKCwYM/n81l5Du3ZQ33797P6aOCI6yg/7xJJko9Cmmr1UZXHQ9eOHm3VqW37trT0m6UUCCikaTrpukay7KfwZj8QCND8+fOt3TUAeunlf8dIXmRZJkVRaO/+vcSbkjcANH7iFDqbc9YqKyz1kCQiVVXp/OnzNO3GqcRxHLEANWvWjE6fzmvQGOTl59HgYYNNaZBICxYuqJZGkohk2V9j/ssx7obrapQwer2GdFRRgqTrOm3dupUyMjIMaWiTJnT00MFay9Q01ZLy7NixjVq3NqTdcfHxtHrN91Ya479i5Xv1P+82WMIoSV5L0ptXlE/dul1j5e3atTtt3rDTlGjopKoRCY4sB6iiwkt/+cuTFB9vSMx5F2j9xvVWGkVRanwnEVEoFKLH/udRAkBsAyWMuq6TPxikr75YakhbIRDPu+j2m6ZScXGxJWEy6qpSIGCso5Cm0JbtW6lXz95W28ISxs++/KzaeyrKKqhXr25WumuuyaQfNqwhVVVJ1w0JfXhsAoEAKT4f/e0ff6UkV7LZDy5a+sknMWXmnT9PkyZMIADkcsXR22+/S4pSP72oCAZp2IiIlmHmzJkxY01EtGjhV8SZ0mFRFOlPf3qcPJUekiRvjPRZ04gkKUSqKtGmVT9Qdvcs4njGKrtx48YxGoW6sG7FOitfr349GpSnNqxZscIqa8CA3nVKGCPriSgQqqL+Q/pbedu3b0vLly8lRVHNths0NZwnGAzQ66+/TAkJSVaeObPnW2uIiKiivIJum34bMQxDTlGk1156qV5NFJk07KbJk61yb5p+U6TMigpq2bI1ASBOFGnFim8a1C8+iej6iddbZd5yk1FmNF2wcXXBZhivckQzIicOHTKJeWwaXdOoR98xVrq358whLxGFQp56yz+49yi1Mhc7APp62dek6zrl5Jykvn17EQBqktKEPl+2ok7VVTBYaf3+8cABYpgIod61ZQv5/X4K85vRRH7E2B6Rei9a1uB+qaqqorETJhAQeU+v7Gz6bMECKi0oIE9VFVVVVVFuXh699NJL5EhMIh6JBIAaNY2jbRu2ka7rFmEyVMvG761bN1O7dm1iPr733nsv7dy0mUpLK8lTVUWVlZW0c/tOunXyVCsNy7J06603VlOFR+O1/32D3K6IOj2jaRq9+u//pdzcPCorM+pcUVlJn37wPmVmRlRSDoeDVq9eXS8hDbcpWiUtCiItmFOdYawP0R+2ydMjH4swwxh+Ht2PLz73opVu+uTJ9b4jnE9RQjR8+LiICu7hP5IUkqLGR7f+5r03L8IwDmuYSjqM5cu/pUaNGln53W43PfCHP9DRo0epsrKSii5eNMwA1qyjAUMHWek4jqPnn36aQiGDGayLWaQaVNIzG6iSDuOhPz1ELMtZ72/SpAnNmz2bCgsKyOPxkNfjpaqqKrp4sYL+/PDDlGq2KTkhiTIzM4nlOEpMTKBly76yyiyP6scNGzZQampqpH2ig/4waxYdOnSISkuNPqisqqK9u3fT6DFjCAxDYrzRD79/9NGY8dN1nfbtO0AZGQbD36pNSzp4dC8RkaVmrAvvvvtuTDsVWSZVJVJVg654q7z04F0ziWMja71btz70zeJvqKS0hMrKysjj9VBZWRnt3r6b7p95l5UuKTWVho4aSgAoNTXVWo9VdZjVaET0w4ofYujKz8H3USrp+hhGXddjnu/fuZs6ZmRGjZNIt955Jx0+fJjKyiqpvNygF3t376YbJ02yNsQsy9I999xDREQBIgqaZR85cog6dmxHAKhZejpt3LqViIgu1VH/EnOMv/nyyxiaWFxsKJuXLl9ODmdY6NCFcnPPxdApYxPsi7kOY+Wypda3IiEhgQoLC63vQ5gRtnH1wGYYr3LEJSZaCzQ/P5/I3O3pum59tM4dOmrZLSWlJFFxcZGVP1rSVRMkSaIbJo40GS+R7rv3PgqFvPTNkiWUaNrN9enXkwrO1y3ZCl523btvX6veN95zjyU1UFVDMhPe1A4cPIgAgQDQonokjIYEJEJsCnJzady4myk+Li6GkHGiSG1btqTm6enER9mtsSxLWV270vrvDSmRooRI1zXTXopIkiKSz08+WUxZ2dkx5TIsKDE5gTq0bh3DyAMgV5yLbpw6jcrLy6PqW73vy0rK6M+P/ZkSzXFlBaNclmWpVUYGpTdvToJpKxT+a968Ob03Zw6FgsEYm62aEG5TDMNYi4TxSjB+Ys0SRjIlbbIskyzL1OmaiATvy6+/rrfcaAnnSy++auVt3bodFRUVWdJov99PmqaSqkr02luvNVjCeDl8lRK99Mqr1L5jW2tMw0xdQnIyXdOqFaWlpcX0f2JSEv3+wQeprKwsps11IRQM0qOzDIaRYRia9fDD9dbt8vky894HqFl6KoEBsbxhd8s7nZTZvj1lZ3ahFunpMfVs0qwZzX5xDn35xRfUqFEKxbsT6LNPIvaWmmYwu8YHXKL58+dTVlZnAljiEdnEpDRuTC3T08l9WT+44+PpnrvuoqKiImu9hyXLr73xhpVu/OSJREQUli9GaxdqwoWzZykpIcHK/9WCD6rlOX3qFP329mnkitpsAaDklDjKzuxCmV0zKa1pU6ufGIahTpmZtHrFCvr6y68N2tiokcXA1iXF8hLRqhWrIgxj3x6kEVHdI147lkVJKxvCMGqaQppm2vGpEi38eCF1MW1oI38MuZ2NqWXLdHLFN46lRU4n3Tx9GuXl5VrlkbnBW/TBB1YfjRw+nDweQ0pbE60KI7zuSktLKS0jssl4/d+vky8Yogdm3kcMwxDLsjTrgVnk9/nJ75fNPjbGUI1i0KM1TLm5Z6hdO4OBFQSRZs+eR7JejHGTAAAgAElEQVSs1VkfG78ebIbxKkdCSoq1wGtiGBUlRDPvn2kt4gfuuydmsUkNUCN/tPADK39qelMqKCigB2fNMj5QLhf9z+OPkFYP4xm47HrOwlcJEIgDS0kpKXThfC6RyTBG12/kkMHWuxd//n6t5atE5FPVag4AkiTRvHnvUp9+vWKkmhaTBxAHkCsxkR5+eBbt2bOLNE0ziaBs1qnmth08coT+8pc/UbNmaRaRBriY8jlRpKysbvTOm29S3oU8U+ISZkIj5UabBfh8VbRs2TIaM26cpVav6S8+Pp5uv/VWWrt2LQWiGEVVlWPUTNXGIhCozjC+/9MZRlkmGj9pbDWGMRSKNXXYsGaNlaZjVla9xv3R9SUiys89H9P+b5d+W2P6+aYjBAOBxtxw/RW1RVFCpGlEO3dup9/9ZgY1Tomo71ieJ4bjYsZ21Ohr6fMvvqBSU5pijK1U70YsFAzSow89QpzDQaKboUeipHK1QVVj16rX46ElXy2lseOvt2hATX9ul4tuHD+ZVq7+nlRVpjMnTlDnrCxKTEykZd8YUntZ9tPlmkdFUWjPnl00675Z1CRK6nr5HwsnXTtsCM1fsICKi4zNaHi9h0IK6bpOvfr0sdIv+9KQaoaZymjGoTb89vbbrfwDhwykYDBgzfEwg1FZVkZz586noUMHkSAItdaXdzppxl130o4d20hRFMrJyaHE5GRq3LQpVZoSRllW6pTWr45yeunfZwBpRHSlLEx4rkSrpAcPG0h+f90Mo7G+Yx1ZDhw6QA898DA1bZpe4/gYm0+B+g3uT/PmzKGCwkKrPEVRLK3U2OHDiRUEAsPQO2++ab3n8rlXG35/34PE8iCGA7Vv14oOHjtEfXr1JACUlpZGixcvtmj05QxjTQy3z+eju3/3O3PTBrrtllvIV1HZ4PrY+O+CoSs9Z8vGfxWVVVVWQLfExESwLGuFUQAMA3if3wfNdChxOp3WOcaS5AXvSIAfQE0hhmXzz6Eo8Psjka8SEhIQCoUM42OGgdPpgNNR/znP4dMXAEBRZPj9kRheCQkJ0LRQNUNmn9dnHdfldsdZJ6dcjvAkDZuLR592ousagsEQzp49iw8Xf4ac06dQfPo8HAmN0bZtU4wYPBqTpk2Gy+UyQ+8wVmw7hjHC4tQUrSQUAjhOQUWFF2t2LMPuj3fjhD8HVRfL0apjK7Ro2RYTb5iIfgMGWGc9ezyemCDLVv2JrOvwu0P/h703j7ejKBP3n+rtrHfJStgDhjUEAQGRLewgKCOIG4wiLjPM120UFcdBcX6zOCrOjI7rzCiIGy4ogiCIgICg7CEsCQQIJIHsy71n7aXq/f3Rffqee3PvzQ0JkGg9+eRz+p6urq6qrtP99lvv0m6z5JlnuOamm7jnD7ey8vkNOK7HjJ17OOKok3njqadR2mM3dh2Rl7q77aOOVRYjsNls5o4SpXKJQvDiglWIQKNRz+vqzLHuPgFEYUgzi8/peh49E8jZS9fYiAgDA0NZNVwnoVSejNaGQmEofk4Yhl25hL1xcwOLCK1WgudFBEFlWJvDMGTlypX87oYb+N29d/LCM8/TWr+e3fbejTmzD+O0U09j9oGzKZfLG127TQUVTs/bSh1JFBSCwrB0duPRaDSoZCGZ0ty9bRasXMUtV/2UeY/cy5Ln1qHbdXbaa3fmHnIYx55xCvvssTeFLBONMYZ6o4HRCYWCS6nUm/e72Wxm4VC6rlsUsWrVKm696SZ+e9dtrHxqJYMMMm0aHHbg6Zx22uuZPXt/yuVyHsMxDZDfwsucqQYHB/Ox6an24HpuHvqrlkDgM26m+FarlTsROY6ThekZGnOVO6sY2u0WCx+ezy9uuYWFj83n2UVPUypNYubMKZx47EmcesYZTJ4yhSAI8vGo1WqgFL09PYikziKuW9govWiHuOue6LoePT0Tm8vddMYjSZKhujyXaqU6oaDUAwMD9PUNhTxKr9M67r3rBn55862sXfICa1esYdqsIocecBLHH30KBx9xKEFQzkPZpCkE0+OVSq9TJ25luVIhGCdo+2i02+2hNJAKqpUqzWYTYwxKKcrl8kZhjtrtAYpjBP4XEdqtFmEnC5fnpb+3CYShsrz8WIFxGyC9BGlKtU72gm2NrR19P0k6ga/HP2cntpgxGhE9bjq2iZ23ncU9TE+sVMfbMMHzCkRRnSDY/IfDeMRxnKeh21K6hYkXS/cDZLz5FkWaIBjfx7dej6hWt+yaTJQke8HZdD6grUt3PMpGI6JSSfubCuYmn6Nbyjpg8lapaWI0gMIWBuNN0zYWR70vxDFspjwyJs3Mh33buzNuXUSEdrs94ZeL8ei+f77crIfuSJbDaLVaef+6f0/drDEJU7fB5+BfOlZg3AYQMdmDxyNJQjxvy8KWiqRBujtRXdIQEmqLbh7GJCjlvuTpmqJMlPOz8Asjc0+PRhMo6DRH6kSb1wkX4jip8Np5oX2pX2yTJA3780rS3XetozGF8ImO/0QYFKGso3xuJ0mIMR6e52BMmAdh3p5IgycnEx6jNFxM8BeV8iwdozifY1vj/vZKoXWc5W8efpPYVvs03m/75SYN/yMTVoZsq2P6l47V+24DKOXkP6TuH0kYjp5dI4rqo37fTbfgkwp66Rdax6zXEQaIooknYHIcb6MHXXf7xmrr5uJ1aRE6D+JN1V14EYJeql1rI2JyTefL8Rw3pjmBUiOPScZN37Y5hOHIvo/3QPEZLQNhuiw4FAsxzvK8DQ6O3cZK1/Uk2/Y8J8u5vHUeaknSJgxNtj08xeVLgVIK1/UZzDLKGJOwIQkZK2njpgTLNL7iUBzUeGT+vBdJNIH0iZtLGA4SxxMomN07Oow2BhO5n73cjHbPSfvRyZsd5fEEx7quGqhthbZs7lxOY96m2ZFEmPB16kbrOE972YkBuyWkq1MTV1h0x121bDtYDeM2QMf2709/uJubbr2eOHEREXaduvOIksMXrSLaKBQ+BbzM9mM0WtRw8ChkyelLJY/Adyn399PcsAGqAdQ0uJPAWQdlHzY4lCY5+IUSrlvBdTWFQoFGo0EQBLiuS8PVVOtF4vIg0phMb7FBXAhQ4iAM3eGU4yDG4McJawsJlVqFYjkmcTMhNLNRMiKoVBeKOBplXFCCUgUqFZ8wbIAUcNyQJPbwfMFxTLakX0KpkFJxhLVmdy7ELhwU4jg4rkESMBLjuEUQ0Nrgeg5KUq+ZXJhUDiIKhUY5DsYolDKsFsU0JYTtkKAQ4DouIg5KGRzHwQCOFnBVuk1XOi83jbLpqHQfIum2SCrYSScPsUIhOI5LoqP0HAri0OD6Bs8pEMYNRLsUCgVc10EQFKktk+9LbgCqSO0FjePgIURxjO95OJ5LEoZ4frCRXWcUGfzApMv5jsKRzOJeBNdRaEkDVOsuezPHcbLUe276sBVBRKXtUKmaU/HiJPX0kPTiiihSf6f0u247w7G0eWFYwyn0EGXC7EQJwxqFwpD9cMeURMRspHkazd4xDCF13GfE5FSbNQxRFKUB2UdZ8+1Odzi8PSZvK6TC+mjtHio/9qUZa1/6QjJk1jFeHUYMKGeY1sIYk9tJbqsMDg7S2zt0n9EjgrN3X/fR5sBqGDOgeRgO4nm92cvc0DFpXVv2Ujv+tZYs8cHIOTx0zOhzfPPb1G0S001nXEUMUaQIgs37TVheeqzAuA3xnR9/m/ede+Er3YwtwvHBSaokkr6VuoAqFtFxG1dKUGgBAb6jSIxDwfPQxuC7Lq04xnddCjqgXRqk2Ool8RN8z8sf/iXfpxVFFIOAOHvtNsagtU6F5pEPUM9JpS4zfJoXHQ9dLFOstFGtHhwfIgEvEii20aaEG0ESQKDACcAtlIkThStN3EKRdtslcFq4OkC7Ea4KwEtz9laKFZKkjeMVCYFSTUOPS7PLBk8pRbFSRBuouB6RMWgRyp5HU8cELrQSKHge4BOQUCr1EGMIcGlRo0QPES18ikRoCpl+Nij5xIR4FHBxieIIx09v9gqFxEK7WKRPDIVqANpAwYdGAM7GGgXHdSl0bCdLHoXQYHCJTUw58GkaTa9yGYxjfN9Ha507X+XzwFXo0EE8jSIV8kR8nIKD5zgYEXzXJcnUmp7rEmuNoxSuUsTGUAoCgsDNhB4fiIhjP8uVndqJhmGI57lUimXciQgfgYfnFHA9jYjCaIdCwSUMNUE5ImqmGtAAF1NQ5GadSQGCNq7x0UmMWw7QUYxHgFYxyncoxQWi3gLFdkzs+rgqwnV9ksSglMF1PZJEoxQUKxOzne38Dny/SBw2U0PBLP2HUwhwEk2iDargU8AABQqFAjUdUVYuxkRo8fAdh6ZjCGKDG7i4pCYnhaCT2Whs84nE86kUNtYMl12XZpdaOhAX7UHBcWi6QhD6iB9i4iLGbaKcNNG9BC5+5JFIm6A4vnmCMoZIGXzlZaszoLXCcTTGKBxHMIZMIE6P8Twn1wSKgNYJrrtlJjZag0hI5BWG2dV2L12PZg7UWW5NzXwcmihKojOTpKFMVcb4uK7Jl3JHux5xrDNNvcrNhtKXqNTEqWM2AT7GDNniDrWhI7il2YOCIBi2HJwk7dxcpHt7qC/p8enPbMi0ajTiOMbzvPSlcZxVoY7phtbqFTffsQzHXo5tAGOyG1trK1mIv4KYGAxDAocmczcGElqkefgikmx/Z7Wk1fV3M/uixbqhHZbtGgcQJ/N6NYKDAkdhjKLgqXw+OI6Te3EO2860rp2Xh0295zqOgzuOhnEYroOjvFTbLAoxCs9TJIngBQlJlN4mXZz0haBj74oHriA6FcJxBaM1Dh5GaRzXxdcuScHFSzTacXEYckQQ0fkynYjGCyZuxxm4Lo7rYZJ46MlrDHgujpF03DwXDwE8PM8jArxMg6dFo0ShXRcVxziekwrxKDxvAkK25+CNIhj4jpO/yAEEjkMCeKpEpFr4uHh+kK4ghAmJ+KhCBHE/XnEQ5RaQTTyWlAhaCdN6+vIXSWPIBUXHEVzXR8RgjOB5Hp4C3w8oeB6tOKHoOjiOQyOO8R0H13FoxTGlwMMv9UzIprZgPEqTxxaQRlIOelH9VSorY6JpCml5eF4IQRmvnlAvtKmsL2CmGXy/RFCpIIARwXUcIlYTdOkmDS20U2a6F6BcB3EU1aBKQyKkEaVa92oJrx0ioiiXewjDBqUpJZK6xnMKUDLolsERF6/iELZDiMDpFfq9aTiOg+8POTCNXN52HPAqHipKqEyanGvcR0Nrjeu6uK6L4zhUgIEkIQgCwjBksl9gEA/EYcqUIHOo2nLnH8vWwwqM2wBxnC1zWWWv5c8UA8O0vIYhrW+YDJXrtv8bbVsnXYUtf7Z0rCHCrm2yBXydPbisldv2i1cskoQhQbWKDkOM1gQVTdyC/v5+nlm0mL6+/le6mZYRWIFxG6BjE2UZ0+TQYrH8BRGOsd1hLMciy/ZBkq06RbUht6COn1GrrTPnLyswbmts29bFf2F4m7DdsVgsFovlzxoR5GWPtmqZCFZg3IZIukKV/KWy9bSLVmtrsVgs2xtF3yfY/s35/yyxS9LbAGmaLeE1Bx7Kpz/3QVoDQ4E+TBKRtFK1fS2KCFyXxBhKnkekNQKUPI9WkqC1Jhwj6FbHwL7zmSQJYRTSjJPsvUF3vT9oPCf1vIszj0fTjlKr51Yr/XSc1JmlUEjd5NptVKVCFLYgjIkz4/pOuAZPKRIRAsch6jKKTyYYJM4IhInGA7QxiOOk25khdaIUKkk9H7XWJMTALqkzgk4Q1822U6cDraTj5jisPeOhs7EV0ahQoYM0BI4KIQkMrnJQEUQFBVGMMRotPp6nkVECGgoKEQdHaaIobYPra3Q85FHZ7XSRjkOSejQDiTF4joMWwc0cQSRzENFZn/QE+xYnSX4smaF997arVG6An0eGhzQ6fKdvjgNGgZsFD0oU4sTISxwP0WKx/PnQqkEUNoDR0wlaXjlsWJ1tAGMMxhg8b/TQCVuDTtaOzmeai1llQqKT+Se7XdspnRR+E5I7RNCi8Q00kyTL82wQYwgch9AYKp5Ho8txIWxMLHi4Fqi1Y1JZLEF8n4KkoSA83yN0HJwoIvB84jgmooXBx8VB4hDj+7goiJM0ziA67ZzWNCfoSJFkuW61jnAaDlEpFazduiIsa3zXRTWgWXGg1UInEZEpUSxE6HjjcwgORlxcFdNspvv9YkzcHnq97g7rApBImHuJhFpTyF4gvCzeo2TCXWQMsQg6SdhUuFxjEhptjZEWvuMAilgH+G6E1oIhIPBijBG0SCrcZsJ27jqpFHgeXkuTlFLPXL+haasGUVgkKUX4oUYFLlGYUHFdYschSRIqjsP6ZhPHdSc8H1qtsa+ZILRdRWAUUbNJgkEBIZqCdglpUXJLhBjcxCF2m5So0Gq3aek2yQQme6I1ogZgTUCrx6XYCenc0NSLDtWuGHqDrdQ4S4dR6kUdlInaCaWyQ73uUvZCDAaPAjEtdAuaSUxQipBWCa/SpNUsErgecZJQqLQI22V02ESP8cLVThKKXTeSVpLgK0VzlPJKqdRzuvNymN2PWnFM4LoYERJjKHgeiTEYEQquS2u03027DR3TmmHBPEOSln1zsGyack8Pzy1+kqlTZrzSTbGMwAqMf8Z0AoJvCVsaLNbyymEyIWZTl2/oFtB9K3CyuGpkQaWlq/y4leUTxhhDA6iIgzgGle0yIrgoJNOKOh1NqFKY0VLLjNY3M/5tyyhwJG2DZGNgSMP5GDE4Kg1sjihEGRzSED5GzITMIkQElIZYYVw1ZNtjBK0UXfIi2uihY0TSAPBGcFyF1uCoLAA4acB7MekYKUfAKJRrMNrJwwk5rsEYB4wZM7xQt4a48/cg0DOB230URcRxi0KxShy1AAchQKkWiI/g4Kg2RgKgTdjtlWIMfsFJw7C4hlg7eB4kSdovoiYNXaAfzdogpqdVplmu4den4JU20I4qTHLbPD84SGtgAHoLMGDA7wFZT7V/MvVVEeUdIprPT4dJK2iubRHHo8+bDb5Pf7YyUGMdpuaiRdAIBVzqRFQJaLCeCpOISGOENlkDA5CQoNE0IvDcNKxrM4Kil87lZpzOsajZZNS0SCOotWq043aaGF1DFNcJqtU0J6oDYXOQQikNCh62BokiQ5IYvLaL6VuH25xMQ8f09fqE9dSEqVAtsnpNSNKuo8NNZwdqJwm1Vitd+cle6jvhq3w/feHuZn29TuD7OCI0ooiC51EIAgaaTcq+j+t51Fut4b8bY9IUQ8ViOudbLegklkgSkmZzTMelvv5+nl38DP39Y2WjtrxSWIHRYrFYLC+KOE5XROxL5Z8vxmiMSTAmIQgqaB2RJApIA3mniuY2UEKklcds7F6E6CijPW94qsq6tOlJ3FQYDSuo8npKlPBKro0esg1iBUaLxWKxWCxbTCdzzGgvEFpnZs4mNXPqkClXrUPFdoD1krZYLBaLxbLFOE6qdc4yVQ7LDNNJSDRSmAw6gdjD1Lkzjoe2LdsWVsNosVgsFotls+mWHjbXLCEMB4FegkCy461dw7aOFRgtFovFYrFsNp2AAlqntoqbQusICIYtSWsdo5ST51jXOsZxPCtAboNYswGLxWKxWP7CSLIAaqXR9k0wvFtnmbnzqXWqaXTGNHZTG2kiXXe4pGkFxW0Xq2G0WCwWi8VisYyLdXqxWCwWi8VisYyLFRgtFovFYrFYLONiBUaLxWKxWCwWy7hYgdFi2QYQkTw9lzGaBBAZO/WbxWKxWCwvJ1ZgtFi2EXSWi9aYmDgTHC0Wi8Vi2RawAuM2Rq1WI47jPAF8q9Wi3W5jjEFrTRiGYx7barVyLVWHer2e7+v+BGg2N05UP9p3ozGyXK2WRuYfra2dfR3iOCaKIur1+ib7NJJGowFAFEUkWYLS7vFqNpu022201hhjaLfbNJtNRCTv+8i2durs3tcpO9p4NBqNvL7u8aRrvEf+3T3+rVYLERnWd6UUfhbITOsigQbwUUqRJAlRloC1Xq8P67tl6xLHG1+nTTFauSgamgfdc8VqjC0Wy/aKDauzDbD8hRdYu24dAAI4SlEoFmm1WjhKYUTyT5WVUUrlD5/OvsmTJ7PD9Om0220qlQp0xbSq1+s899xzABgRZu62Oz29Pfm+arWat8cYgzNGIK1arUZPT3pcbbDGs0uey/fN3H33fF93nVprHl+wIG+753m4jkMYRVQqFZqNxrA+dcoB+bbOMtnvu+9+FIuFjdppjKFWr/PE4wv5/Z1/4JEn5vH040sBmL7zJGbutBunnnQqsw86gBk77JALZ6PF/OqMa2dfHMUsXbqUJ598ght//3sWPbCQ9c1BgmLM5J6deO0JB3D8605n5sw9mDKlH9d1CcMw7afrblSfMSbfbjabLF22jJuvv5kHn/wTTy9cQhK5TKlU2WHPHTj5qJM5+IiD2XXXXSkWi8Ouu41X9tKjAWUSjNF4XmHj/ToGBNcN8vlYq9WoVquEYYTnuXgTCWhnsVgs2zpiecX50eVXSqlSkUq1Kn6pJL29veKXSuKVStLb1ydBqSSTJk2SoFSSaqUifqkk1Z4e8UulvLxXKslZb32rLF++XEREoigSrbUYY6Tdbsul//RP0tvbK719feKVSvKZSy4asz3NZnPMfcYYieNYREQu+thFUiyXpVQui1cqyT/90z+JiEi73c7Lh2Eo69evF69Ukkq1Kl6pJMVSSSqVihRLJQmy7UJXn6pZuaBUknI2JqVSSfaetbc8+eSivA2d89QGa3LVT34qZ559tvT09EgmY270X7muzNp3b/nHSy+V5xY/l/dDa51vi4jEcSxJkki73ZbnX3hB/v3zX5Q5cw4es15AypWynP760+WHP7hSwjAcNmad+rrHxBgjf7j9dnnP+94n/VOnjlv31Bkz5AMf+pA8/ND8rL2xaJ2I5aVnQESSJJxAyXTex3EsxhjR2kgYbnyN4rg96rEWi8WyrWMFxm2AH373inEFBg9EZdvOOOXe8IY3yLp164bVbYyR55c8LyfNPT4VmrI6pkybIWvWbBARkUajMeG2GmMkSRJZs2aN9PT15HUCctTrjpKVL6wcJnwlSSLr168f1s5OH1RX/0brlxqxveuMGfLYIw/mbejwhX/9V5k0aXJe1qUsQcmVnXfaSfbac0+p9vdvJDi+8fQ3yILHHsuF6u76OixZskTe+MbXS7FYHC7ATZ0qu+++u8yaOVMqfX3D9k2ZMkn++Z//XQYHB4fVNVII/8o3viIzd9tNlOMMjYvvy9Rp02T2rFkyeepUcTxv6Po7jsx+9T4y//750m7HYnlpWb9hrTz+2EPyxPxHRhX8OoQi0ur6O0kSeWbhQvnjHX+UWq0mSZJIGNby/Vrba2exWLZP7FrJNsDMfV7Fu95zLn6phAJ8Y2glCVN6e1nx/AruuuUOnl29miAIOPq4o9ljrz02rqQOBx50IIEfDPu6Vqvxx3vvZd5jj0OXZLN29Qr+dMetnHHWWZTL5Qm3tVar0dvbyzXXXENtILX387IUU08/9zQPL3yYk3c8OS/vui7GtHjvu98LleF19RYKbGg0uP/ue3nkkQUox2G/g+bwutcdOuq5q9V+Jk3dMbfrExG+9+1vc/E//iN+OV2/3mlaLx/48Ad55zsvZNfdds2Pvef22/mXyy7j17/+NaI11//218zccze+8IXLKJVLuFly04GBAfr6+li5ciVz585l8eLFeR2HH34Y//zPn2Pu3BMpFNLlyZUrV3LXLXfx6Us+zhOLF7N27Xq+/OXPs99+MznllNPzJfpSaSgB19VXX80nP/rJ3H4xAC78+If5wAUfYO/9987LPffw43zh8v/mm1/5FhjDYw8/wZnnnsOdN97ILnuMMgcsW0yjEVGpBPzx7od413vfyaO33UYQuGOWD0b87bou89fWOf+Np/HDH/6QM844A9cdMvdwHHvLtVgs2ymvtMRqGc5IRdfTTy+W4447UQDp7emTH3//qgnWk6TL0WEon/yHT4hyU1lx/4P2EaVSzdW73/Y2aWTawI6Wcbzl6A61wQE5/fWnpRq1yZNlpx13FJVpwT7z2UsliqIJ1SMiErYT+ehHLk41aZ4nH/3oxzcag7H4zTXXiF+pCCBBEMgJJ50kj857dMzyzWZTvvXVr0qlPEkAqVar8tNf/3RYGWOMrFm9Xv7+Ix/INX/Tpk2Tz33uH0ftU0ebumjRInnHue8Q13MFkMMPO0yWLl06bAlfROTR+Y/KQQcelGpCHUdee8ThcvONvxu/n9ddJ7vvuWc+Rhd99KNS3wytsGXzqNfrctyJJ8q5b7tAWq32Juey1ukydBQNlTvnzDPl+LknyNLnnhNjROI4LReG5mXogcVisWx9rJf0No7J/qXbQozZ5DEdT08RYcP69fz62hsQDX65zKcv+gwzdpoBwN0PP8yCx1PNY0fLWCqVEJFc+zWal/DjCxeyYOETABw4Zw4fvvBCgiBAjOHW393G4GCNUqmE1vEmQ8MICYZ23l6tQ2BjD2CRNLF9Og7w7PKVXPaf/0XcaKCAk844k+9/93Jmv3r2mOcqlUqcd/75fPj/vQcyx5z/7zOfH+bpnCQtHp53P1dd9XMAenurXHzxJ/jUpz4zTEs41K7UAWXWrFlc+rlL2XuvVEN434MP8tsbbkjbaxKMSfv0o5/9hEcffxSAXWfO5Mtf+hLHn3z8uGN04imn8ImPfYzevj6SJOGG3/yGxU8/sdF1MkZnThiWiRLH8UaRBb5z5Xd4/JH5vOP8cygUgmHXvTNX2u32RnU5TpB76198ySU88/QifnXNL1AKPA+SRMh8rSwWi2W7wwqM2xjuiNUvDwg6PsMiGL1pgdHziriui+M4PPTb23Oh8K/OOJETTziR2fvsC8DS557j7ttvz6o2uaAJEATpYlv3w3JwMCRJEm6+5VaWLFuG6zgcftRRvOW976VnWrpEe9+8B1i+Yjlky/D56kIAACAASURBVG9KTXyKOeJQaPtdPtIQx6mwmNaXfirg/jt+zwMPPQjAjjvN4KMfeD877rLzJs9R7e3loosvprLDDgAseughljz1FAD1eoQxLj/50TWsWLkSgDmHHMq73/2efAl6JH6XBLDjrL05953vBEC05pfX/TwLl1NAKZeBgQH+99vfzkPifPxTn+J1Rx6NO4ZHen6OIOCcc85h5l57AbDwicU8tyRtX/d1UsqxS56bQRjW8DwPpRTGGFqtFs8++SSXXPovzNlrb1578MHZvoQkaVOrhRSLRcIwZM2aNSxZsoRGo4HWHqBwHCf3iN5777057DWH8F9f/Rrt9gDkc8V6tlsslu0TKzBu44gIuhNGBYUzgQeOiELriDiO+NK1P0NE8DyPf/jY55ix0wyOPOZIXNel1Wrxx9tuZ2DdepRy8P1UOFRKobUmjmOUUrlWpbe3QLPR4IG7/oSOY4Jikde//vXsufPOnHvK+QBEzQZXfPObxHETYxQiE39AaiehXhkc9lD1feiOHhOGCVEY8qd772XD4CAAs/efw8EHviZ7uKflxotTOGXqNP7l4ot59zvfyVlvfzuNZqoVqlYDWq0mt993bV723HPOYsqUKaPWY4zBGEMnimRVFOedfTZ/+9738vbzzmP27FfTaEQopagrxZ23/o7Vq1YB0Nc3ibe+6U1jhi/qRkSYNm06H/ybCzjvvPM499xz8CSi0WjkoXWUUvl/y8QoFHryMXMch0KhwI9uuona6tUcf8opTJuxY1ZS4TgBq1Yt5SMf+xj77bEHsw7Yj71mz2bffffnox/6ME8++QQiCmPS8S/09nD8qSfx3NKl/PjKVFstooe9DFksFst2xSu9Jm4Zn6eeekrmzp0rgPRUe+UHV/xok8d0bAAfmfeIFIJAAJlz0Jx8/5133CalUkkA2WHnnWTe/IfHDAMyVGcoxmi598F7pH9SNbXT23ff3PbxgXvvFTc71/TJk2X9+vWSJCJaj9/WdrstH/nIR1L7PMeTj3/gomEey0kiYkz6X+u0HevWrZOTTzkxtzG85JJ/EBGRKGrmfR8Z2mYkWifS0LGMbN6Ddy/KvZMBWbRw0ThjkkgYNqWe1ZeGVBFJMu/ZkeN5zunvyOt99/suzL+P49YotXe31Ugc63y8ZIxQL7GI2KAtL571a9fKG04/XQD5/W135N8nSSiLn14iJ514ggSFQM4++6/kX/71n+XfL71UzjjtdCmXi3LIIYfI+vXrci/ohojcfPPNMmPHHeXQQw+WMAwlSSIxxtowWiyW7ROrYdzG0conUdlyqKOQwqY1SJ1l7St/cFWeIeTsM96Y7z/88NdRnTwZgJUvLOfhe+dldlbpdEgzUwy3hUuXOhW//Pk1bNiQZrF454c/nNs+vvqQQzj0NQcCsGrdOq677jocZ7h2cFMYpWkF9WFat3wZWqXbrhsQttssXvT0UH8Ofk3W7yDve2epdiyUcgjUxvraBxbeism0kzvttBO777n7mHW4rovnBXhhWp/rOsRxHTfzng0Cd1jGj9/ff0O+feQhQ57gjjO2YdsawHFUfm06S+OuG7AmKxPHaQYRZcCx2QRfFMYYFj79NM89/zxBTw9z5gzZwrpuwD333cd99z/E3CNex7e+9T988hOf4oJPf5r/uuzLHHHQoTz44IMseXppboJRBvac+SqmTp7CEwsXsfqFF3Bd32qALRbLdosVGLdxPCJ8MicWY9Dh2BJBt73fylUr+M1tv0EU7LDLVI494cS8XFAocOlnP5v+IcJ/fO2/EREcZ2h5s1Tyh6UyU8ph7Zq1XHH5FSDQM3kyb3rjkBDqui5nnX5O/vdXv/lNtE42S2B0xKVQ7yFJhuw0lUr/R1GdJAFjIEoilq1fDaTS4Q7Td0mPd9KsKhNJXhTHCrRDFNayYUiP27B8TV5m1uxXDbNRHLXNjksQGIxRaO3g+2VEhq5DEKQhVdrtGmtWDeTHHXH04YiYrI9jD9LUrraRZR4Zvg88r5QurZKgZOJpFi1DY+s4DoMD62lsWE+xUKBYKuaCOMDk6T286aw3c97f/i3Tpk3H9z2mei4zZu7MlF1SJ7Lnlz07zGZ36vQpVHuqJFozf9EiQobmhcVisWxvWAv5lxGdufmmsQlT+7dNpQ2bqN0imb1fkoQoVeDOu29j2eKnQOA1Bx3BPvvtN6zsWaeeyqX9/azdsIFHF9zPow8/zP5z5uA4DsbEeF6BUqlEGIa5VuvXv/oVy5enDi1nnf56dtlll2F1Hn3iMUz9+nTWrFjFymVLefSRhzno4NeQJCGeV0DrGNf10Xpj5x4AUYa40KLbrE/rVLPYEbwAxEBSS3LxaerUPgAaQNFIJkSNP2YdBaTnpXESU/syxaLnh1IdTps0tnYRyD3AoyiiWEztP5MkwnWLaJ3guk4uQAwMNHG7BL7e3l60jvC8Yv45FqlgKSjl0RShIjp3bhFJhWjXTbXA1ullYnTmdZIkuK6LUora2gaDg20OmLkrhUJ6PTrC/MnHn8zJx5/MwscWcv1vbmDt6rWsWb+KJxct5rY77wLAr6RzqTPfy+UyxXIZYwzr162mALTDME9tabFYLNsT9unyMtKtSeoY2jcajTzv82gkRogyhZuDQ8DYQYTb7Tae59JuNvn9TXcxsL5GEAQcc9RcZkyfPqzsTrvvzjHHHss1116LDuGbX/0qX//Od7J2DZ2jE9B6cHCQb1z+HQB8v4c3venNGKAJdES5PXabyav3m8MtK25hxapV3PaHu5h9wGvyOjrC01gKNcFBMm3Z0DiNVlCgW5NWTKexDxgT5s47YxFFdTyvhIjGdQOazWa+tN5T6snLlXrHr6fTziDoCIvgukWUAtd1NvKIHalc6giJ4wmLUVQfJiwXYsBTxHEL3y8h0jEd8PPvLJumMyc7GmQRQ629jkin4XJGan3XrlrFp//tYu648U+sXb+ORr1OGMe8ao/d8bNQV262YNP5/RhjcLRGRGhHab3jBQG3WCyWbRm7JP0yISK0lWLV4CAnHHkkb3nLW4jjeFxhEcB3HAqZyk0T01KNMcsWi0U8z2f9mjU8eMd9iAjVSoXXvubVNFst6vU6K1euol6vU6vX+KuzzsqPvfbmm1m9Zk3mNermS3EdDej8Bxfw9IInAdhr312YOWsmjXoNanXqtVqaAaavlwMOOQjlOMRhxF233sD6tctQykNr6JjMKjX6srFC0GEj18QCaN3cSNRyPY++SUOey7U16ZgEkAtMYbbUPBpBUMVxXFw3QIRhmW7K/f35dv2pVcNsEDdqr3Ky/6lW03UhigYxBrTu2IOmpgKTJlUxaqju9evWQSbkd/d3tLZqLSRJ2qcgSAX6ISHTRykfpbDC4mYwUrOvlEPZL+EphcnMMzomGoMbBrjsv/+bK7/xa9auXc1HP/RBbvvNTaxdvZpH5j/K3LlpHM3OSoBSQ8Kom/2+OwKo1QBbLJbtFXv3ehkJdMTl3/42d95/P+ec/dYJhVRJRIiyWDGu61AsjK+h0Br+9Oh93LPoIcg0gxf+3QeQwMGjgCEN7aGJiBpDtoIDGzZw0803867zzoNsmbWzFB0nMTfefA2DgxsAeP7ZZZz71r8mcSMKiUdChI4SvHIPGwbW5oZa99w/n0VPL2HSlF2y5fIIKKAzrctI+0ABXN/PtT8Avl/O+9X52vNcpk7qY+3atQCsWLeUOeYARNy8TKHQw1hoDWvXrmLZCy+QELJD33R2z1Lt7T1jRl7u0WceGqbdG4skaeE4RUSEQqGXxx9/hHY7JknazJn9WkoVF6iw085VXliWjuELi5cw+4ADKRbH1i7m4yIhnlekMRjz2GNp7MlyscBe+8zO+6t1hOOkAvAEppUl0yqm9ovpIPZOm0a5r4/Fq1YRx3E+PwcHB3jonntox2u4+We3cfRxx2XHC6uWP8+GtevwShBmAecbjRrVai+tVovGhg04jsO0STsMMx+wWCyW7Q0rML5sKNauXsvNv72BJI45/21v36RDBYCrwM8EAKMVcXvTx/z8uz/CZBknEq158ulFmzym2Wzypzvu4K1nnUWxXB4WqHrFyhXcfvcfSDJN2ECtxkDt8U3WuWzZcu687XaOOupIADyvQByD72/+tEuSFq6batD8oMAOu+7KE089A8BDjz/EySe9HjK7QhGD644/Tt+98kp+/MMfghfy3vP/hg9/8O8BOPjww/MyTy1ZwoYNG+jv0jqORuroYhCBwbUx77vwAhoDMV4Rfnf9XZQqqdB56IH7ce2yZQDcft/dnPzGN0yo7x1t4jXX/4r/uOy/AHjbWW/m4s+MndXGsnkYYMr0yUzt7+GRhc8zODiYx9+MtaaZZXbZeeeh4PADIjw4/zHmP/Y4SQuKtGkBhVJ6vdatXkej3sB1XWbutNMr1DOLxWLZOliB8WVDuPsPd/HIQ49wyOzZnHzm62m1WhQKhXE1janTy8RVRsuXr+baW68BIKhWece5b6YclDG6TSOO6S/3Y9ZEOP2GxPV4bukKbr/xRprtNnfd90eWvLCMvV61F81mM18uf3bxCzw6L01nVy5P521vO5XJk6ezamAVpXKVYIPPoL+evmo/iU5YtHAJv/vd9QD85Eff5+8+9FH6+opEUQPfH3sJXgE6jtFabzQmQTCkiauWyxwyew533JZmqbn9pnl88H0tqtUqIukyca0W0tMzunOB68KNP7me+fPmAbDTR1+V79t1993ZY5ddWJwJdr/61a84//zzR62ns5Lsup3laXjo0bv4450PALD7zN0pVQ1aR2xA8Y63vodrb7gZgG/833e45NOX4Ptja0IB2m3oKCGv/vkvmT9/PgDvevs7cd1Us0gW+mWkvaNlfDrXjGzuzdp9L6ZO3xk9/3GeWnA/U44+FYC+nj5233l37uRO3nXBe/jil79Irzj8+Ibr+d73vsfKNWkw9t8/9iT7HXAIvZNmgAvL165isFGnPGkSM/ealdm2vpI9tlgslhePFRhfAroFHmNMmlUlbPGTG29hoF7n01/9Fq7rUigEm4zLFhtDO1uSHs/pxRiN47j8z7e+QmswLf/B9/8NX/6PL49b/8LHHuOMRx7hmaef5tFHF7Lw8SfYe9beubAYRXVuuu5XbNiQLqW+94Jz+erX/nPcOhc/8QRzDr6VRqvFvAULWLjwYV772tfmDiHjUSwWhy1Jx7HG8xxEFEqlS3qFYpEDDjqIQqFAGIY8vvBB5j30EEcdfTRJ0sb3S/T0FBCRfPzJvY3hrj/dyO33/x6ASb27csxJh5F00jAWixx03HEs/sEPAPjpz37GWWefTW9Pz7AQLACOY7IxcggCCFstvvbtf8vb/uaz3kyx2AvAFGDuKXPp7SsxONCivmYtN1x7A295x1tot9vD7CjTvNMeoCkUHOJY8eB99zLvwYcB6Onv5/Bj0ziOrjsUb9IKi5uH1gathSBwUcCk/l5OOvZofve733Lb7xdw+FEno5RD/+Q+LvzIhSx8bjHz5j3IUUcehe8F7LT7dN585luYucc0/u0L/8WXPnMpO1V6ed/73oOI8Pi8eax84QU++vcfpFq118ZisWzfWGunl4Buhw4RIQxDFi98nFuuuZrjjz2WEw7uLCVuOiibUmroIjkaKYRZvSbXLnX+XvH8Cn59bZrWrr+nhzO7gnWPxax99mHOq9PA1yaOufpnP0GAutEYk1CvR/zwF1cB4BYKXPiud2yyzj322YfjMzsvgC996Utp/WbIZjKKomF/dzDGDBu/jlDW+arzecxRR7H3vmlO7CXPPsv/fPtKoijG90vD6u6Mf2d7xfMruOiDn0/rBt7zvrcyecrkPNxNIQh462ln0FtJBb277r6bX/7qV2itSZJ2Xm8a8zIVIIMAoqjFzb+9hZtvSG1HJ0+eyl+98U15P5IEdtxxR9589pCj0b988f/jiWceHSYski+rDwm4tcFVXH7Fd1mxcgUoxVFHHsFee+69yetgGR/XdTbyWn7DW9+EVypx159+x8CGNG6miOaoI47i8st/wP9861v811e+wte+9nWu+skP+fcvfJG/+cCF/O///B/f/NrXOWHucSRJm1a7zR/uvZfeSoUL//bDkM2B7nztFovFsl3xSqea+UtAay1/9+ELxfV9ufyKK0RvKl9eFwsXLZLXHXOMAFKt9sj3rvy+iIgYY8SYoXqiSOQHV/1Aenp7BJDXHXGELFu2bELn+NXPrs1T1hWLBWmvWiWJMWKMkZ98//uCUmmdxx0nJhk7fWA3P/3pT/M6J/X3y7LFi/N9jUZDtNZijJHVUST/8LGPCSDKceSC979foigatc44bovW6fmTOJb//MY3BBAHpBgU5ZJLPin1ej2ve3BwUCQbfxGRdatXy99+8ENS7HcFkD1mzpInFj6S1x+GdRERWbN6jZx02ty8/bvssovcdu38fLzDsCadDG+d1Ijz5j0ghx56sCil0n5ccIEMDgzkdXfK33zzLTJt2oy03a4j573jbbJ0yRKRLO1fHMf59exw+f9eLpXeXgGkXK7Id7/93c2aQ5aJk+hEPn7JJbLbnjvLLbf8XgYGBkTrWOJ44kkXjdGydNkymTZ9unzy7z/Z9b0M+81aLBbL9oQVGLcyxpj8Ya51Ikki8sijj6a5l488WJ5avFBERKKoMaH6nnn6aTnhuONygfGKK36Q70uSSJIkEq1FWrVBOfcdbxeUEkcpufiTn9xkPuUOYViXqTvNyAWk//zCF2RARFqtWI469NBUmFNKrvy/KyURkVrWtw5aJ3mO3FarJVprefLJJ2X33XYTQHzfl69846tijBmWJ1pG5pL2PPn4Jz4xrO6hcwxtd+qIooaceeaZ4vt+3va3nPQOueG6G2TRoiflhRdekOUrVsiChQvk1ttuk5PPOCPPE90/aZJ8/8rv58Jl50HebqfX74933ik77LBDXq9fQf7t3z4n9/zpfnnuuaXywvLlsmTps/LkEwvkim9fITN33jkvu/8B+8sD8+Z1zQmdj08URfKpSy6RcpZ3G5DZsw+S3/zmN/Loo4/K888/L8tXrpQlS5bKnXfeKRdeeGFezvF9+bsLLpBWa/zc05YtY3BwUPbfb3+56OKPSRRFG83ZkUTR0AtBh0985COy3/77y4IFC17axlosFsvLhBUYtzJa61xLFMdtabVa8u73vls815V/vvRfJA43T8Ow6KlFcszcY0YVGDvEscgj8x6R2fvOFkCmTp0q119/vUgmwEbRprWCn/7kJ3PBZM6cOVKr1eTOu++UcrksCmTWrD1l8bNDWsIkCYdtmxFPzMGBAXnXX/91XudfvelsWb9u/UbCTrfA6Liu/L8PfUDiuJXVmwrFxhjJhjQ/pkOr1ZL3ve/9Uq32ZFpKpFItyT77zJJjjz1WjjvpJDn4kFeLWyjk2si+vj75/L99Xjas2yBx3BZjdCZ8d8YrVe/dcsstcsihh4rnIai0H5P7J8sRRxwhx5xwgrzumKPkVXvMzPsInhx22OFy8803Dmun1kkuBGudSK02IJ/+7Gelv79/SBh0HNljzz3kyKOOlBNOOUUOPfSwvE+A9Pf0yN988IOy8vnnN3ktLVvOVT+6Sg486GB58vHHh714dc+97jkZxy0xJn2xWbRgkey4007yxf/8d4nyuZxIkiRW2LdYLNstVmB8iajX04fMvHnzZNasWTJphx3kySefzPdHUfrw2dTS4uKnn5ITj0uXR3urffKjK34skmmtwrCVa96+873/k1IpFYr23ntveWH58qyckSTZtJD68Lz54mZar0q1Ktddd71c8pnPiuumy7fn//W7pF6rDzvGmKGH5khlptZavva1b+ZCz5577iX33/dgvr8jqA3TMDqefOL/XSRax1kdw7WXSRLmglcYhrnmZ8WK5fKVr3xJdttt11SwU3QJcUP/A8+TOQfuL7/+9XXSqNezc8Rdbd54XB568EG54F3nSyXYYdQ6O/97KhX567ecJ/Mfnt/Vx3ij+lJto5ZWqyXXX3+9HHzooaIcZ8x6fZCdZ86Ur3/ta7JmzZpNXkfL1mFNbVBuueU2eXrEmHdf0yQxEkVNkWweaZ1IHIey5NklcvXVV8uatWvzslpraTQaY5pbWCwWy7aOktFSbli2CnEcc+mll/L5z3+eiz59EZf962Vjlu1chpFe02vWDHDXPX9A156nGZU58KjXccAeM/Ngw1HUIAgqPHDffTw+bx709rLb5BnMPXnuZrW12Whyww3X0qrXcIzL7AMPYcOG1Sx99lk8L2D/o4/hgL32HOaj3W4PUCz2DatnEKgALrBy2TLuuvNOGq5L0Io49qQT2XHnHYeV11rzwD338MRjj+E4LnseeDAHH3Ywmw5nvTEDAwP84ic/5/Krf8SiRYvRa9ajChUmT6+w/76v4f3vOZ+5c0+kVB0eHEBrQxRpSqWxYzcumDeP7/34x/zmxt+wYv0GxBicMGTmzJkcdtwRXHjehcw+aCguYudXFUXQCWnZCZETx+B5adrDdrvNTdddx89+9Qt+f+cDxFJHNtQpTZvGIQfux5mnnsFb/vqduZetznJm945wrmKUuWPZMuK4iTciVeVYDAy06esbfdZ2h0ayWCyW7RUrML5EaB2xfPkqTjvtNOq1Ddz/wDymTp06atk4C7LtOA5aa4IgGLXcK43W0bAwLqPtMyYVhLam7DLeeceilaVCLDgO1b4+HM/LwtWMn55tU+fSOqbZaBKGET2VCl65PGqgI607GVcEY9LsOp1g4sYkKOVuJIjEcUyr2SSMIiaVy3ibSBspIkSRBtI50/Hadm2wP4vFYrFsZWwcxpcMxdXXXsuCx57ic5/99JjCYgfHEeobEr7z42+QtAzlSiG/OuUwoO0n4ArVQjkVaHx/SFXlOODEeIUe+h0PZ5RwPcVilbYHVUKgo61K0CT0lSZRLAypQARBJ5pC0cPt8XGbVYqT25jEBVySdhujNcWeoaDTWscUvAAHRSSG/iAgyQTfhoT0apd6HFMqjZ3vOAhUngqwozntjKUxmiTReF5Au90cFoqm3W5vlGLP82DatGn538PrG47JQgh5XiEL4Tx8X3fmGNf1CXr76Mm0fR3q+aiSCYgapQKGXsc2lqCNIc9BTZZ7WPr66M32N4DSJmJfua7G8wo0Go1xx9ZisVgsli3Bahi3MsYkGKNZtxx2O6DIrJmzufrnV7PPXvts8thf/vInnH3221+Wdm4tXEoIBkMa69ArgQ57KfRmYk69DiOCFk+pVAiCgFUDA0zvS5e0B7NlVjLByXVdoihCKYXnefh+gWnTdiakRlGXIFxHqxzQv34GeheN7w3QGiwxaVKBODZUKh6rV4fM2KWXYEScQ4Ag9pjcX4C+ySBeJ0geKEUpSwU4IxNCBynhMYiLoUCBnp6pOM5aWq0pVCo1YHLWd49KoYKjHFzXJUmS/HyVik/gu/hTelHNmFJvLwNrVoHv0lPtxx0lTWSf7zMYx1SqVbTWRFHEZM9jdRhSrVbRjSo90xLiGPr6qnZJ2mKxWCwvGVbDuJVRykNrwz998SKSpsupJ5zEbjvvOu4xnYwkc+eezGWXfZ71Ay28tocpgkGThA2INfUo2uhYrTVqgyHpMdnf4LqKlm6htKERxiPOBWJAxy7EG1BugPZjCCsop4WRhLhtRhwjCIKJYkQEbcBRYARcJ9WUOcUijcY6XO0TOyEFSiRJgvESnMRLtW46TjOquD4JMX09kxCJaScJ07J1bBHByQQf13UxRtMKW+hGzLPNhRgxGDGIMYjWLGExrE7bGesCngqJI8F0tKwPdV0boxEdE2qd62B91yVKElzHyXNljyTWGj1KkHFXKbRIKmi6bq4uNHGM4zuYeONjxsPJPF28LLexBvxyOTWC69IeKkDRQlGiWirRCkN22m1HHvzTAzajiMVisVheEqzA+BLwyCOPcvUvfkF/Xz9ve/vbKI2i4eqmY3s2efJkLrroU5t9viQJc7u8OBZ83yVJBMdJMmG0c55UrjEG2vWIQsklVgqUwcchiQ3GCMJwwcmISZepWyEiQqJTQVEb8Nz0M4k1bRp4SYHIbVKkShzFaD/CjQO0ToiTVAvp+wViCUEHGBPSDENUmpA5TeWXpd5LwhBjYtpxRDEK0CVITJK2J9HoLg0eQKTL+KpJ1DZoNhbWlE4wcUizSzAMXJd2HOM7DmFWXxwbHCfJbRnbUYswCkdUBi4O7dhAGKYmAiK0XaHUjJByQHOwgdajC43tWi2/NiNtPluthISIMA4p+1USEkxsMIlJM/wkEWI0UijgaMEBytXxc1JbLBaLxbIlWIFxKxOGbX5w1XdZvXI5n/j4RzjkkEM3eYzjOHl+4hdDanuX0vHIDQIFdNvQpXQEkyDwQTkEHc2WCIWCoNQ47eh/0U3cbkiFd1BqaCw6KfqiCLr9kUYz5jAIjpALv2NZfIjWrAMmjbIvFdoFEYOjXAQBGfKK7rRHlEJl1buuS6FYGKU2i8VisVi2HGvD+CIxxtBqtahknqytVotischjDz3CO855G8s2rGDB4wuYMWNGtmKp81A4FovFYrFYLNsTVsP4IjHGDPNK7Wz/6IZreGzJQr502WXMmDEDSFcrkyS2AqPFYrFYLJbtEqth3Eq0Wi2WPPUUh82dy+x99uEXv/gFO+64I1qny8BbsOJssVgsFovF8opixZgtoNFoQGb35nku//71/6Bda/GmM99KX9+0LH4fKLV53rIWi8VisVgs2xJWYHyRaG0olVLvZxHNPXfdyU+v/Al777s3b3rryZTLHkkSYkyaPWSMiC0Wi8VisVgs2zxWYNwK1AYbfOfyK2m121zwrncxa+Z+AHheKfu0iWQtFovFYrFsv1gbxi2gXq9TrVa54w93cM5bzmGwFbFm2TIbPNlisVgsFsufFdZLeguoVqu0222+8/X/ZWDdANf87EorLFosFovFYvmzwy5JbyG3wO6U1AAAIABJREFU/fa3XPPrazjhjDM58rg3vNLNsVgsFovFYtnqWIFxC7ng4x8HB97/zrfR2zN+CkCLxWKxWCyW7RErML5IwjDkC//5H6x66imOPfp4jjvmBJRSGGPdoS0Wi8Visfx5YQXGF8kLLyzlqh/+gGKxyPv/9v30T+6DLMSOxWKxWCwWy58TVmCcIM1mE7Jg3UmS8LOfXcdj8xdwxhkn8/rXn5an/XPd4BVtZ71eh0wDqkcEf6zVaqNubw7GGNrtNmQBy1utVr6vM0adNow8V6dsHMdEUQRdwc87n2OhtSYMw2HlOufrbkOHRqMxrK2j9b3dbmOMGfPctVqNJEmIomhYn0aWH6++Ts7x7r7HcbxRPSPb2l2u04bx+tRdrkMURSRJstF5O+PWPa6Mcp3+Uhnrd9K5XmONa4d6vZ5fp+6xHlmfxWKxbE/YsDqbiQgsX/48p556EkueeY6ly1dQqfRmWV0USqlXuonDqNVq9PT00Gg0KJVKuYBQqVS2qK2NRoNisYgxBsdxsmw3qdN957swDHFdF6UUIoLjOLkQ2zmmsw/IlvSHsuI4jpP/7WS5FZVSw+qjS3ANSiUG1q6lHYVgBG0M9UaD3p5eioWAak8PQRCglEJrjdaaQqEAmYDtui6u69Jut4flCe/0qV6r0Wq3ieOYwcFBfN+nt7eHoFCkWqng+34+3nSFXRqPMAwRY2i2WtRqNZqNBj29vURhSLW3F5Nopu8wPR+LTp8728YYtNY0Go38XJ1x7L6+ne3u47q/V0r9/+xdZ5hV1dV+T71teoGhg0hHigoKWFCKggJ2xELUGFssie0zmkRN1CQajRo1iqCCitg1ivQ2FJE2dKQJDDPMMDMwM3duOXWv78cpc+501Ni47/PcZ+7cs/c+++yzy7vXWnst953UvdfxCG+fNAwDpmlCkqSENgmHw0hLS3O/B4NBGIYBn8+X0K9hbyaICIFA4Cc3RySRRBJJtARJtzothKZpkGUZmqZh+vS3sXvHPtz34H0IBn0QBMA0DRiGBEn6ceupqip8Ph8MwwDP80hNTYVhGJg9ezb27t2LWCwGWZZx5513Ij09/ZjLJyJ38Zw+bRr2HTwIn88HTdPw+zvvRGZODjRNg9/vd8nYquXLsWDxYsiy7EpcZFmGYRiQZTmBvHmlWz6fz5V++f1+nHjCCTjv/PORlp7u5rXqxFBdWYW5n32GtYsXY8vX21F64CCO1NSAF0VkpmQgMzuEYUOHY8iwIbhg7FiEQiGX4Dr3cuAli5qqYuuWTViybDlW5udj997dOHy4HKZNqFq1ykK7zifi7NMHY9ToMTj55JPdvE2RRVVVwRjDkmXLsHLpUny5Zg0K9xWiJlINgzFkpKQiLTcb/Xr0xYjzR+LcESOQnZkJv9/vtpckSliyaAmWLl+KQCAATdPA8zxEUUQ8HockSWCMgTEGSZLAcRxUVYXf73ellDzPQxAEdO/VHRMvm+i2q6qq9Ujz8QRVVSGKYsJHURT4/X53bDlkEYD7nTHmEkVVVSFJEgRBOK7bMokkkviFgJJoEQzDICKibRu3UFpaBvXt34O27dhMpqm7aVS15kesoQVdt+pjmiYxxoiIaM+uXXTaoEEEwP28/cYb36p8xhgZhkH7d++m1FAooczX3phKRESqGiGdiKJ2ntdempqQ7tt+xo8dSxVlZfXq9OWXK+nCC8ZSRlpa02VwHGXn5NDZo0bR/t27SVVVIiKKRq2axmIxIiLSNI10XSdVraEXn3+VuvXoTjzP1yuPF0XiBIEAkCiJ1LlzZ3rmmWfc8ppCUVERTb7ySspt1YrAcU3WOy0tjc4fNYpWLFrktj/ZffLxxx7/Xtr2oisu+lb94ZcGpw84bVxTU39Me8cWEVE8Hk/4nzzjpG7ZddMlkUQSSfxckJQwNgNdj0EUAxAEAaZp4onHHkU8HsVVE3+FXj36JqiXGEtx1aw/BogIgiAk1IGIsKZgHXZ+szsh7YtTpuPKa689ZrWjo3Kd+en7qKljyzdn9jxMvuY6SFIImkoIyAA4Doq/Bn6/FR6xrgqaiEHTdFdFKkkSRFGs9wwcx0Gy1cnMNr6NRCLYv38/Lr30chw6dAgAIAgCUjMzMaRrV6R17wbBNLFnzz58U7wNVYfjOFJRgWULFuCKyZPxwcyZaN+pkyvZ9Pv9lmpdkhCursZf//pXPP300+7z+QNBdOjUESd26YF27VIRrY5i3ebtKD54EIqiYP/+/bj77ruh6zpuu+02pKTU9odoNIpQKAQiwq5t2zBs9GgcKSkBbClfMJSCE7r3Qp++OTBYb1SWbsO2rZtw5Gg5wuEw5i5YgE1bt2LJkiXo3r2788IBQ4c/EIDdUiBw4Ow2IyJomua2t6Mqdd6Bt5860lpvex+PcCSBZaVleO/jj3H+uH7owA9B4Te7sXfnbgwZPgxZ2VkJeZy+Ddv+c8OX67F84xpcd9VVyMvLc9szKWVMIokkfs5IEsZmwHHWYsAYw7LFy7Bo+Qqc0KkzLplwBRTFQCAgwTFV8vsBXVcgST/OwmCaGgRBssmCCU0zwXEcVuavRNWRKsCj5l21agm2bt+Ofn37HtM9UlNTcfTIUSybvwywCRrswxMbCzZi08ZtGHhyP0gSA2MmBEHG+NGXo+17XUFECIkiooYBnuPg43mUV5bjiSeexo4dWxEMBHDrTTfh3JEjETUMhEQRBCBumkgRRaTkZiGUloowgAwAe/fuxsSLL3XJYodOHTD56mtx3eTJ6HLiiW7dAKCoqAjPPvci3n5rJkpLC7H2q6/wxFNP4umn/olgMAhZFkHEoBsKIqaAma+97pJFSZIwZNgw/PrqWzHuonORmZPjlqsoCgrWFOCpf/0Dc+ctQDwew9//8Q906toVl198MRRFQTAYRCgUAgAcLCzE/Q8+iKOlpQCAnNxcXDZ+PG688Vb0Hdg3QTV+uDCM9z6ZhpdeeRFfb9+HkpISXHXVVfj444/RsWNH8IKAiddchV6DhiIEAwZUaAgiABNRXcPRkkN49PHHUVRUjPS0NPz5wQfRoUcPpMsSYqaOAC+BAOiMoV1uW/e+jtr6eMY777+Dl1+dhomXLwbHaXh56st47rnnsODzBRh5wUjAPvAi1bFBCQQC6NCpDZ6/5hnwuorf/f4e6LqOUCgEwzBcm94kkkgiiZ8dfmwR508RiqK433XdUj9VVJTT9ddPJp7n6bknn0lIzxiRaf4IFW0EsZjmfi8pKaFu3boRAJKCQZp0xSRXDXnv/fcn5NM0jQzDIMYYKYpCum49W1yPk9MijDFatmQxdezQgQDQgP4DqG+//gSAAsEATXl1CpnH0BiHDh2iM888kwBQSloqTZv5ZrN5NI2ooqyCxo+70H2W7r2605z5C5vMF4lEaNrrr1PI5yMAlJWVSUvmLybGiLzawy9XrKQuHTtZbSZJNHnyZDrwzTdNlr33wH669tqrSRAEAsfReeePpsOHS2vvbf/921/+Qn5ZJgCUkZlJz734YqMqbNPUiTFGc+fMpRO793Tr88gjj7jq9KawfcfX1LNXbwJAuVlZtGzx4mbzHC9wVM91oesKlZWVUcfOHenPf/ob6bpOsViM7rrrLgJAcxd/5qZVVYV0XWmwnCcefYx6du9J27dtd9+vpmlJlXQSSSTxs8XxewyyDmpqalwXKF71nCjy4DgOSzesxjvvf4jBZ5yBW393e0JejgN+SgdK/X4RhgEwBuQvyMeePXsAAHfedhvGXX4BpJBV2WWLFuFwUZHr6kMURVdFLcsyiGIACD7BB6dFTNPEkmX5OFhUBEEQcdnlk3D+8LMh8DzisTi+WvEVlLjS4roapoGoaqu2iQBDay4LRBFYungh8pflAwBy0/Lw9KPPYvSIc5vMFwqFcNWVl+Ksc88HABw9Womp70wDUPv+NFXF69OmYn/hAQDAwFN74fFHH0WHzp2bLLtLh46467bfITMjEyDCkvwV2LaxCKoatuqsRaEowJOvPANFs0TSt955C2676SYEgw1HCOJ5ERzHYdToUbjpuskI+v3QdR35+UtQUVHWfDtBAQ/b5YssAJLQXJbjBl4JqjX2CfG4DsZkPPDA7yCLMi68cAQMI9HsIktuDVVVYRgG4nFy3WhVV1dDA+CkvvaGyYibcfz7lZddVbRz8CiJJJJI4ueInxDN+XGRmpoKnucT3F44J3YVRcGUp56HyHH4091311ND/dRAZEIUAcYMPP/KsyAi+Hw+XHXpJAzoOQi9Ow8AAOwrLsaS9evdk9SOfZtl48aB54PgOA66zuAsc2UVh7BoxVrLRUgoiLGjz8ElEy+Hz2+dCP5izqcoPXwYjJnQNA0eLzkNQuAF+KXaxVtowYIaj0Uxd/48VIUtMnbamadi2Lmng+drI+3U9TXowO9Pxd8efRSt2rRHdlYONq4pgGkacG5bHQ5j9qL5cByiXDXpRrTv3Bl6nXppAHTdhGFYD8gY4ZTTT8Vl4y5ERkYWUgIyduxeDZ/POj3rk0N49cUXUVlcBUBH6zat8fvf/j7hpHZjME0Vo8ePR48+3ZCZmYXiw+U4XH6k2Xw6/GCO1YnOAKOZl3EcwbHjZIzZY59DICBh49qVeO21mejffwD69O0Dv9/yJCDIMjieR+nRShQV7sf7H7+P996cipkzZmDz5s0IBELg9DhCdvnZ2Tm4cNQ4TJ06FYX79/yoz5pEEkkk8X0gacPYBBzJwKwPZmHpsmUYP2E8hpx9FogYGDN+dCfdjYHIIgabtq3HypXrAQCnDuuHk08/Gaqi4NTB/bF5ewGOlpVh7dJ8jBsxHKLkTyAvXompIJgALOnUgV17UbBqCQDgpFNOQd8BA6DDxIBTu2NV/jqUHqnAvEWL8Zvrfw1Zbl6iRURgdn05j1/AplATqcGqL1e5/58//gJkZmcCAHSy6uqV2pmmmWDP2H9Qf7z87xcgiAJEGQm+H5cvWYLiwmIAQCArC5MnTQIAGIArZTUMBbroR8gjsWOMIAjA7++/HyMvnABBMnFi524JfeVfr7zoEu/bb70dubm5zT4rAEhSAN1POAFPP/MPVFZokP1+dGjfsdl8HAwA9rPxdgMn4cIhjI5U3TAMzHhvFgBgxOjzEQwG4fjkJqaBiGHOksV45M+zsW33PmsjYhjo2rUrrr/+Ftxzz61u2X6/H6efMRgzZk7HC/95Fo8/9jxkWUA8Hk8efkkiiSR+lkhKGD3wRtEI29Kr4v378chfn0B2ThauvupKZKRn4Ag48PxPk2uram20man/fsWWhQGXT7CIj8/vx7kjR7o++pblL8KRo5UJhy3qguNk2IEtMHXmm4jY0rs7fnUTJElCUPLjjl//DgBAJvDWlJchtFD7yYhBN6xVmQAYzYkkAZSXV2DXrlqpzblDhkHX4yAiyIIMzlASYnpb6nWCrtf6eLz40gkYP+FCjB1zoe130IBhMHyxdJ6b5rzhQ9wDLg79NAyrPRxJkq5bbSHZ5LF7r1649NKLcNH4S9G3Xz/A7iuFe/di/96drh+byy+/vGUNZCMQCOCcs8bgkksm4MKx5yHHJshNwdR4kGGzRJMAlvTR74XjsxIAVLUGhw8dxuYNWwAAw4cMBgCYpjUPMNN6cdNfeQFt8tpj7mefYd3q1fjbww+j4vBhPPzwH/DBBx+5ZXEch67deiArOwezpi+FYVj+RJsaZ0kkkUQSP2UkCaONSCQCnudd26a0tDQYhon3PnoPxd/sw8DBp+Occ0aC4zhkg/tJNp2uxyHLFuEq3LcXC5da0sWOXTpi0ODBbrozhw51T+2u37AJ+/ftQU2N6l63yFUMRI4TYgOAirLDZZjz37kAgIzcHFxw8Vg3z9iLxiE1y3I3smrdOmxc81WL6izwAgKyR+JCzYvB9mw6CsNWM3M8j05du0KSLFMC09DBgwPHWQTOMFQwZqnbRdEPTYslROBw4POJEEUemwo2u78NOXOU+11VHTtPQBB4V4orSYn2h6wO4bVU/DwOVVSAGAMPICU1DXlt8tw0mpYYSrEpWCfgWZ3/GyaCPkmAINj9lEtKGJuCz5eKwtJilB0pRyhLRG6bNgAAvz8NEs8jlU8FBxFdenTD81OmYOg556B///646//+D1fdfDM0XcOU1/8DVTHg81mRfrq2bouc1DRURg9g705rg3M8R89JIokkft5Izl42vFE5TNOSeO38eg9mvv0BZFnGA/c8lBAZpQWCsO8Fpmm6cWtNs+kDIRZp4kEErN64BhWV+wFwOPWk03Fi5xPddDmdO2PMuHHu/zNmzEJqqs+9B8dxEISge1/r8IUPb02fhRLbd+CN10yqF+niignj3f+nvv02GDNs0gl4w1p7vzNi0JznIg7Qm7cPLdO2ut8zc3PrqJ85cFytFEcUfa402DQJPO+3QwM23JaVeyvd7306nOjW1SEBDhyJkfsczARjibGc4ZJvHWVl1iEVBqBD+84gMu1yDIhiw4de6sIqm8CY4SnfdMty1N9uHU29VtLK8z+tk1k/QVQcLkV1ZSVapXdAjsd1kmoaqGJHQZyBm2+4ASd06OCaJ0iShEkTJiDg96O0sAL79u118wVy0iGFAjBMA3sKd8E09UbJfRI/PdSNy36sICJ3DoXthskBYyzhmvceTiQnJ8pVQ+XVvdYY6qbzPkdDdThWOHV1YBhGvU2zMwc2hLpt9G1hGEa9seU8u/feuv79jMG6z+Rt12/znn4uSK4gDYDjrGb54rP/YvPWTbjvrl/j9EEne66jxSrX7wpVVbFh0yYsnr8ERBw0zWwyfTQaRTwWw7J5K1FdWQOfX8KZI05GtsdeLgDgN9de6/4/6/1ZiEQiUFUDHCe4BE8UZdemMBoN47UZrwIAsjMyMGLEhfXuPfq8Me73xQsWorT4MOJxa+BwHFyVsNdMkUC1cY15wB9snImbpgbGTHDRWlLZpVWrhDQ+nwhBSLyHA1HkIYpOTGrBbS8vysxawpibm95gObDJuWlaG4dIJOJKEuO2hFrTtIS42YrnEI4vpLiSP57nm7XbNE3TDfvHcbxrcqBpFpmvNY/g3L4LACQyQLAnR5NZnyRceA9GAUA8EoOmqMiqE9KR53iInAQQMPTkQe7vzhrRq2dPK3SgriEcq5UW+yQfREEECLZP1OR0+3OCIAhuCM9vKxn2jm1vGU7sdnjmIMfO2jl4KDSwyDjlNXTNC2f+cdI5Bzi9+Zw61B0HLUXtvJf4jE6gAi8aaj8nzbF6DiAi13TMgVOG91mcZ/Xe+/uU8HvL8vYVHMN7+rkhOYN5QMRQrceh8dbLf/WtV5GTnYMbb7sfko+HYdvGNaUG/L5RU12Dvz36GEaePwKiKDV7kCQUCqH0cAmWLl8AIkJGeiZGnnmBS1CcRW74yJEY0KsXACBaE8ULL7wAn08Ex/HgOECSAMOI2dFCCOvXf4VDh4oAAN169kTPPt0T2qAMwKDBg3Da4NMAACUlxVjx5TIEg7LrdkiSAqiurnYFXUSAyIuuSpqIoDSx2xQEGTwvIB6qcn87GklU5zJmwDBUNPV6iACeF9z28j5HpocshCPxJoVygmA9V0pKit1uPDLssmRZdp00C4IA3l8r9VSjfnCcRfJaMoEJgmCXJ4II7kEMxqrdNIpSq/52IMEPvoFgTkebvePxgWAwmDCWFV2Dbujw1Tm5zkMCzywTDp9ce83xviXZX5hhwPRIFCRJQiAtDUSEWDwGnhcQDv+yJA6/RDj9QRAE+Hy+BFvXY4Ez9usSQnhIIRG5c5AzF/A8n3DPeDwO0zQTSGRz9XHmHyedc9CqLoHheb5Rt17NISUlxa2rtzyO41yTJyfKEWPMlcI57RsKhRolxk2B4zjXdKy6utp9LieaklO+8+xO+U4kNIfMKYqSIB1tCRyXWmiAMDp95Vje088Nv6yn+c7gkcIHwBPwh/vvx75d+/Donx5FXp5lbyaKVif9IU9JHzi4H1u/3oLevXvYqnI+YXfaEFbkL8fXu/cBANLT01GwbSO27d4OzTAg2x1YMwy069wZG3fsAAB88cknuOO3v4UgSXaIPEAQguA4gDEFn/33C4TDlh1fMBjE0vx8+CSAQYJo16WyKgzTsAZgdXUYy/NX4cILJsDnl8Bx1kD1qvUNAyDDBIsfm7qnU2p397vjQ9KBaXKQJB903SK9DcEwAFFkYIzA8wIURXEn1JSU2vodqtnXZD2cSZznLTMAxgwwpiXYNVrRd2RkeE7GxmIREBFM0yKd3vs3BCeiiGEAPK9BkmToug6/P91VOfv99SddQ9dqVdIiD9ibhqx6KY8/aJoGWZZhGAyCYG2SUoMB+P0+xDQNKgCH4utmBEyIAhywr7gMfU+1fjdNDTwv4kh5BYgRQoEAsjNqDyMZhgGjpgYcOKTBMmlITz++I+j8HKBp2vdyOMka46ZLnrxw1JkOgTEMAzzPQxAEMMZccsMYc8nf9w1n3mkoYtGxQtM0N6Srt65O1Chv+d81kpTTrqIoIj09PaG9nGsNPY/3vVrz57HXwcnvhF1trp8488wvBUnCaMOKJeyDaerYUrAVr06fjp7de2LCxRPq7RIMg4ck/TCdoOhgEQ4eOIi7fnuP+1tzIvx3pk8Hsyek3bt348Ybb7T8KZomfPZgVk0Toqezb9u9GwUFBTjjrLPc30xThWHIOFxWitVrV1uDFOnIz89H/ooVkAQBumm6vhM5ooRTzsvzV+JA4UF07961TsxtS8onSQADQWPHtstr36U9AED0+1FRUYGqqipkZGQktE1T8x9RFG/N+gSHiw+A5wVccfEVaN+lCwCgV7+e2L7dOim7pWAnMLHxcpx7aZp1P9PkUFJ4CB/+90Moion2XU7A1VdcCgBo16nWDc7h4sKEnW1zblasBUXF/PkLsGPHRvC8hOHDz8fJJ/dPaNf6JNk5kw3LB2NSJe2itp/YoS0BBHJzkZaejn1lZTANBbA3iILgc5ty3qJFGDfBOexllbF4ST5UTUVO27Zo36kTYJ+ej9UoiCkKeEFAbqe8BuuRxE8P36f2qLG52jqEZ60rjDEwxhJIznd18K7ruktAHTjx7B18n+6dGqtvQ6TM+xtjDLquf2/eA+pKPB3UffbvCo7jEupc112W0/6/NEf9SZW0jUAgAE3jIcs+/OfVKThaXY0xF41G127t6k0gjIV/sHpt3bgNqqbhrLHDIAhSs7Fot61fj8Xr17v/ExE0VYWqKGC6jriiIG5/1zzq3MqqKrz3ySeu8bCuRyFJPsgyh73bv8HX63YCAEy+GpAMGJqGeDwOQ9OgqipUVYWiaQkGzJu2bMTGjQUQBMlV2cI+f+HMY4Iowh9qfuLSATiyxLZt2qBzu3YwbDuWBUuXuukcG8WmbI1lOYQ/PvAg7rvvIdxzzwOIVNeqdiecW2ujNvu/cxCJNC795HkehhGHLFs2k7IsYPWqVbjnngfw0EMP4eM33wXPS9B1oFePXvDbpFYxDMyfP79FdrCKUg1RFKHrDA8//gTuu+9PuOeeB7Bv52HAtrd12pUoUT0vSX4Iwk/byfyPhboSCJ4Yurdti7zcNqguL0fh9v0J152D6W+/9TrmL7H8kEYiMVQcPoJ33n4LmqbhysvGIxgK2uUHUV52FJFIDILAo1Pb1j/UoyXxHdEQyTFNs57dXHOoq5KuC6c8nudd8mGZ7NSSHudgileTEok071VBkiSXLGqalhDPvO5BDGcsOOnQgG13Y9B1HZqmQZIkl6A6dfWqb73w1t/77McC7yET576OKzwHjDHXptFLFqurq7+TRNVb/1jMMtvyksVwOOy2/089yMex4riUMNZ15Gy5KeEgSYS5C+Zj/sKFyMjIws2Tb4Pfn4GjAFJ1Sx3IcYIbveN/VS/Tll3wAFavXYWM7Cz069k/Ia11ujbx9UUATH//fWj2gL3uhqtx2YWXNnnPTz//DK/PmAHDMLFr6zYcKa9A6zZ5kOXaATbr/bdRqVqHQa7/9fW4ZMy4JkoE/j1lCubNtdzvfPbZR5g0aRJ03QRjDD5f4gAymIG4Zhlk84xDSGlYTSASIQUEcDz8gQBO7NML+4stB9srl67ARReMhShaviVN04TPZ0mAnXcLcJbamAfy585FYWEhAKB1XnucMGCAe58+PS6DJD0EXdexY8cO7Nm7HQP6W9ct9zxiwkEYbzvpuo6p777j/n/GWae59qC6Hsf40WPx3nszAQBTZ0zFJZdcAsaY9c4FAbJ92tqxrwTgRhpZu3odSg9Yde7Qri1O7JVr39OSVEqSAFmutb+sAqAhDtMJDSjxllo6CReWPbIJQZDBcTxat22HvHaWO50DB/ehe9+e7rvm7AU8LyMD118zGWecMxw92mfi3c/WYP/XBbhg3GjceutdME3TlSwcLD2IynAlup96Mjqe2BVELHnw5WeEwsJC5C9ejHgkYplziDygHvuJXn9qKsZNmOB6lXDsE535u6S4BKu/XI35C+fjy9XrcbB4HyKKgsxQCJ3btcPQYWfj9GGnY8DAfujUuYvr0cM5YMEYgyiKbt9zfnPIWzhcjVX5+Zi3fAVW56/CwUOFCFdVIZCaik4ZGTj5rLMwYtgwDDvnHHTu1AmQJIRCoYS+3BgMw4Asy5j+6qvQDB0QeQT9IZw/cSKyPepbR/2dn78UOzdvbbS8loBL9aNrhxMwZMgQ+AMBd91MS0uDaZqI1ERQfKgEi+fNwaJVq7Fx3TocqiiDwPNok5GB7v17YXDfk3HWyJE4qXdftMprBcaY7T3DTFhXnbK96y3PcdiyZROWLFuOxYvnY92aDTh89CjINJGdmYl2OTkYPWYMTj//fJxxUn9k5WQ1+J6+jfTRCTbgrZNTnrfu3msO1/ku9/VW4LiDpmmkqiqZpklERKapE2MmRSIRuummm0gQBHr2qX/9YPVhzCTDsOrEGJFiEOlEFIvFKDMtjc4bOYIqjx5NyKMoivs9FouRaRLt31tLZt4PAAAgAElEQVRI3bt3JwCUk9qaVq5c1ey9ly/LpzZ5eQSAsnOzafmK5QnXiw8XU17btgSAUlJSaMfWHc2W+flnnzm6UAoGg3TkyBFSVYM0TSMiIsMwSNd1IiI6WHSQBg8ZbJWfmkLTZkxrtI1M08qjaRo98ufHiOclAkB9unenTWu/IsaYXb5KjJnEGJGm6e53XdepJhKmc845x63fH+/+I8U894lEInTa0KHu9asnX02RSMzOr5JpEtlVJ9PUyTQNIrJ+y89fSllZVltmZeXQmjVrE57hyy+Xk4CAW/a8ebNr78tMMgyVDEOt10bVVVV0//0PkOzzEQAac8EYOlx2uNn3sH3LVurZvQcBoNzcHFq2bGmzeY53vD71dQJA9957N6mqTowRqapK0994g6687DJauno13XvXXdSrWzfKy8ujwUNOp0cf/COVH9lPhmFSPK4SY4wMw6Bnn3uWZJ9Mb7/5BpmmQaZpUPWP/YBJtAixWIzWfvUV5WRlkce241t9BFmmyspKMgyDDMOaLxRFoagWpbdnzqKRw0eS3+9vtpx+/fvQP5/5J1VXVhLZc4RhGO5aoOs6McbINE3SdZ0URaEZM2fQOcPPJl/A12TZHMfRSX360H9eftltA03TKBaLNdJCtSjYtotCoZSE8tYuXeo+pxcTJ175ndsTAI0bdwFVVh5160lEFI/H6WjlUfrjn/5I3bv38rR/w2VkZGbSmPPG0OLFi0nXdTJNkxRFSZh7VVV1/5qmSbv37qW7f/c7OvHELs3WMTU1lS4efzGtXL2ywff0bcAYI03TSFEUtzxN04gxRqqqkqZp7nN46+9N530e0zQT0jSH444wVldbU7Zpmu7ErigKqSrRtu3bKSUjgwYPHkhKPP6D1Ykx5r5Iq0NYg3TzmjUEgH57828p3sTAtZ6FaNq0VyglJUQAaNSIc+lwaWmz9w6HwzRg8GC3k//pgQeIMUbRaJSIiF54dYp7bfxl412S3RRURaFeJ5zg5nvo0YfINGsHiPd5i4uL6YwzzmiWMDqoqakhxhht2vAVdbcHLc9xdPvNN1Ox3fEZM0lVayzyrSju4GeM0UsvvkKSZBHN9nl59PX2TWSaBul63G3LF/7zPPGiaJHozEx69+2Z7nPrumL3mWp7kFrPUVFWQddMuoY4jiMAdMWlE6nyaGW99zRq1Lm1C0Dfk2j3jt2kqlbddN0kp3mtsqPEGKOlGzbQCR07EgDy+fz0zDPPt+g97Nq+k3r37G0RxuwsWrZkMRERRSItnyCON8SiUWrfvj0NGzKMdu3Y5fbVeDxO4epqMhijeCxGpSUlVFRUROXl5VSuKmTa6RhjFA6H6cjRIzR85HDq02cAqZ5F0/hRny6JlsI0TVq/di21yc39zuRGCoVo//79CeXHYjF69rlnKSs7OyFtID2dhg0+hcaOH0pDh51NuXXuHwgE6I477qhXX4cgkj1HKopOTz/9JIXs9cD55OZm0vlnn0e33HIzXXzFJdS5aw/ieN69HkpJoaeeesqd/1syzzz2+F9IEISE+1x7wzUN5r/++qubbCtekty5t0nCeP7lVFlurYmGoZGuK1RmmjTq7LNJluWE8rp17ULnDTmPxl0ygXr06O3O0c6nXbu29OGH71IkEiGqsz45qKmpoaqqKrrs8stJ9NRPRCq1a9eeLr/8IvrV1b+iCePHkJySSJ4HDuxH69evIsaYe49vi3A4XK9dN6/fTA8+8iDt2batwbp7sTp/NS2es5DKS0qIMUZvvfYaffHFF+4a2RyOO8LowCGMDgzDoCuvuop8PpleeeHfREQ/qDRA14nqjs0777iDZL+fXn711XrpnZ0qEZFpGhQN19CVV04icBwJokQP/fnhFu8c/v7EX9zO3bPnSW6+6qoq6tHDklAJgkAfv/tRbX2bKfO+hx7ylNmT4rFaAu6te+HBQjrltFMswhhKo2mvvN1omd42UlWV7r33XuI8E9X9v/sdHdhfSPF43N4MmLb01qCqo1X02uvTqGNni3hJkkQP/N9DFI8rdhvW9of933xD5w4/2y23S6tuNPPTWVRWUUW66kgIyN2dFRUdpF/fcAPxEojjQe3y2tLc+V943k9t2Z/Nnk3pmZbUguN5uuiiS2nDhq+ourIsIV00qlKkJkIbly+nnj1Pcuty1rlnuzvr5rBtx2bq0cuSOOe2zqVl+UkJY0vwyhuvUes2efTue+/aEptEmmcQUd1l1NuniYhWLF9OqWmt6J033nJ/07TYt5YsJPHDwZnbjlYcpc9nz6WPZs+mebMX0OzZ8+jT996nj2bPpo8++YTOtjUVvCjSr37zG5rz37n00XvvWddnz6b5s+fR57M/oYWzF9a7x9tvv0mpqanW3MrzNGDgSfTma9PrpYvW1NDMmW/SaacNdze6AOiFZ19qlMzpuk5vvTWdsrIyLFIjCNS312k0a9Z0lwh6sWjuXBoxYgTJvlqi9eG7H5CmNS00CYfDdLi0lEaNHGnNZxznEsdO3bpR4cGDRDYBcySV61ato49m/5c++uhj+ujz2TR/9gL6fPZc+u/sOTTzjdepdV5rtw7PPfdvqy3ffdf6+9FHNPe/c+jj2e/S5g0byTA0ty6Hy0vp8rGXe6R7KXTZpZfSl8uXuxJIB8XFxfS3p56iju3aEW+T5X4DB9KWLVvcNHX5QaQmQhMnTnTLD8pBmnDZRbR5zRpidd6DElfouWeeo06dOrrpR44ZQ+Vl5U2257HANA3SiKi09CCNGTOGxp47wr1Wdy5ySCYR0YgzzqC8Nq1p/sJ5RET06QefUu++vWnNmjUtuu9xSxgd8awjvs/PzyfR56fRI8fQ/v3fUAsJ9/cCr7rVgaqq1CEvj7p370pLly6pt9B4Rf26Hqe1Gwqoy4kWOWiV25oWzFtEREQt2c/s3bWXBF+tymL2PKszLV68kAIBS4Xab8AAKj5U6OYJ26pTzTPB6kTkUNTl69dTmr3T8vv99MXnnyc8m4NDB4vpzEHD3EE+4+03Wtxu4XCYbrjhJuKl2t3cgP6n0O/vvZOmvDqVZs6cSbPem0VPP/00XXXFVZSVnu6mu2ziZbS7sNBd+B2VhIOlSxdThy4d3PSCz0cXXnwl/fPxx+ndWW/TW7M+o+nT/0MP/uEPNGTIIOLtyTwzN42ee+o5iukeqZJHFRWpidBjjzxK/pTaXWrPPj3ptzffQs+/8AK9+c4H9MEHs+iFl16mG3/9G8rJyfHsVAfSrh0FCRNlU9ixZRv16tHTliwkVdItha7H6dqrrqUJ4y6heCxOhqGSQkSqrljSRkOrt2GKezQSiqLQmDFjaMKEcVRaWmJvXjS77B/4YZI4ZjSvhLVw7XXXuWPzySefrEdMGsPGdeuoS5daMnHppZfSlm1b6qXz9pXykhK69Y5bazUfbbNpy/btDZa/adMm6tevn0VmeZ4mjLuItjaS1kFVVRVNuvZaV9p4+rBh9aSiDWHR0qXUul07AkC9evaiIacNsQhVKERvzJjRkuZwEQ6H6cSutarejWs2tihfTXWUHv/74+TzW2tYXts8evGl5+upw73QdZ2WL19Jnbp2de939913EdnztSN0cNI+/9S/3HQpKSn09DMvU02sPEHN6/1ORLRgwQJq16qVm++Jv/zFvdZU3VoCw1ApTEQz33yb2rVrQ1+t/KrJsp0+fdbQodQ6rxXNnT+HiIgqj1bSeaPG0DVXTKKaFtz3uCWMlt2f6aqbRo0dS/6ATP9+8Ulbt0+uavh/DUuMnLhLKVhTQADo3HPPobKyw82Ks19+7jmSBGuwDzjlFIpUHCEiIo01v0gZhkHnjR/jduzR551HhqHR7b+/kzjeEt/ffsstCWpxR+pieqQtJhGpepwYM6m4pIRGDh/u7jxvvOVWisUUUpRwwr0PFRfTmUNrVdKvv/lao/V07Eu8CFeH6S8P/JMy09JqVUBCCoVC6ZSZmU7pGRnk89XaB4l+0ORRE6moeF/C88frmCAYhkG7du+isWPHJqqXRJHS09MoNT2bUlODJHjUOW1btaJpL71EcaW2rJoaaxh6bYFqwmGaOf2teuomfyBAaemZlJGRTv5AkGCrTjhBoLNHjaKCjS2bQB3sTFBJZ9OyJUuOKf/xjNVrl9PAoQNpxeIVRLZU0TAN23Qgbts9s4Q5Qtd1UlWV8hfmU6sO7enzzz9xVUTO+G6Bhi+JnwDqzlOqWn/u/fWNNx4TYYxoMYoT0dgxtXPtsGGDqayiIiGdYVifun3lUEkxjRxlSTUlWaC/PvYYUR0JEhHRPffc484d2Xl5VLRnb70Njqom0gPGGG3csJn69u5LACg9PZ3efffdemXXxSN/fMRV8f7tb3+hPz78sEs6b5h0DUUrW66nC4fDdGLHWiK9YfWGJtM7Y2/jxgIa0N8iyH6fjx7/y2OkKI4tuNboBts0Tfrw3Y/c+2XltaZwOOwKkhxs+/pr6tWrl6vi/uvDD5PmKYMxRpUNai1Neue11wnw222aRmVlZRSPx1u8ufDC6YNO/yAiOuXk/jR6wkSKxRLXL9M0E9Y05/2PHjuSsnPb0qezF7nppr3yCmVnZNC7H77TbB2OO8JYV1JnmgbNnv0p5ebmUo/Og+jIkSOewxO1L+Z/CdNkLqmrqqoiIqJnX3qWANCtt97aSB7TVS8wRjTu2qspJSWFUlJS6G//fMJNpyjND9hyIprz5ntu/jZ5ebRq0VIaO3oMpYRSqG1eHn347ruN5lfViL0oWnUhW4p4//33u2WOHT2Gig8W18t7sOggDTt7mHWfVm3ok2nvN1vfunYa8XgVfT53NnXs1o0CgQCJkkgczxHP8baaRKRAIEB9e55C0/71eqP2GjU19VX4lUcq6ZE/PkY5Obnk8/lIEARrguQ44nmeJEmiYDBIF4wbR0sKCo7JRm3Dhg007qKLKDU1jSRZssgnx7mqHZ/PRzntUunhP/0flZWUHEPJFrbt3EwDT+lPoVCIunTtQitWrXCvNWfrkkTDsA5SWd9/QDPnJH4iKLfHTiRSRRdfcQX5bJX0Y48+SqqnQ3iJlnecrV6+moLBIAEgORikteu3JKSLx6sS7ufNq+s6PfboU5QihkiSJLrh+utI8wgRYrEYVZRXJNjQPWcfYmmI8NaFqqp03fXXkyzLJEkS/fOpp0hVa4lN3fmCMUa9+/R3hQIlJSX0+ZzPKTvXsss85ZRTaPfu3Qn56h7VMzymX3UJ45b19aWudVFCRE8+9pibp3fPXlRqq8KbgndD0LVrVxJFkURRpLWfL0wwN1GUGnrlxRcpaB9K6jfwJNq5e2ez5TuoCYepT7duJElWmy5bsKzFeZvD29PeJlGW6fUZ0xLa2DHHqqiooNX5+bRx40YqKjpA8XiERp95JuW1zaP5i+a76bdt3kw9e/Sgvn37kqLE3IOXDeG4c6sTj8cTQiHF43F8+vlsHK2owGOPPYKsrCyoqgpR5H6QSC4AYJoKBEEGkRUJRdd1rFmxBgBw5tln1kuv6zpEUYQsy24845f/8TDiDz4MQQBy8mqdBLfEBVAOgMETL8KmQQPsONk8MnJzMWXKfxCPafD5RWS3bo24HYe6tt4EjjMhCE4YKNgRYqzQVH/44x9w2803ASaDKMtISUupd++8Nm3w3qz3EKuMguN5tGrbql6a+qCESDt+fzouOG8s9mwbjlXL16JgRwGK9heBqyGoAYbWOXkYOHggTj2lP3Iysj2xlxORklL/fadnpuFPjz6AG399NVYVbMSOLVtRVXUUEVVFbloa2nVqh8H9T8dJJ5/UrD8xJ+qLg759++Ljd97B1zt248uCL1G86xuURCLwiyIyMtLQq29fnDHkLLRr17DT5+aiCHTr0hOff/RfVFdFEfSlIDsv273m9CHDMH5xvsL+l3DcJAHAdwhWkcTPFDmwOkEgkILUUBAqrNBRciAAzuOqLTU11f3uRARhjGH+snmuH8Szh5yOju1y3XSqarputGp/q42KIooiLpt4AVLS/eAUhsx2mYiqOjJsz16BQADzZs9z/etmZeXgxmuvBeq4/2oMsizjtttvx5nnnAEtGkW/3idBVQzIstXhFUWB3+933besXrsWO3dvAgCMGT0aeXl5OP3kQejcviOOlB/B9u3bUbC+AG3bdkIwaJVRd3YXALgrVJ3ADw35cITNDHUAMoBcU8OyFbV+h6+4YhJat2/fYD5vRBtJSoFpWlGenn/+GWzZssdKlJWOOACntZS4ga/WrUNMUcBxHE4bNAR5rdvbkb3QrC9dfyCAf73wIr7+5hAk1KB1m+/mj9WJDhaPx/Hwo39Al44dcVKvkxJc5YTDR/HG1A/xwrRnsHfnbvCiiLRQEDfccCOqI1EQY2Cetu3Wsyd69emDOV98gaWLluK8sWMar8D3Rnd/RvCKajcUFFBuXh6devJJCQbBhqGRaeotthf7rjBNw3bto9KBffvotEGDCAAVF1lSOe95W8dWwrK7c/LXXvdaMDBmkq4fm71EY0cqarREg2nDYLZrmfo72JZI3BsywG4Mpnns0t7m3p2iKM2eArTsS4/txo09e936tEQtUfeZvS4TvPkdcwVdV4gxs8EDW46drFfJ9G1UI0kkcbyDMZOuu/76Y1JJx2IxuuJKy60MB9Dd99xHipao7XBMpKiFUsG6uHHy5FrbyImTjjl/c3A8ixARjTrvPPdeC+dbEivDMOghz4HHq668gsiWjjbXPuFwmDqf2NnNW/BVQaN1cGzEq6srKTsrs1YquWlTQlrFY1fv1Sw5UrjmsGfvbho6zLLLDAT89MLLL5LperGo5RHHar52LGufF4pi5du0fhMBoOFnD6eKcsukwTQNMgyVpkx5kQKBAHXo3IEe+r/76YOP3qU/P/xn6nRCJwoGg9S6dS7N9bh0IyL655NPEsdx9Pvf39Xk/Y9LL7J+vx+6bknDps2YgcrSUtx789MQBIt1axogCBJ4XvzBImXwvACO4xEKydixcw/27ivE0IED0bZdWwBAhietJEluaCnDiNr5a6975Vwcx0MUa3+JRjVUAWD2Dq6h6AWZ9X6xkCIlBqkXBA48L4Lna3ewuh4HEWsyNJ+DukHvVbXxCDre6DB1PfprWsNRCQRBgmGoYKzhnaoTLB6Am47ICrHngOP4BEfaLYH32b3RBpy+5EQHcHa75XXye1+Jty6oExnBKxl0IhmIog+aFoEYq0JVlfWJKdUo0zSEwxFUVVUhYEd7cCISJJFEEi2HolhO/MPx5iOueFFZUYKyYis+fWpKCnp36wqflKjt4DjOlSjKcghOQBNVralfYAPILyhwv586oN8x1a851NTUuNFrvvn6ayyYNw8A0KtXP5w2ZAhgx8a+5rLL3DwffP4FqqutaFUtmWtErVbCWDcwhQOO4xCw17S9W7fjyFErqERaex86denhplPVsLUWaoCiVCWUx3EciDQwT1haTbPepzfKTXU4jIOHigAAPn8A3br3Am+XLcu1KgZJOrYwi3XXvpbC57PyLVw6B/6MDOS2a4vsHEtzxPMCDhUexpP/+BcEUcCTTz2Jx/7+D1x68RV49JFH8ef7/g5DN8EJAvg676LnwIEgIhQWFiVEFaqL404lDTuWMcep2P/NN5gxdSoGDR2KMy7sA58vDaapQxQ5KAq5UUn+1+EgHVUuz1sEY+fOrThSWYFfPf6XhHSGYYLjTDAmg+d1qIqOHdu2o7i0pE44KwLAYBgiRJHc8E2MMUi8AIIJCSKizIRflmCaBhRNhygIqDEjSFUF1JAIUeKgCnH4jQA4KGCqH0KAYMRiMAEYug7iefAATCaAgw5eEFxZPTMMxA0FjBhkQYZqqkBEA+QQZJFgRILwZVchHg4CVANVYWAmA4HcKAYNoZrKQTE/BHCIowohm+JGUYWQh1pHmQrYZM1SY+hQEUQKDKhg4CCDRwwRHWC6bqlDeFgxc1QP7RZFwFcDRANQdAWKpgBRS2/hEwWoRmIsbMZM6DErek04rCMtTUI0aiAUEt2/AKDXmNAkBboiQYxVQQ0GIUCGhij8hgwQQZUM+OMpiPNVCIcjMO12SfX7UVOH7HPgAfAgGNA0E4AMWbbq5nj813UdjNfQrW13fL7gCzf6RBJJJNEy+P0AYyJSA46JDQ/NNECgRvPouolwREdVtcUAJZ8fgbTauco0TXAcB57nwRjDrj27EIvHQGRFqBJ4gGkMBqzIKroehd+fjo4dOoLS05Fpq77Js8NsnZUDTYu6m3nv96Zgmrq92TYSQtE6anbTNPHmrI+txByHSy66EH5f7frTdsAAjB4xAvMXLYIWieA/z7+I//vjA3byJmRURDA8YXiPNrEGOCgqrt1utw50QWqqNW+rqu6aY8kyYJohFGwqgKqqkH0yOOKsRaFOdSSBR8+efdz/lZiCWNhaQ2RRQttMy4TAMR0wDNU1J2sghLXbnta7FcGYAcZMN1zuscJRSZeWVkOpqkL71pa5UqUt6Fm5biXKj5Sj6wndcMF5F4CxWmHSpZPG4PFnOyBcGYOqJApBure3BFOlJYdRWnI4waTCi+OOMOp6DDwfhGkCjz/+FDRNx8UTLkbr3FzoetzdKUiSNbCJfgjCyOyQcBI0TcOy5cvBCwImTZoEVVVdiRLHCRAEAYJg2Q/u3L0Tt/32NuzcvRummUhaBEGo95tpmhA5EZphwAcJcU6FZE8Ipq5bJM80YYLAwQAMH0hQIBg+mJIBwCIhzJ7cYBgWYSSCSSJEnw4yBKtXiyKYYTQxhbYMgizD1DRIQc7qrnEf4IsChg8GI4hMBRrZrQVEEXGPrYYsWO0n2ztNDXEE4ilQJbXB3ayzI5YFATpjYIyBiBCSZdQoCkI+n2XPlNKYTNZCRYU1icfjGtLTJVRXKwgEeHB+DjJkyCEAoUxXMpwRbAXRHuWyICCm60jV0tGpI6D6/RCjGjTSkZ6SAl4UITohuGDaGwUOEGsgsHQYXDV8XCbS6uwo2+Tl4Tu/nCSSOA6h6wDPE8hDbnwyA8dZI1AH4PfEgZZlGUSAphtQdGs+knwiUtIDCWuOA8aAV1+dhs8+/zTxxpptuGcjNTUNf3/i7xg1ciRg2zuSZ873p6ZClkMwDIt4NUUWici1tWxuYjhcchjLVlrSxaysDJw+7DQIYi0BSQMw+cYbMX/RIgDAmx++iVvuuBVpaWlNr6UcB8i15aQ0YsPoRVnkqPu9jSdetChaa7e9FAEgXHXl9TBhkT8w+1Nn2pcFAV99tc5dD5xQs7ClknVtxh3tXVPc1qulJKIEjd+3xaGyQ5AApKRkwDBUZAgyGBGKC4sRj8VxSu9TkZqaCi8FSE9PR7fO3bCxej0kITGeeHpODgCgJlqDmmhSwuhCFP3gOGDrxq8xZ+48tMnLw4VjLoAoSSCyOquuxyDZ6tf/NVmEG6TeJjGahi9XfYkhwwYjNTXVlbSpag18vlrWLwgyOnbsiMuuuALrVuxCdjsBACGQnuXGvQ3JQFRL3L3qqICEHOT4fEgJiYgaAlL8IURrjkJODcKM6ggGdYTjEoJBDhLSQYIJOSTBjHAgEARZAMdz0OM6RL8IjrO+d2yfC00HRKG23TS9/mBKyUtBUGpeJC+miwhxKdbOMyKCC1aD44PwaQpqfDz85IdfiaOaJ6Sn158MdY2DJFuTHxHATCAQCMI0ZUgSYBKDxPFQ9QhE0YonrOsinLMrzs6a80yhRORKAXj7Oi+0fBgJAgfGCDzfeMfieB7OVY7jwIgA4sBzAON5cIzZh4t4gOM8Bs+WKQ8RB3AMHCxpMgcBQp2OLIoi5GYO6SSRRBL1IYqWFiGuxuEDoIKBWACAAN7D6RyzIQCQZQEmdJhkLdSyKSKo+FzyIHhOT3CGjrKDB7H7691N1iMnKwuarUGBPaY1R4cNIBQK2GW3bBFzNsjOwTyn7pGI5h4IVNUabNy6BTu//gYA0O2EbujXewA4jkM0GkUoFIKmRXDaKUPQPi8PRaWl2LfnAJZ/uRrjxjRxmMJ5BqOWrLbIXMajZYn5ahcaQZDcA5jOM+09sAd6vGHzJQc+5MIrO9C05nfVqgq0dCoVBAmKYkCWhSbXgIYQiUTcOOIix8EAEEiLuYSUiFB95AgMTUNW53T7follyHIKOMaDNwU7j02qDfuwlaPubATHHWHkOB66puO1Ga+hrLwMt918M7r1OsG9BsAliz8UnGDiAFCwcSNKDpXgN7++BbBt1gAkkEUH2VnZuO+++4D7ftDq/uCoS5YbT2cNXMOwxPCNqQiSSCKJJL4tiExwnIhMZMCV05BpL7bWBhOcs+G0JJEcxyHgDyAlZM1jNUYcpdpRcBzvmoswZoIgoErgMXTo0LraUoDnQBKPhfOWouTwIRimCd2zGw8EAkjJzAQOHAAAlOy3/tbacPMQBAGGocA0Zfh8tXcgjkMEhBR7MxuP6wgELCISDAowbe0tz/uxesVylBYdBACkZmWiqLQYhSVFEDgOpk02dD2GLr16oai0FGpcxcfvf4jzzh0J2SfBNC1SKwgyNC0CWa71nuE1RYob8SbeAQPAIT3L8fzAobS4wlMOwHEMhqG6EtzJV14FPWbZv0d1HSGbkMZjKj6buwSKXg1NOJoglctMDyI1GERVVRV0pqM8Uoru6O5e1/W4bcvIuXXS9SgkKcUVmpimDsYIoiiBMQa//9vRLocsAkB6SgoIQKzSl6DazslrDVGWUbi3xK5frfBL12OIxaNgnAmTd0wXCIJAiMtlAADeFiw1hl88YfSqdB3s3rMXS5cuQzAYxC333XvMhxq+bzi2IgAw9fU3kR4IYNCQQT9qnX5KaAlZtNJZfxuxlU4iiSSS+M5gTAfHSYhKtYRGVxRXRe01Y3JIBMdZUv6AaEnqYtEIyg+XAp75n8gEkYBsScKtd96JW++8EzEAXvGFqqq4cMKlKJl3CJIgQK6zuHdp1xHbN24EAOwt2Wv/aqXRdR2AAFH018aAfIwAACAASURBVJsjOQKCJqHkUCkWLlkCMuNo3boNzhw+An4fB5MXIAKorKrCZ3PmwKF1yxcvxogVK2CYJmRBgGGa4AEY1oPZ7cWweVMBig4ewAknngjThKva9ZJFADDEWqmbj29cbGe1NaFVF8flmIBwOIyK0lJk5OSAiIck8Qnq/qmvTWmwrOLiIuSfMhDKYUCQpAStoj8YQlZuaxw8dAi6pqOs5Ij7jhmrPexikWAORCIkKcXWqmngOBFbNm/FmjUF8Pl96NilLc4565xGn6ulaN3GclBUVmERQ2sTwKFNmzwEgwHs3rUZ5YePIKdVrSu10kPlWL9xDXwiD87DeRgzUbnfUu1nZ2YiJ7NxE6tfvAymrm2aqtZg+eKF2LFjO2667jr06NDhWxmffp9wCK1eVYXZc2ajY4++OKFL92bzJZFEEkkk8cNCFP0AGHTDkpTxogg5GATHceC4Ws2GZZtuuAKJ1q3zkJtnLfSqoqKosMhjN2hJ3Ewz0X6srpfV6qPVqKoobbRuAwf2dr+vWG75J3TNkXS9SRMrQRCwYNl83H77rbj9zrswfeZM6LoKUfTBZ/tMXL3sS2zdvNnNo+o6lGgUhqIgFo1CUxSoigJOUUCG4ZrW7Nm7F+s2bLClrbyrOo9EtIQ6yFRbwaYkXTwvgOcF9D6hL0S/H4CBcLgaBYWHQGRAFOs/qK43LLGsqqpGRYV10ppXlITTz2mpKWhnvzMlrmDX1zvda0Q6TFO321iwPatwABiIFHCcgMOGjilTXsLd99yF22+/FesK1jX+Ao4B/fqcBAA4VFICXdfB8xJEUUS/3n2RnZWNnTv34J33ZiCqWDLwmpo4Xn5lCmoqK8ExDrzhbCKiEAQJOw5Yp/dzWrVCdqvGfSH/4gmjUEeJz/N+vPnhLATS0nD9Lbe47mx+bBiGitUbNqLycAl6926Lzl2yW5AriSSSSCKJHxKWRwsRqUFLOsYMo8FTD5ZLMw/5SEtD7z69XSK0cuVKlJeXJ5TraFOIrAN2sF1gOdhz4BuUHTnSaN3Gn3+JK978cuUKFBUXg+d5cByH1NTURs10OA7QtBiWLFiISKQG0VgM/Tp2gcTVnrpmjOHVWVNdh9r3PnQv5nwyBwvmLcCcT+dg/mfzsXjOYixbkI8PFr6Hzz+Zg9PPOBsAUF1djVX5q2DoBiRJdCWMdYMlMFZrP1dhHGr0OR3k5GTh7KGD4Kzyn8x8BqIgg+O4eq6IJCmAeDzuSoKZbfW9aulK92ALn5GBSCRqe5kAsvNaofep/S07fV3H2tWrUXzwIDgO4DgJgKXW5nnBFqgyRCJRiKIfhiFADkewYOEKRKMRRCI1GNCtDxRFadILSGNw3P4AwLmjRkOSJJQWlWDfnoPugdgeffrgz48/DvAcHnrwz7jx+l/h5edexuRbL8aUKa+ga9cTwDgG036vkpQCXSfs2LkZoiDg5P79EQg07iLoF628MwwDPM+7A9Q0gYVLl2Ll0pX47R13oFOnTvbAZI1G//ghYEXs8GHWZx9BFEQM6jUMQV9GC3ImkUQSSSTxQ8IwAEEwLfda9qE4U1UBombXk3POORv/fvElRKqrsXnzZuSvXIlLJkyAJAkwTUuNyhhgmgZEUQLHifD5bDdcuo4V/8/edYdXUW3fNeXO7QkJSUhCCxBBeocgTUSRbkVFBUUQC3ZEUZ5dn728p1h+NlCQJogKoiCgdJHeCQQCIQRIvze3TN2/P6bk3iQQ8KkUs74vX5I7Z849c2bmnH322XutZb/gxFHdkFKJrJhBE607tkbbDh2wdaPuXXz00WfwycfvwOl0VnKemDAVqHZu24V1a3SFsVpxcWjdMwOe2ASrXFZmFn5csBgsgLjaSXh+0vOnNC4AIOtQNtau+hUAsHDZj3is4DGkpqaevG8jDNp4tmqFK73NusHFcSy69eqLZb+uAVQVS+ZvRuaYnWjUtBnsdq9lCJrXHtleCYBYVob/fvh2ecWiCLudg2Bkawssh+7tOuKzWokoKj6BlWtWY9vW7aiTkgSet0NVy0MQeB5QFAkej8fIjucxa+Y07N+/BwBQt24DdO3RA4Lg+EPJtILggSgqsNt5uFwu3HDttfh55XIcOLIXF13cyHgSgZE33QRFDOKrL77Cryt+xYrVK5DWsCFee/ll+HxF2LZ9L5KTUwBjoSCWlWDZD6sg2O3o07//qRvxh+jGzxNEioFLkkSiKFOztm0pMbE2ff/9t9ZxTaue8f2vhCzLdDTnKHXJ6EZul5s2r9l4VttTgxrUoAY1qBqi6CdFkejGW4brqi0cR6+9/rqlwGXOJ5pGZIqLiKKfiIhCgQD17tPPUiZp2LQp5ebmkqaVz1WKUq4wpqq6epOqKrR2w1pqelFT69yEuDj6/ttvjXMUEkVd0+SDd98lThB0dRLBSzM+n0GqqlptqAhVlSkcDtPYsWOJ5zgCQFdccSUVHTthHNcVRCY98SwBIBagsbdXVpExy0UiP/sQ2dx6exmWpbkz51rHysqilWx8Ph+lNypXetm2YdtJ74GqaqSqen+tX7GOmjdsRgCI5wV65MHHyVfqM8qppKoq+f3R1x4IBEgURXp64kTr+wCQw+OhcDhaXqsgP5969uhtlbm8Z28qLS2x7k/FfhVFXQ1ny4YtVCeljnXelI8+jjjnzFV8iIhkudxWydyzhxjWQS889zwpcnSbVUWl3Nxc2rhxI23cvJGyDx0kSRTJX1pKhwqLSQyHLUWylb8sp4b1GtKwm4dZz9DJcEEbjBWx5tc1upxORncqyDlKRERSBam0s4WlS5dSgwYNKKlBfZKkPyYbVIMa1KAGNfhrIMvREqzjbh5HjiqkASPLyXJlec/s7GwSIoyULp0708HMA1SVSqlp6OzevJnq1asXZdzExsbSvHnzKp2Td/w4DRw61CqXnFyXfvxxSVSZ0lJdPDQUkklRVPrva69F1T116uekKCIdN8r7imRq36WNdXzatGmn3W9XDB5Tfq09u5y0nM/no/QGDayySzZuP6368xWJnn56EvE8rxuNDtBbr75xynN8gTC98c7L5HI6iWFBvLP82sXCQqNvysv/vPDnqP7p1KkT5eTkWAZWpJ0VDpfSvt37qGXzllb5nj0zKhnIfwbG3XknpTdoQD7fH7NiJEmiZ194gViep+zs7GrLX7Bb0qFQCIIgGMG+QWgq8NlnHwAABl97FWrXS4Es6zJujKJCY9kz5kX6s6CqClavXom8vDw89exTfzutTw1qUIMa1ODU4Hk9cYJlnZAkGcWOAoQBMLCBVM2i0GFZDSzLGRnSMjhOT2oJh8NwOBxISUnAC2++idf+/W8UFhZi/e+/44qB/TD6rhvQunlvxHpccHrtCPk05BXlYvGiBZg5awHK/Pmon9YIF6enY8nPSyDYbbA7KqbFAAnxsXji/kdxeH82duzahvyiXAy6ajDuHjkSnbt3R0pKKrxOL8IUwr7dWZg27SusXLUcAOBxuXDfA+MxcuTtAIAkgxZm2YofcGi/LpHXNaMrOnbseMq+kmXZ4lEcf9e1WLHkS4iiiM0rM7Flxwa0a9UJMLKdNU1DsIrt8nhJqvSZeY6ZLKSqMhI4G0aNHIPVK9Zg+aqVUMIKHnn8Ufy07Adcde2NSG96MeI8dmiKCl8ghIMHDmDO7NlY+vPP0AD07tMXvqIibN66GY5ataA69XodDhtCoRCcTif6DuyLF199Ea//+zWUlvqwYcMG9LzsMtw3ahQaN2uGxKQkMGBQ6g9j828r8cXsGcjcnQkASL/oIrzw9nvgDVpJURRhs9lOmdRzMmiaBlmWrUSpUWPHYsnKlZgzZTqG33snOFU1uH5tlkStJOlqN9H3RwXHsTiSm42v587Gv55+Gg0bNqy+AX/ILD1PoCgKqcaybeOmHdS0WUuyuVyUm5dnldE0lWQ5dFa3pQ8VF9O1w4YRZ7fTnp17zlo7alCDGtSgBtVDkmS68ZZbyGZ4kF5+9Q0KBH3GfKKQJAVPeb7P56MPJk+mpJSUKM+V1+ultPpp1CS9ETVIaUC802kda9y4Mc37ei79umQ5AaDE+HhaaGxJR0JRJFIUhVasWkaX9Lokqn6O46h27URqkNyA4hPjiTG2oAFQYmJtevnFF6K2JSWJqMzvo0ceeoRYliWWZemB+8ZRoBpvWWQd+flHqG3bcm/bC/96jhRFomAwSJqmkWzs20d6GHknaOPa6kOzIrfAD+zbR2PH3E0ul6vC9SZRo0YNKL1RE4qpFasfYxiyuVx007DhdHD/QZr05CR9S7pWLfL7q753oVCQ3nrnbaqdkBDVp263m5KTkyklOYXsjlpRx9q160yLf/6ZQqEy0jSNVLWyx/mPwOx9MRymV15+mTq17URHi4qMPpGqPV9VZdI0lf7vs89oQP+BtC9z32l97wVrMPp8YetvTdPo8y8+I04QaPyjjxIRkSQFrLgRM3bkbGH/3r3UtG5datO2k9WWv8J9XYMa1KAGNfjj8Pl8VFJSQpqm0Zg777QMg9deL9+S1jR9zgmXT0FR25smZFmm3NxcGjNmTJSRUdXPiBEjKDc3l1RFoWCwlGLq148yGCvG6JEx75WUlNBLz71CtWsnkj22cr2cHcSwoJ6dOtOvP/9CslxubEhSgFRVpdzcI9S9e4ZuHHncNG3mNCo6gzlTkkR6/qnnre/s2qkznTh6tNK8W3FL+mQGo6ZpFAhUHbYVDARp3nffUf309FP2Z2ytGPrvu2+Tr9RHmqbRV198QV63mxwMEzX3ikTkj7AnZFmmTevW0VVX9a+yXsFbbvhPePBB8vv9FAwGSFF0O0MU/fRHzY3IbedI95YoilRaWmo5x6qDHhdr9FcoRIFAgMLh09vSZohOoQNzHsMwhsGyLMKhEG658UYsWrIE+w7/jtSEVkaZc0MNZNbMmbh11G148YmJePzp5852cy4Y6Gz/+t/mvVZVDSwbKad3bkFVNV3yD+d+W2tQg38iyMiGLikphSiKUCQJsTExcLjjIAjlZN0AQVVl8Ly9kqKJqe4CY5sxOysbCxd9i6wDecjJPQjBziE5sQHatW2GS3v3Qf2GDS0+RxlAQZ5O2BwbGwuXy2XVybIsQqGQ9ZnOA8mjqKgIC5cswb7tm5Fz+CjCsow68XFIa94Mvbtegvady4UiCgHERGhcy7KM/PwTAHQ+x7i4uEpiGBURCATgdDrBMAyKGQZO0Yfi4iIwZIekSUhJTIEgCNA0BcTyen6vpuFI3hGIik4jlNTwIsSe4jtMHe5IVZryY0FsXLcNq35bi6ysPQjmhMGn8KiXVg+9OlyKbr27Wn0Eg6kk7/BhCG43kpPrWHXYbB4QaQbHZvk4rGkasvZl4aeff8beA7tQcFRXmUlLSkPLTi1w5eWXIzElxXpWIsVBzPv0R8Z1cwtf5/vkrC1zs7087wARg1AoCLf75Nrh5txIpJwRQ8wFazBqmmaJvx/MzES3Hj1wRZ/LMWPuPMtI1DQ9LkVVdWPibM3LN1x3I5YuX4Svps5Hv8F9oGmypedZgz8OUQzDZnNAVUUwjN2IQVLB83/sZf0rYcY3SZIKQeCgKCKI+HOyrTWowT8Z+qStgMhWpaqUpimG5B8bdVzTVAAEluUNKrUzG+P9ALwAQgAqktkEANgNxZjI8UJRREuv+kwQeZ6uN6yA41ioqhTFLVn1uWGDh7Cc1s6kHWRZWNQw5vcQb4emiLD/gXaaUFUJLMufFqeyopxaDUy/TzDiUMuv/Y/wNZvPCsfZrJwJpYr7dCb16f2q61JXvBZNU6BpLDhO7/OTMClZBqOqioYxy5yW4t0Fm/RiPqgMw+CjLz+F3+/H5cOui+pc03D8O7yMRIRwOAyn0wm/3w+vVydoLSsrw+IVy9GqVTukt0wz2sPDByDmr2/W/wS/3w+HQx88zGvTNM0aCEVRBMfphKJhQyTe6dRXhBynBy47nU4Eg0G4XC6EQiFr5WoaUObfLpcLoqiA4xQIghuqqhPNRq4STYTDYWxevxmHDmVi75FsEGlIqlUHFzdqhBZt26JOSgoURbHaGggE4Ha7rXboElqAzWZDMCjD5dJXr4FAACG/H79vX4f1y7MAbxmcNh7xSfXRoVkrtGrfCpKk83CJogie5xEKheDxeCqtgv1+EV5v+QDJcRz27dmHlZsXoyTPB18xA2+8DWnJqejepw/i4+MrTTDmcxQKyVCU8v43+1WWZWiaBqfTibKyMBwOPuo+Vez/YDAY1efm36Iowul0QlEUKIoCp9MJSZKswaviM6CqKhRFARFF6Z+eD4hcsZsw+6cqRD4rMPrAvE+SJMHhcES9J2a5Gpy/YBgGHGeriqsbMMZvVDGv6AaH7p85U2MRAEwzrSrmQ3sVqmYA/pCxiIhrMMFxvOHVqv75NctEtieyL3iejfhbb5/2P/Ig6+09PQOsOunYSMNJ51f8420znxWg3Hj7X+uLHEMqPmMsy4Nlq989NY/xvD3CI149LliD0URxUTE++OhztGvfHpd27lRlmb/DgcMwjDURmcaiooSx5IfFKC3IR9du16FuvURj1cGcs8ai3++3jACH3YHXnn8Zn0+fghinE7aYGLz86qvo3L49vF5v1LbFL7+sxJNPTkBBQRGSYmJQJopwCQIIgKJpkDUNLpsNpaGQ/jsYRLzHg4AxIXsEAYqmoVbtFKxYuRQ8z4Jl9SFUloOQZSA39yjmz/kWb7/3DvLyjlTZ/vj4eFx//fV4dMIEpBlZYabr3jQKIl9op5NHMBTC9u3b8c5//oM5c+fqJL1VoFWri/HoA49j6LCrEBsTC4Zh4PF4oKoSBEF/yEzjw+u1Q1EUHD16FCuWrsCrLz+PHfv2VVmv3W5Hv4EDMWH8eHRq3wEMy0BVVXi9XkiShHnz5uDpp5+G126Hqmnwh0Ko5XajTJLgEQQUl5Uh1u2GLxRCbbcbJeEw7CwLxXguPTYbymQZdeLi8MCjj+C/b72Jo/lFcHAciAgyEVw2GxRNQ8DQzK3t8SCoKHDxPIKGBJikqnDxPCRFQVztFCz66Xtr0fC/DJJ/J8q3d2QQEQRBOKmxiAgD0OfzISYmxjIMYdw3IrLed03TDGm0Go/xhYDqHA2VDUbmtCfmqnAqU+3PfrsqGk1VfX4651YFM+TmTM6pDueCWlt1+CscU6dS7jldnFHfnUnQ5fmI9//7ETEMQ3fefjsFz2IiiaZpUdlLqqpSOByma4cPI6/XS1OnfhnFw3U6mU5nC7Isk6IodLTwOLVu29YK+GVYlv71r6dJEqVKBK4zZs4kwW6vNri7up/U1FQKGRHkYSOqPFAWoLnz51DLVm0rlefsdv3HILI1f+rWb0hTP/2cRFEkVVWtTL3I6wuHw5Sff5wef/Ix8sbFRdcLl1V3xe8cdNVgWr9+PSmKQpqmkSRVTosLh8O0bvU6GjxkEAkV2sbZ7eS1e4iz85V41/416RkqKiiKqus//3nH4iD7X368MTH06ZQpFBsTU21ZhuOIYdmTHmdtNjp27Nhf9AT+tQiHw6QoCp04doKCwVNnu0ZCVVUqLiyk4uJioojnKLLes51gV4Ma1KAGfxTnx7L/D0KSJMz67ksIgoA+/fvDeYog0L8DDMMiFJLhcPBgGAZFOXlYv2ItEmonoGunzpYrWY+pPHdXTKa3aO3yNdixfbv1OWkMfl25GL6y+xBXK876vKysDAlJCejYuSt8gUIIiN6mVCEhc89uhEP6tnXjxk0RGxsXVYY0BZoiI7luouXFMT2Y334zDw89Pgknjh4GDA9u/8GDMaBXLzRs1Ai8243QiXz8vHoN5nz9PfIKM5GbcwgTn54ArzcGV19/jeX1KSsrszyoRISnnnoSU6dORygUBsCiUaPGGHb11biiR2+w8Q7wvAN7t2zBsl9/xXc//IBgMIgfFyxCWUkQH3/8EdLTm1TJ77lj8w7cftct2LvrIEjTYON59OrVCwOuvBLN27RBnCcW+eECHNichSmffYHtWTtQWlqKN95+DQwTxsSJT8Hl1rfmayV70b5DFyiyWuX92pG5A3IgAABomZ4OwVuuU07QoEEBBwGCG4iLrYPW7Tog4A9Bg64Zy4K3ymUfzoGvsACkaWiQkoLadepX+j4VEuLjPZYs1/kGjuOwdetmPPXMS3j+ycfQol27aiXQYHiQZs2ejRlz52Lh/PmVgs6rSxSoQQ1qUINzGmfbYv2roGlE69esoXqpqRRXqxbl5+ef7SZFQdM0mjZzGrk9bhoydIhFxRAK0TlB9XMymO1SVZUuuaSP7k1iObLZbIZ3yUHbt20iVdVIlk/vGkKhEHXo1s3yTM2YOfO02qFpGh09epQSExMtz9bFzZrRqlW/kKoqUeVKSnQpp8NZWdS1SxdiGMagQfDSiRO6BJZJTaHzZak06YUXovi87r3xBjqWk2O1QVFEyxMsSRJ99913lJhU3pbHH36YVFWNKldWVkZHjhyhhLp1rXIxCQk0e8YMKq1wjZJEFAqVUP7xfBp+8wjijT6uk5BAC1evNryX1asCdWnd2vqu1UtXV9unp0LXnj2tuj788MNqv/t8hKKpNHbUKOrRI4MCgVPvSuiSo6L1fK1fs4aSEhPpxRdfpGAwGOW5Ppff6xrUoAY1qA7nrhvrf4Qkqfh17WqcKCzAjVdfjYSEhNM46++DKIrYuG4DwqEwhgwdagjOi3A4ACIVinJuemfM5JWN29Zh/eZ1AIB+lw/A/Q+NhR6FEsbk9yaDYQgMoxji7Hqm2MnAaBpUo15SVahSoNp2KIqGQCCIG2+9EQX5+eA4oGWbNpg5fTq6d+9txcSYyS2xsTpBQ/3GjbFg4UJckpEBAJD8fjz++JNQFMXyLKoqYfnylXjpqacAI0D9wfEP48XPP0GdevWsNhAnAEZAs81mw5AhQ/D2f9+Gh9frefODD7B5w4aochzL4Y3X30aRQYvRuEkapv3fpxh2001Rcau6UgLgcMQiISkB773zJq66YTAAG44XFOC9V16BojDguOj4Oj17U6dyiOxzhtN/KparCFWtrK4Q+ZnH4cAFO2hA9+7/vPoXLFj8E0aOuB0O+6kzQm02GwRBsJ6vzt264aohQ/DWW29h04bfo2I3JUmCdBL1ihrUoAY1ONdxwYz9wWAQMCY3Ig3BkB9r162HJEq496GHznbzKqGosBDbtm4FY7Oh/+VXguNg0RWwLA+b7dyMFjC35ubM+RpKKASGAwYPvRIjR94FGFtuc76Zj5KSUis7rDrIUME69HNZAKFqjGWd10rFqlUrsXLZShAAt9eDDz74AG0rSFbZbDaL78xEQkICHn7wQcQayQi//bYJR48eNeomiGIZPvvsE6t8z0t64qH7Hkac0xvRBoKqVE5+GXbNMAwafCUAQAmH8dXsGVAjbOX9Bw5gydLF0DQNdrsDd9x+F64c2L/aPopPTMSkiROR5EgCAKxYtgzHDh/Qv0cRqzT+ovpM1X9OBYZhziirUgxUb9ifqwiFQoBhmJsUXJIkwecrxaQJk1AnIQmX9u4DluOgqqqVDR0KhSDLMoLBIILBIMQqEqCeeOIJBEQRn3z2BUqKS41nSoTdbq9JePmHQZZlKIo+AEQ+K+bCO/I5PJMQDnO++6ejYj+Y/QkjySyyz82/a/ruj+O8NxglSYIsy5Yho6f0Mzh65AQ2rlmDDh0y0KpNm7PdTBBR1IOauW8ftm7fjn6X9UC9BvVOee65hiOHjmDpD7/CjkQ0qt8YXTtnoE3LVuh6sW6sFeYXYva33wIGlQDDMKckB5UlBVTqg3mC21VdjjgDRWHxzvsfWJ8M7T8YXTp0OO1raNepE5q3bQt7bCz8Yil27txpHdu37wA2bdoAAPC63Rh1+wjUrZtsHS8wfgucANP5JkkmkSyPoSOugz02FgzLYtu2HeAgAapucKxbuwa7du4AAKSmpOKG666DYK9MsVEV/Uq7lp3R5bIW4AQBCh9G9oEjBh9X+fk6FxkDhmGtPi+twqgxy50OIusvC4dhsokIp8gePtdhxsHyPG+R8tpsNixe/CM2/vYbLuvVC00uSgcMii6e5+H3+7Fh9SoMunYomrRqhfSWrfDg/Y9g+9atICKUlZUBABqlp2PgkCuxfPlyHM7JASJoVP4InUoNzl/wPG8tWDmOsbz1Zjxr5HN4qrh1v98f9f/pxNT+E1CxH8z+9Pv9YBjGet9KS0utv01quxqcOc57g1EQBNhsNjAMA1XVIMs6K/umLetxKDcX94wZZU2M8llsJ8MwFtcgEWHXnj0oLCrCrTfeYbUvktdLlkMnr+wsgojw+7YNOJx7CCLycXHbpmiQXg8Mw+C2sSOtfP7ZU7+A3+ezSFBPBcEmAEaCgKooCBoT78kgMwyO5x1BXvZBCAB4G48+/a6AcAZJBWlpafj+m29QvH8/fl+9Gpdddpl1bN++vcjJOQQASEpORovWra3BnEhDbSIADIgYS9SdYXTVAYZhceNVNyA3Kwtlx49j5tT5BjO/DZqmYPOGzZY3sFnblmjctGG1fWSumhmGwYxZ83AiLw8Hd+egfbcOlgfjVMafO/7P40KMiTASRbVqeqHzAWZ/mcYiwzCQJQkLFiwAiND20kstagqGYVAY8GPyu/9F737XYPu6DajrcqOW3YHps6ZhQL9++HH1IiukQQIw6ppbcejQAfy2dnUllYga/DNgqnKY3kSWFQBwxvvPgEh/tgKBgLEIDp+0Lq/XCyINirGrcb4mlP0ZMDmNYfSDoihRoR6apkVRWamqitjYWGjGBMswjHW8BmeG895gNCHLIXAcC0HQV3Nzvp6PBK8X3bp3huG7glTFFuLfDVMuad533yAxKQUZPbtZxyJ3FU1ZpnMNkihh9S+rUVxQBJ7nccWl/ZBQS/e+dchoj5R6qQCA/fv2Ytfunafk1zIHSCICGQMgxzDgLcks1YrDI9KgGl46BUB2bg6KSksgAUhMSkRa4zQwDANNz/9DwAAAIABJREFUA4IaUN1wynEcPAkJsCckICkpETxvGu0aDu4/gEBAN9ISExLQpHFj6zyd5JSMsopl7EXeL47jULt2bbgSEuCJVyEIDrCsfj3rN6yxyl3Z7wpwnFAtB5kgCNa2ltvtQWxsPFJSUmC3c7DZbJY3MrK/IqH6Tj4RnSmUiImKlU7CXHweoKrJ+cihQ9i3Zw8AoHvrNpZhL0khLJ6/EK+89gbSU1Lx3/+bjDnzv8U3877BhAmPwhcS8cjd460tLwVAqzbN4XK58OOSJdbiTxSrDx2owYUFIrK8YET6+FJcXAyfz2eN9263G0QAz596zNf58rgqjaR/EvTQGR6qqkJVVfA8D0EQEDY4YrUIz4sZbmL+bQoOICIcpQanj/PeYDS3pCNjr8SCAvy0aAE69eqCpNRUmOQWrtOMqfurceTIEaxduhx9e3ZEYkI5fczJZHzOJZSUFGPht/OhEsFht2PgFVdY5KFp9RujUxt9Wzj/RDFWrd6KUw1p5lanoihgzG1TjoPN2FZgGBaMlanBGJJagJM0FGRnIVRSAgCIiY1DfLyZ1KSA18RqH+xAIADBotEt3zLXVA25OcescvXq14fXSGiQpDJLfkqSfIa8k6n7rEsR6gZlOSL1Y3nejszc8rqbN2hWTSt1sCwLjuMgSbrnlUiEpilRz7zP56vQX+UQ/0RvRChikrI5Tp0Qci6jKunN7LwjOFFcAHtMDBo2TrMM+WNHT+CHhV+jtLQEj730EK696jo0Sm+Mps2bYvRtd6BT+w7Ys3MPDmYeBAC4ADhiayE5uR7Wr19v3acalZd/FkzDBsb7uXvvLoy+8060a9cOt91xAwqOHbXKsiwgyyePCS4rkxAoK8O/n3kGtwwfCUmSzhsy/D8bkiThjZdews03jYiKURQEwQofgWGsL1v2C24ediPe+/hj2Gy2qD4zw1FqcPo47w3G8i1pY+IGMO3HRZBlCa1bdEBsTBw4Y0LXtHPjcr+ZNRuiqqFVuww4nLo5S6SdF96H9ZvXY98RPS6rU5cuaNqylXUsvnYtdOvRBTabDSE5hBXLfkBhbt5J6zLvmSAIYE3OOkVB2NiSjtzK00MOJPC8CoZh4VcYBGXdmxbrtCHObSTNsDxsnN10Ap4UTqcdpEogDVbMHwBo0OBXiqxyMYZiCwzjT1H00AFBiAGgt08UAYZRYbc7DGOSECCTxZCJWsUGj5UbjI3SUqvtb1VVrX4QBI8hVWUHy/LQNH2VLMsyYmJioKoEWa68Yv6rtqTD2tn32P9R6Fq/el+Z23tFJ0rgLwkgLSU1KlGqxB/Cuo0H4Iq1YXD/m8AZhiTDMKhbvy7e+fh1rFuxFrWTdX5LTQPsdhsaNEhCbs5RkKJCNQx/opoJ6p+ImJgYfP35NHw5dSoYMGBVB4hlIUmwFoKCcHKeYI9HgKQoWL11K75ZNFNPuotIxvonQdU0rNm2Dd8v/tp6n4KBEF5/40U88dQz2Ls7EzDet4KiAsz/aRF27NhofcYwjMEkUaO6dKY4NyyoPwlEGiRNwdw5MxETE4OOHTtCEATDEJP/dg8eEVV6oSVJwpRZXyMxqQ46d82IWA2Vb3WebeiDke5JMmNFYIi2T/7obUsab8LEiVHHWJZH7169EROjx4es+30tDmRnGfWV90PFrVNVVUFGP2ksC/YknhjdUDICyBkGrPWy2yOUVnFSjddIsCwPjhMgy8Y2oqJB00i/BRHhox6HbiCZa3+e170Bqhq2vsdu16mQTNhsBCdpMCzGqHgjLeLa+NOIuaz4/ChK5DENNpvNIHwn8Hx5SEZUHaV/XjysFNEeXjm/B1tF0YzfeqeqUgiaIiE+Ppo0Xgz54C8+gtT4ekhOjo84X//dpmlHdO2ZgcTERMB4/sxELxYCio4ft+Kna3bA/rn4dedG2Fws5sycjQ//7/9QKzkZggAQlY8JRGRtNUeOvQB0qjJOAiR9fI0MRzF32kyng0knZsKsM3Ibu6qs7aq+t6ryZj3mtnDkZ2bohTl2mfWZ7TtZG051TmQ5nuNw07Dr8K+Jz8Lt9kLTVCiyhk+mTsPnn/wf8vLLF+VtW7fCvyY9iWsH3RBFD1Zx6zqyvyr2f+SxyL/Naz9Zf12IOO992rKsGq5/FgAD/6Gj2LFpO+JqxaF1i9ZWubOlNVmeLKE/9Jm7MrEvcxeaNmiAZk0aRZQ7t26FubVpGrSiKCJneyZ+/UnnXrzooua4rFcvq7y5Ld2xfSckpjVCYWERTpwowPrVv+OSS7pH9X9FTVVN00DG7MswDPhTbN2ZWsw2jgNnfKmiaFGetTNZGNhsnNF+Bgyjf7/DUe6RUyXd2LIZkz2RmfnNR8WcRm5x6lvDrHU9kVuRNkHQY2cASAYtjSwHYbNVnXHscDgQCoUiWAAij/HW91WEAkAE4Da0uv8syJExjOf5lpjdzhu/dcNd1jQomgYtHE27oWoaJEWBu0KGs3kvFMV8JvT/eV5/Tog0qAiBcTqt5cx53mU1OENIkmRtk4rHfEiOT0LzVs3h9rhBqgRwAjiOg6rCGH9gebd5nkcgUAaHQwDHCXoMpMoAnIbIIVKSysBx0fGPpifNVK4qz9TWfwcCgSjlIZ7nIcuytY2uKDpPq81ms8ZcjuOgaZoRAmaOPQxEUYTD4aj0HebcZ5ZlWRaBQCAqs1kPtZHAcRxYlgXLsgiFQlHnVCzH8zyuuep62Gys8a4x4AUAjJ78x7CsNaY2b94STzRtDp7noWkqVBUIhfQ+icxKj+wvs31mnKSiKFZfsSyLcDgMl8tleSf/SaEB5/2V2myctapiGAbrtm9Bqa8UrTp2RIvWLYxSDBiGgyQBfyerBcMw1svDMAzsdjt+XPo9wsEA2nbujAZpaX9fY84QphHC8zyICIIg4P25n1urKU4VcefIO4HYiJPKAHgAm1y+kvu/j97Dg48+CJblIEkBY9uFBcMAoqh75wRBAGdsSTMRW9Kqqt9Xjis3Ll3GlqgjNha8wwGUlSGoBBGQozOrRdEPu/3kmXCqSlAVDQxLCIWK4XDEgGU5sAyL+Nrl0nmZeXn69oXkByPEGO2OrjscLoXNFmsZkwBBFANgGRsYY7IwB5dGdepgzwGdP/FAbj7qtQM8JzEWUSFoHgAkUQXHaQADSJIfghBvGb2R7wEf8XJ7/sTYuZiItojVZLOf66i4JeWNi4PT68GxIl/UMafTjfj4JJzw+XBMUVDHeKf9fh8cDgd++OE7rNm0DQ/fcw/i4uJgt9uhkYagJIJhGLjdvOHdYE6bm7QG5z9Mg2v18lX4ceMeFBTl4VhhKZ5/7TU0apCOW68fDm+c7khYtPh7fDJ5Mnbv2weHzYaLW12M+8bchV5X9ItYjDIA8QDnB+sPA65YEBGOKgwWf/wJPv3iY+zIzEK9OnVw5ZWDMP6h+9EgrSGICBynz5PHg0GsWbIK8+ZNwZYNW5GQlITbbhmFAUP6IyVFT16suE3rMMZcnufxy+KfsHrT77i872A47Ayeff5p7N66Cwl1GuCuUTej3+DBSEpKsjyJDocDgUAA0z6fis++/By7sg4ivX5dXH/1dRgx6nY0atQIPM+jrKwMLpcL+SfyMe+beZj+6afYU1CAVKcTvfv2xf0PPICL0tPBchwURcHC7+cjOzsbY8aOxdHjx/HZZ/+HksOAKAfwyZufYnPGajz0+OPI3L0Li378DvWSmuDyAZdj+vSvcMi/HUMybkHXnl3hcDisd93n8+GFF15AfGIirh86FE2bN4eqqigoLMTUKVPwww8/ozg/F9179MDtt9yCzj17Wjy/kZKyFzTOttTMnwFZDhMZcnUTJ04klmVp8geTSVHK5eEkSa6mlr8eZX4/DRw8mADQvK/nERGRKIpnu1mVoGkahcNh639FUSjncA41bNLEkoU7k5+lS5dG1S+KklGvfu2lpaXUvm1bS4Lviy+/JCIiVZVJVWWjTUSqWl7HmrVrqGFaQ10qL7kOLVm6xDqmqnr5U6GkuIimTfmCHnv4MXpywpO0eOkyUoxn6M3/vEUwpAMv6dmLiouKjXpVkmUlqh4l+l+SJKLjx47Rc/96mh57+DF6+umn6Xjecet4j0u7W/3y+utvk6oqpCgqnQyBQLn0n6JItHzJr/TQuIfosYcfo5lfTiEiIllWSdM0UhSFJEmqVMfpSgOeDnr26WPV9d777/1PdZ1tBIPBqP/XrF1BzS5OJ5crhfz+Yuvz3CNHaMigQfp7O+srUhSJVFUhURRpx/Yd1Lpla3K73ZRz8JB1zrFjedSyeTNq3Dg96jvOxfe9Bn8NVFUlURRp+vSp1L5TJ4rxeMhlt1Pb9u3p1ltuofzcHCor89Oo20YTw7LUouXF1K9vP7q0dx9KNaRDxz8ynsp8ujxlYWEJDRwyiAR7jCVFuS8ri/r06UFOh5M6dmpPg/tdSd26dCOvN5ZatGhK23futMbywsJjdNfYseRyOimtSRr17tGb2rRqSYJgo/btOtPqZcui3glVlUnTNPJFXNPIceOI5XkaMnAI2Vygjh07Uo9u3Sk1tT457Xa6bdRIyjt+zCr/+8bf6ZJel5Dd7qD2bTvQgH4DqEunduStFUddunel5ct/tuQzT5w4QUMGXUU2t5u6dupE/fr2o4yuGeRwu6l+wwa0fMlPpKoqBYNBGjx4MNncbiorK6aVK36hPn16kcMtEM/b6KKmF9MNw4YREdEX06cTa7PR/Q/dTQG/n0aPuocYhqWrr77esg+CwSBJkkTfzPlaH/MzMijXkIBduOAbatmuHbncburYuRNd0v0Sqle3PvE8T4+Mf4QO5xw27IvK4+6FiPPeYJQkhWRZn3APFxXT9ddeTwBo145dUQajaXicTWzdtYuat25NiYmJlH88j8jQoj0fMO3zKeR2uQgA1a6dRJ27taA2rTtSp9ZdKCOjC7Vp05HatW9HGZ3aU8/uGZRWty6xNhDDgoYOHRpVl3kvTH3l0tJSatWmjW4w8jx9OW1ape83DUZJ0ge03EOHqV2bciNz8uTJpBoW5ekYjAcPHqSuGV2N66lN02fPItNs+/a7BRQTG0cAqGFaQ1q7bq3RBo1kWYkyXM2/ZTlkfbZs2TJLW7tx06bkKykfcsePf8gyuPr3H0SyHCJFOT19YUWRaNjVI63z33r1ZeO7VeMZr2zAEhG1vPjiP81g7BFhME5+f/L/VNe5htwDx6hnRm8CQDt27LA+lyWJPvr4Q/J4PdSyxcX0/dxvqaiggLZt2EjDh99KHMfRA/fcY41DgYBEhw4dIpfDQdfdODzqO86X970Gfx6Ki4tpz7591LVze2pYty5t2rKFDh0+TKos0+LFPxDL8zToyitp1aaNdCLvBB3JyaVly5eTy+WiJk2a0KaNm4iIqLCwmAYM6E+CI4YCgRJSFIleeeYV4jmeRo0aQXv37aH8E/l0MOsgvfrqKxQbG0Pd+/a12vHIIxNJcDjopuuuozVrV9ORQzm0c8d2emriRAJAl/frRzlHjhARUSgkWwajOeYSEY0dewcBIJvdTh9++CFl7s2kwwezaeHqtdSxa0cSBIHe/89/iIgo/1g+DRo8iDiOo7vuGkN7du+lguMFtGffbnp44mNkt9upQ/t2dPjgYSIi+mrqVBIEgSaOH0/7MzPpRN4JOpB1gD6cPJnAgEaPvoOKi4orGIwSBcrKaPPmzdSwaWNKSEyiL2fMogOH9MXbF9Onk2Cz0ejbHiAiom++nkt2u53Sm6RTdla2dV2SJNG1195ENjfoX8/+i1RVpYM7iqhVmxaUlJRCn38+hTL376OD2Qdp2bLl1KJFW3J7vfTZ1CmGI+Hs2xd/B857gzES+/dnUocObahevXrk8/kqHRfFsrPSLr/fT0RE8+bNI4/HQ9dfP/istON0oWkalZWVe0KCwSDdee+9xLAs8TxPkyZNqvYFWbBggWVYeNweytyZGVVnJEKhEHXs1k03/gD6+MMPT6udI0eWG09XXnkZFRUFSBT91Z5XUlJCa9eupZiYGAJAaQ3SaMuGLdbxvbt2UTvDgGV5nl59801SVZXC4fJnSh9IA1XWP3r0aKtdw4ffHnXs63mziBMEAkD169aljb/9dlrXSkR05MgRctQC8U697q17tkZd08nwZ3oYBw4caNX15ssv/091nU2Ew6VEROQjItOEk+UwTXjgPgJA7370blT5UEimCRPKjf3In4yMjlRYmBtVfvpn04mz2+mTDz74266pBuc2evbMoISEBCotLbU+e/fddykmIYHeef31qLLFRHR5z56UnJpMi5ct1j8rKaGBQ4eS4PFQKC+PQiGRRo0dTWAYeuGFp6LOP56bS089N4nue/Q+IiLK2r2bHAA1uqg5/bZld1TZE0TUpWcX8ng89NNPP53yGsaNH08A6Prrr690bMnSRcQ7HNS2WTMiIlq8bDElpyaT11uPjh0r9zqqKlEoFKSLWrUkh8NJ7733ERERjTfq/vDDD0lRlKix/LFHn6AXX36ZjhUcjTIYi4v1nYBgMEh9WvahOqkJtHT1Quu8mTNnkt1up9HjRhMRkSQFKKlBffJ4vDRlSrljYt/ufdSyeUt9XN2gj6svvPsosQCNf/BB8vnyo651y5YtZANo8ODBlXYqLmSc9zGMJu8dw7A4cTwf2QcOY+jQAVFM7oFAAG63+5S0BX8mVFW1gmgBwOPxQJZlrFu5EoFQCKNuvedvaccfhR53VR7smZ2djVXLl4M0DTHeWPTL6FttoG/LFi3Qqlkz7Ni7F6IkYsmvS3DP3XdDVWUQ2azgf1WVIUkSNFOXmOfhMGJBIu+tpqkgUqOSS4YPH44vvvgCAPDz8lVY/ssSDB40CIoi6hmqLBdFS2OSvNpsNvznzTfh8+mU7h27dUXbjm2teuunpaF1+7bYsm0beEXB7FmzcNOwYahfrz40TU92EEUFDiOD2ozNVBRg+/aNmD17NmAkhYwddXNUv7Ro1hKtLm6Krdt2IO/4cXw+Zzaatm4Nt8NhaGRzUFUZDGMDoIBhOEst4q233kJYp57EZb17o02zcsnL2NhYQ5qwMvlvoEKmtZ6hzhjJOSfPdNY0BSzLQ1VlK/bOF6HV6nDVPum55zrsdl1+0qVKeoIXy4Hn7eh/4wC8/t+PsHHtJpTeGkSMQbTvcPB47rl/o1X7Lljyww8oLi6GJy4O3dq0w/ARIxAfnxRV/6yFM9Cobgq69rgk6nNVPT/4Vmvwv8MUG4jkS/U4nYh84+677z6MGzcOvlIfMjMzURYsQ6CoBPuzsrD+998Rk5gAu81u1EdQJAkOAKLTCRfHoFlaE/Ach3cnfwxV8SAjox3SGjVEUkISnn7yeSMZFFi1aQPCAGp77IDsw86N2yHx5ZQLrS5qgw1rNyE3N9f6TJYV8DwHTWPKn9njxQCAy3v3BoyERRjJIPWSG6FVegvs2L8LZWVl2LVtFwrzC3H33aNRp06diKtW4HA4cXnPvvho124cPXoImqahdYcOEAQBLzzzDI7nHEfX3hlITU1Fw/oN8Orr/7bONpWvHBCs5B+GAQ6GDoEhGzgqD6xXNA2qpsFtFLTZXBh3+2145vkXsfH333DDsKvhcLqwdtN6HMrNQc+ePdGmYxsoioJZHy+GJyYWteukIOtgDohyrHoDgQDikpJwcM9BhMPhf4xU4wVgMJqB/sC2LTtQ7Pej/5WDo8q43X+PoVixTZqmQVEUCIKAIknCpnXrkFq3Abp072KVDYfDlv7luQIzYNlut0OWQ9i6cSuysrIAAE3TG6N1t9bV1hFfuzbade6KHXv3QZZlLF26DCNuvhVOt71CpijBwXEgc0SKoDtQFALHAYpiGkIcwmHFyg6+7LLLcMXAgVjyww9QJQkP3P8A6iTFo3v3ngbNT3Rig3ld7739Nr774QcAQK1atTDh4YctI4plOTidTowdOxZfTv0SEARsXL8erzz5Mv797r8RE1MLAMDzmkWRohu0wL6sfZgw4VFLp/SqIVejW0QmOQA0btwEl11+Fbbv2A1FUTB3+jR0atcOI2++BapKRps1g6pCgc2mG4xff/MNpk6dCg4euD3AzfdUXnRUxTMaAKzBsvz+alZSk5GnVCXM5ziSjJyLMDA1/vym1UEVBN49O1+Brj26Yf1v65CduRtt2pbrkzudTowcPhwjhw+HJElRutA+AKYC+ubff8fPSxdjzM1j0CitcVT95wHVag3+JDAMG2UshkJqFNeuvlgmzJr7FX5e9DOys7NR7C9CydETCGka/CKDuIj3EMZiPixJ4HmdVueWW25B9oHDmD//azz73OOIjY1FixYt0KhRE2R064Ixo8fA6XQi21Aw2pWZiTtG3wGnJCAklCcnlhT6oSkKAhEayyxbxcOaxIHhOCQ3bAhUaJs7xoWkegmgfYT8/HyUlpZClmW0a9UZMDLGbTabMb4BDRokQiMNpf4iaJqG668aiK33j8OX07/CMy89A897MbgoPR0tm7dAp06dcOOwG5Gcmmx9X1hWotXRXE6EgsEoGjNG7zSwpeWTzsiRt+H5V1/Htm2bUVRUgNoJSVi/fhXKfD5MmDDBauvRvDwEgwF88smH+GrWl+DIAwV6op+mafD7/XAKwj9KpvG8NxgjZdXW7VoKt9OJJt26nfKcvxoV2eQBIFxcjDXbt2PQkKFwR2RTCX9n2vYZwKSC4Xk7ps+aYnFTDb76agjx8ZAAVNVyv6F04fF60LNnb3z33Xfw+UqwY/sWZB3Yj3btO0CWYa0MOU5ASAYYXjeaVVWFaGRi8zwHhgEkyW6Vj+QZFAQBX3w2Hd07t8GBnBzk5h7GiBGj8NQTT+Kmm28CxzkAKGBZB3w+H6SwhNdeew2T338PQWOV+uLTL6Jz586VPG3dunbDK889h4nPPgsA+Hj6x9h25HdMfmMyWrfvCJ63W4MVz9uxZctGTJzwKJYvXwEAqFcvDc8+84yhLGy3qCnsDgcmTXoQ386fgQMHDiAv7zjuv3cc9u/ZjkcemQhBEAypMAJgh9/vxzezv8Fjkx6DL1wIjeFx5YBrcFXfvgiLPkj2GMtQMe+Z3++3POwOAIiJXpBEGkmcVAYIVZuMHGeDD4A7YtJzRjyvSrDIuGcyAKpSPeV8g81mw1dffI5Lul2CHxcsQqtWbREWxUqLzsj3VpZDcPEOi1fn7ddfh5uPxfA7xsLm8YDI5GwMGvJv57+hXYMzh93OQtY05APwGlRqH376Dp6a+AwUmdC9bycMHnA3MprWx8WtL8Z11w1Dqa8Iiqp7AjmWgcvBA7Lb4gCt16AB3nznTUyY+Ch+XLoUy5YsxHeLlmLt2rWYN+9rfD79K6xetgyypo8N9ZukY8TNN+sUFQY8HqCsDFChIuOSDOtzc1chyiMuCnDa7RCMec1kARFFHzQCVA1QJQler9fiVPQb/IfmXKiqumfwxIk8MASwChAISPB6Y/DSCy/hkYfH48dvF+G7Nb/gt0WLsHnjJsyZMwer1q7DO2+9ifj4WoArDNg08LzutTfHYlv5y6b/z/OwcRyC9vLrbdi4MYZdey3mfv01Dh3OBW9zYvnS1Wjasin69+9vlVNEES6XB72790Gz9DQw4ECm6CzDAE4nYjgHxH+QLvV5bTCaIuQ87wTHqVi1dAtatrwYad5zI71d0zRwHAdZDmLh3O8QDgYx4IrLYeP1l0xRwufsJGuuHHMO5+DHpboRFJvkxOgxY+AkgGV04y5SEUPTVDg1Diynr657dOuMBvVTsGNnCTIzD2D9+t/Rrn0H8DxB0wgMw0KWA1AZBVKoFDYAKs9HhBPobPwOB6uTexMHnmes75XlIJLr1MI7n03Gg2MfwsGDB3DwYBbuGDsar/z7BfTp1w+paU3g5EXsysrF0m+/RY6htGIXBNxy++0YeedtUJSQFa5gGlscx+Hxp59GYVkZJr//PoKBAFb/sgGXXnIl2ndthV49esLrrY3jviLs2LoOixatAaAbusl1kvDyy8+iZavmFndZ5JZF7fhELJo/H1ffcguydu2C3+fDiy++ho8/noZ+gwaibXoCFDkGuSdysfqXX7Bp504AAMOyyOjRHS8++yISEnQpRDtpkBWA51mLVywyHIMDUHi0IOreRvI+Ok9iLJpwyiGwvB0wPJJiBOmuM0Y/l+NsOpfmBaKc0LhRYzxwzwOYt+g7jB03DnFxcZXKlACoZfxthgGEQmX4bdVGLPx5KR4Zfx8yjDAHAgEIn5RrswYXJjSNIEmqtSMiagzsLItE43h+fj4+eu8jEGn46P8+wm233WJRdklSEAW+Ejg5GxzGlnQ4rCEQEAF3GIIABANhHD92DIoionF6Ou4dOxb3jh2LcCiEeXPm4dGJj2HPli1Yu3IlUlP1pzU1ORkPP/QwGLuAyH2HY8ePw1/qQ53kZPj9fng8XmMngoEsB6PCuYLBIEqKSyKuU4MgeOEvyUZu9kHE1k5AXFw8atWqBZZlkZd9MGqu4HldB3v3lkzY7QKaNm2K2FgX9u/PAmkq6tatizH3jsGYe8cgHA5j3oIFuP+uu7D0px9xKPt+xMe1B0JOOFkWmuYFxwGcLIML2KGwLFi7YI1FkqJAUhTUqlX+DjMMi5uuuQZz58zBjwt+Qr8BKnbu3I7XX3rNWnQzDIP45FT4C4+j74DLcPPwW6OWeaqq4uCBgxCcPFJsNmiaGuW8umBxtoMo/ywcPpBJHJx028iRVFZ2dpJbIhEOhy06A1EUqUO3zlS/fn1au3ZtVEbtuQhN00gURQoR0ZP3TSJO0IP7R4y4OYpCIBSKvg6TJsekOZJlle64c4SRHGCjwQP0ZB9VVUiWZSuTuazMR207tCcAxHAczbRodRRSVSWqTjL6NhKiKNKSJUuob9++xAsCMdXQ/NRtUJeenTSJjuTmVqqnIopLSujVV1+ni9IaVUsfxPI89enTi76cNYtkWbbarCiKlbEfif3799Ptd9xOHpez2roT4hNozNjzT+tkAAAgAElEQVS7aN/ufVF1RPaR2f+R/SWKYqWkl6pTdSpDVaOpjIiILu3b16rr3Xf+a30uSRJp1aWmn0c4cCCbHn14Au3auYtUVbMyoKuCJClGlrpKs7/5lh586CEqKSkhWZatzH0y7sWF1Ec1ODN075xB9VJSrKSXXdt2UVqDNEpKTKLtW7Zb5RRFoTXr1pDL5aL69evRypW/kizr2dZXDhhAnlgnlZSU0NGcozT8uhuofnIy7c7Osc7XNJVEMUQ9e/Ykh8NBPyxYQFs3bdJZHxqk0drV6yhyhiwtLaW+AwdS21ataMWKFUTGuy/Lld/pcePGEQC68fqbSZZDFIx4999//yNy8S4aNeJmCofDtGjRIkpKSqKLmzShrMysqHq2bNlCiYn1KC4ujn5Ztkzvn66XUJdOXWjblm2V+u6GG64jl8NBy5YupWAoRIOvuopsNptFfxX2+6lV24spJTWFfl25nDRNf+9mmFnSRtKLiUPZ2dS2bVtq1KwZjRoxiuqkptAagw3DHKrve+hR4jiOxj04jsqC0TbFimXLqWGDRnTX3bdTOByKGnsvZFwwBuP0Tz8lhuPopZdfrnJy/rsR2YYDe/cSw7J0We/L6OiRo1HlzAzqcw2KIlEgLNETzz9Id959J42+6y7asmkT+f1VvxiRWemmAUNEtGr5Sho9bhyNvn803ffQPURUTo1jXns4HKAXX32dRj90E425805atWoVRdqEFexDImPyNTO1JUkfJPPy8mju/Pk05KrrKDYhMcrgErxeatikET046SnasXsXhYPRbaAK98yEJAUoHApT1r599PrLr1PnjM5ks9lI8Hii6r7i0l702cfTKPdILpn545H9EIlgMGgNxCWlJbRy6UYafffdVL9ePWI4LqrdKSkpNPaeMbTq1xXk9/tJ09SoBYeiSBQOSwbtkEKhUIhUVY0wIhV6+Y03aPTYsTT6wRG0d/deisxvPxVzgKZVpid6/T//odFjxtDoB+6g5b8ui8ocv5CgaRoFA0EKh8OGMVjZ0DMpR1RVI03Tf8qCIQqFy3lhNU2z3g1FUWoMxn8welySQXVTUy2DsaSkhFq0aEE2O0+PT3qI8o8fp0CgmL6ZPZe6ZnQmhmEoqXYSfTPrG5JlhYpLSmjA4MHk8HopJyeHJFGi8eMfJJZlaeiwoZSdlU2qqlJxcRHNnv01JSenktfrpcOHDpEkSTR69GjiOI6GXDOUdu/ZTX6/j7KzsmjErSOIYTkaMOAaKigoIDLGFUWRqOIa2jQYHQ4nPf74g7Q/M5OChYU05auvKL52bfJ6vbR0yU+kqgqVFhTQ4AEDiGVZuuba62jPrl3k8/no0J49dPV11xHLsnTDkJuo0HhfnnviCeJ5G916+62UdSCLwmGZCssKaeG38yk+uQ61bNOSduzaEZUlHQrpBqOmKJTRrQu53W769wsv0c5Nm4mIaNq0OcTzrkoGYzgcpvsfeIAYliWXy0ODBgyiE8dPEFE5fduxE8cpOTmZasUm0LtvvUM+n498Ph/NX7iQGjVtSjG1YmjGzBmkVTE2XKi4YAzGkXfeRm63m6ZN+/JsN6USPp4yhRiGoXvvf8CahEVNo7KzPHmYkxxZxoEWNaHphtjp16evSs+8HbJc2ZNFhrF2Jog0LP1+P2UfPEg7NmygHRs2UE5OzqlOjUJVhlIk8vLyaPvvG2jD6g20b+++KJoMIrLoIE5nMSDLYcu4C4fDlJubSzs2bKDf1v5GR48dPaWBUfF7KyIclk/qGdM0tVrjJZI0vHK7K3M+RnrTzL8rPlPnOk51zSZO9rySwcdpejdqUINIdOvVi1pclE5+n49ETSO/ptHUqVMpJjaWGJYlwe0mu9dLbpeLhgzuT4/c+zDxPE+800lrly6l48dzaPCgwZScnELBoE6jtW3jNmrWOo3cQh3i7XZq3awZ2dxuYlmW4mrF0dwZM6zvLy0tpf5XDiGXy0UMQMmpqcQ7HGR3OKhF27a0bWNlzx5VGNeH334zcXY7devalWJivMTZBOJsAoFhqFZ8HD334ovWTk2AiDZt2k4N09PJ4bAT7wR5YxqR4GbJ7rBT/z59rMWUpql00O+njI4dSbALJADUoEEDSoitRwzDU0pyHZryyRSSZZVCoRBdf+11VCepDoVCKoXDEslymO699yFy2B3EsCx1aNWSiIimz5xBbo+XJjz2YNQ1FWgqzZgxhxIT65DH66HXXnvNOhY5Zs2bMYPSmzQhjufIERNDjpgYYm02io+Pp4kTJ/7jiPjP+xhGPbaNsGn9TsTWikFK3ZSz3SwoigKO4/QYCknC8h9/hM1mQ0bbDhatBk8aONKAsygVRqSBSAPH2SDLBEAEz9ssHekzVZRj2Wit45OhIrVIZNa0ppVrqtpsLut/QI+RqxgnEllXhDQqPB6PLtV0mvKLJv0Oy7JWAPXJwvGSk5ORnJxc9UEAghEXWFEqqmJmLYyEGRN2ux2pqalITU09rTbHxMSc8riplVwVTMocgIGmmdRD+s0zaXRMGcaqUBWrkqmxqqoqRFGE0+mEKIqWfNb5gFNds4lTMUrx/LnFeFCDcwdjR49Gmb8ENrtgjf8jR46E3ePGwoULECwogtPrRfdu3XHNsGHgWABOFkW+EjgTEhAbk4g7bh+DHj37gMgGRVHQukNrfP3V95gxYwb27NqOQJmEhulNkVwvFdcMGooBQwZaCYoxMTGYMWMq/p+98w6Pqkr/+OeW6ZMeEkIJJBRpUlRsa13dtYu9o4iiotgLP3ZtFOuKYu9rr2tbde1tF6yoiICC9N4JKVNuPb8/7tzLTBIQlZLo/TxPHsLkzp0zM/ee8563fN9nn3mGzyZNoq6ujnBeHv132YXBxx5Lx+rqZsctSXamYlqhuLAMRZK4fORIDK2B/7z1EfVrasivKOGIv/6Zvxx4sDfHhW2L/v178cHrr/Piv1/h26+noCeT5BX8mZ79qzh36DlEo878Z1k6neNxnnzhOZ55+jm++3oyum4RkKG04yEcdvjBHPrXQ5Flp3hmyMmnsuvOA1GUDbnBY8ZcTeeK9vy0bB69ujvvZUD/noz722i6DOgJWetLvqmx3357MXr0WBLaeo4+dJD3foWwMu9bZdBxx9GxqhOPPfc8K36aDYpMfnk5Rx85iL/85SBUNdjsvP57RRKi9Qo9uAajpmmUduhA5/K2vPzyK/Tq3XO7jitbh3HRgkUMOuZo5sz+iSlTvqVr124AOZXC2wvbxut/LDJyNm6Rxrp165AkibgkkbJjBCLmZpzRqcCVZYNgcOMLr6tlmI37eTQ21jYYjMLTKRTCMRTdCjlHekdDUYKYZrpZLcKfI9tg/DXYtpnp2RpoohlpGAaSJHm9ZTe85+Z1EzeFW23dmF/SJ70+U6W5YexWjibjBmPyl1MPRDPXP1mFXz4+Phtw733DAFUVJJMN6GmdeH4+cmaOUADLMrEsnUAg4t2fhpFCVcOeriyAYWqkUmn0pI6iqsTyYgSDTvFH2tKJZG1MycwjeipFIBQiGottsljNiUQ6c++IESN46NEHePGFVzjqyCPR0klSiRTRvDzPaHLn8uyNqG3bJBsaMA2DUDRKKBT0NGcb91e3bahfX4Np2cgSFBQVIisbNHWzixQ39rluDHc9EaKprq+LaaaBMIqyYR0yDINEXR0oMvG4UxRpWRqqGsYwjJx5/fdMq/YwSpKEqqpM/mwy6fXrKendmy5dm98lbUuyF8gZP37PsqWL2HPAAM9YBBBiUwp424Zs20iSJG/c944fzyV//zvBjHSAnqglqORDSIEsba6iSKSJhqSqqhRnZGEM28a0bfKCQZRghEDMqdSzMBDYFJNPtG3uRKUQJBiL0TZRyNqSOiRJojBegqIGUALOj55IUFBcQEEgiIz7JqIUFKSQ5bYYkSSFoRIa6hpQ8iGfEsLhsGegGwZE4jKRokJCjSZSSZKIRCIkk0nvsUjW+0xhEEBBzbxuIOBOkAFPesXxgipomuP1zJ5MXBF5sqprG7Mc2JifPNtYFAI0TScQaCrPZFkWuq43EZRNpyEk50rpuF7bFUJQYqa8HbsrL6YoeNWb7uuaZtMNTzpdS164IMd97BuLPn9kEoClJ8hvZOAoSiTrHpKIxfKIxRzjzMg0AgCwrLQXsdC0OkKhfG/eyJZvC6ghAnmh3J2gO581muNqgVg0ulnedABdlwiFMvfxYg1bqMiZ+zoUjhIK557HnReyo0GyLBNvJiIiSQqpVArLsryIjCxDQXFTZQJFUWho0InHmxqLqVSKUCi0SWPRlf+S5WAmitb83JQdJVgLlGTktgpLnEYFDQ0NxOPxjLEIqhr4RRv21kyrNhhdZs13RKXL2rdHkpyQ4vZW90gmk4RDIX6aNYeamlr2P/zQTAcPCVlWvUlge3Z+cELSTpg3W2qloksX9t5lVywk0iKBbAQAAxUVExvFFmiWiQ0YyKhY6JZzLts0qckytnRTpzbpisEuAcBKG1i2o8IfnCmj65luAYaEKadBkZEJYGhJjGZEUV2hVFmWMSUJyTQxm3OUGwY2MpJiI0kqdkbPjJ/xqcuAEgo5WmWxGFLmKXLmX5U8pNg6YhQ2q0cZDAYJyjIpXSc/FkWORlGzjgqhomNRULjB4pKQCAZihGMqiixBnUwirFEQLXA2RqEQlmEQyEzyeaqKKkl42hhGjFhc9zYhQrZRIhIR4gQDzmublkk0oqKoKuG8PFJGipAcdM4bDhOLxbA1A0sILNlAUfMJqQaykuk0kQYloqKqjozPBoNSIhQKoShO6Lm6U2cqO3dCZHbmoVDuguXj80dACJuQZSCrjoHjNh3QdZAkxxNmWQa2bXhzr21LqGrMWxcCgTi27awTbnciwwBZbuqZa4zrbXM2eGkCgbAj8WVqKIENUlk/h6oaWFbAWVN3sJHetBFZ3aPc6I7bTcuJLgivy81ay6Aka6x25kfNzOHuptaNGLqGcK1tERduJxkV27aJx4PeZ9sAhIwUtq1457BtC9O0kGUJRQkghGOA6noCWY5lolIGth0gENiQfpPrDQXb1rDtIMUBgS0EDbLi6d3G43Hv+5EkDQgSDLZ+ObHN4XdhMH43+WsALN0inUwQLCz82edsbaLRKImGBr7/9ltsWeaIY47xbvBs46yloChhLxfj0KOOYr/d9sQEkqIeRQ9mBKgD6NgolsA0dUBCRyaAiWYLhG1jNWpDp5ma17nFxUzpmBaYlkUoJKNpmUlBkzCUFKgyCkH0VAOa2TQUblkWhmGiKCo6GgEU0noK96UVxQk9WJqGYZkodggNG9ty2g8KuQ5tbT5ywMSQTURKQ9M2hKRt2+m0UstqAslsg9FC1+vRjQ02pwzUGAa6YTizuiwTUFUa1iZI2wmQbdSMKzfV4HQJsKgHI0I6rdPQ4Lw/w04gmzIiKCESaUwhSGrOZ6eqKmbmczBN00t3SEkSqmmSytJGdBF2CttUEbaMEtIwU00Oaf46kMESKkrAzAhM5y5KgcxrZ3sO3XCWLMvIssK5Z57NdWOvJxyN+Maizx8Wt9OLu7Fy9RiDQbDtiPe4qkY9A8QJ/+qoagjDSGb+pmeMKDnnOHdO0HW9WW+h620TItdr5hh3MqlUikgk4v27Kdzbfc9ee6MNlujYsaO3jrl52LZtZZwiwUyKi/N4YdYOPZlMEopGM5vJ5sPHrgFakInUWJZO48w5IQRhSyLQyHMrywrBoJLxJm4gGIxlDEEAsdF0MMNIIsvRzOeP512IGLlToRACw9BRlBCS1DI7tm0NWnUOI5mb5aTBg3nr3RdRzRg33nAD519wwc/2Ot7arAZYvYpDDz2IRE0902f/hJzZ0TmTgoSuO250aTN3eluTDS0WW/5OyRlq7mXrhAZyPcsCkTlMyrw/N0FSgJ1pFyhlTtjoLhAIBHbmgNwXdw9NNDTw+jvvcMiBB5JfUIDr2pYAYQsETSe5DWfPHOe233PH6lqnovGzHdLpOiBEMKig6QlMQzgLQiCneQNKMkEDEvmywhothRJQSCVTBJQADevWES8upn71ahoaTCzb2dWHQ5BIWtTW1mIauYa6Za0gq2sYAOsNg9p16wjm5TkLgGkStiwOO+RQdt/rT63iWvLx2VpsLHUDNuRqZ4cyndy6DfOwu07YttMiVdfrCQbzmxxLo3k7O31k0+MT3uts7r1qGgaWbRNQVSQ5txd97tidxwwjN1TbuFVr9vPT6VrC4YLNXovcSGL2Z+gahc0t/873kcSyIoTDzrndtKHmxwdCmNi2iaKEc9cW77OXvO/ijzDftWqDUQhBqraWEwcP5s0336S8vJx0Msk9993PiScejyw7uyk352BzdlJbAsOwUFWZH2fMoO/OOzPsnHO5/+67tvrr+mxbPvtsEqeceirFRRV89OGbFBaVbu8h+fj4/MEwTRNVVUlkWoEqgK5bKIqrgGAhy26b1N9FUNFnO7H9XVu/kdXralizyml9NnrMGAqLivjbqKt57bU3EUJG0zQvmXZbGIsAsuyEWD/65BNsy2KPnQduk9f12bZ0qupC3z59mTLlS158/hUvROTj4+OzrXDnnRggTCfMoKoCWSaTExhGCEf9wMfnt9CqDUZJkqhPp6lPJWjXrh2nnHwcl4+6krXrVjHy/65k4mcTUVUVTXOS741G+XVbC0UJIEkS/379HTq0ac+Offpsk9f12bZUlJczfNhwAB567BF+mDVrew/Jx8fnD0Y4HMa2Hfkd14MoSTKG4RSjGUbK0f71NUJ9fiOt2mAEqKlZQ11dDV07tCcvr5gLzxvBFVdcxNIlSxl5xUjmzpmTJW2y9Q1G2xaYpqC+bi3/+/y/dO5RTWlF2VZ/XZ9tjyzLHHLkoZx29hCmT5nKPx96iHRqM6tLfHx8fLYA6bSNLKsI4cjFrK9JsGTJUiwrnZGei3g5hYlEYnsP16cV0+oNxvVr1lFXU0evnfp6j40adR2XXno5P86YwUUXXMCP06dn/rItKjZtZNni80lfoTc00K26mtKipppSPr8fJtx2LVWde/DaG/9mxvQftvdwfHx8/kAoihuGhoXzFvB//3c5hxxyCJMnf5mRqjE8g9HVgPXx+TW0aoNRCMHq9etJptP07tbLezwcDnPVVZdz3Kmn8v5//8uZ557LwrkLkeWtX8UkywqyrPK/zz4iFAjQp7qa8DbKnfTZPpQUVHHJFeezeuVqxl5zzfYejo+Pzx8E0wRV3bC+jPy/kTz82D+JxeO0KWkDntzVdhykz++GVn0ZCSHQdR3LtmlfUZXzt+LiYu649VZ232svvvzsMy68/GLWrVnt7bSSyaSnD5hOpz0x6C2Brid57bXJCFmiXrJIJTeEKROJhFeS7yrc+7R+jjz8SP7y57/w73ff5r4nX8XOksVxrtNWK0bg4+PTAqirq8M0NSzLzEjuCIRI5kiMHX3soVx12QhefeEFevbundGW9bst+WwZWr3BuH71amzTpLSiqaRJYWEhL/zzn+w1cDfef/ddbn9gAsmkk8cYjUaRZdnr77slW5gtX7aKdWtnoWs6/7jpH4y8YiSzZs3CNE1isZhX1RaJRNCyxfN8Wh2uZHab8iJOPfkE8mIx/jlhLPMWLsDdCti2iar6GwMfH59fT35+fqbjibNs65rGilVrWLp4FULY2LbFSSedwU033067Tp2293B9foe0aoPRtm3WrHQkdTp375zzN8NwvHodqqp44pln2WXAAO669S4effQubBsMQ/Na421pps34nmQqSbeu3dh99z2596H7OPWUU3ju2adJppIbFVz1aX0ITzQ8zKFHHMFfDz+YaT/M4MlHH8NMpSFTNW8YvsHo4+Pz21FVp5/xC8//i8FnnML4a8djmr7jwWfr06oNRiEEmuZ4DPOiucr22RICVV2rGHPTDZS0KeGKK0bx0ksvoqpB6usNZFnGMIwtGhqeMf1HkskURxx/BP/61wtcdeXFfPPttwwbdi4XX34FdpbB+EdoJ/R7JgRYVi0Asbw8HnnwPkqKS3jkkUeY8cMMhHC7HfwBOtP7+PhsFeozbZZkWUGSZObPn8+wc8/mvx9+SsddilDVsBd6rq/3jUefrUOrNhht22bp2hWUlZWRnx8nlcqWzZHQNB3LcnoE77/v/oy94kYCgQBX/20UEz/5hFjM0awKh8NbLCStaRpzZs/GtG0O3+dQCgsLufnm23n5+efp2bsPTzzyCLvtuhf/m/g/Gupr/RzGVo5hpAiHC7z/FxaUcfPYm6mrr2XcLbfQ0LAWRTGbtDL08fHx2Vzy8hyHiK5bWJZNLBbjmEGD+M+/X+Hi86/yIlU1QDwexLb9dcVny9O6DUZhU1+/nry8QmzbIhLJbdqpKFJOZfQxw09k3LhxzF+6hFF/H8e8hdO2+JjWr1/P4qVLCcZidO/Z1Xv8qBNO4Jnnn2fIkDP54YfvOO74E7n77vtoaGjY4mPw2TY4PUY3eA513cK2BYcffTiHHHYor730Es8+9Bq2bW2V1AcfH58/Bul0mvmz5xMMKiiKTHV1NU88/RyHHnk0SlZRS56J24x+ew7X53dKqzIYXbe8i7AE65euJxqNo6obNBY1rR5JAkVRgQ0GY1QJMGLECP7v4kv5/Iv/cuLxQ3IMtsbnTyaTGx2LpmmYpkldXV3O47X1tSxbsZTuFRVUdOzoPS5JEj26d+P228fzxksvgW0xZuwYTj3uOOb+4Gj3ZYuqGkYy86/hFcb4xmXLQpKc8JCLqspIEhQVFXH+8HNpW17GDeNH882XXyPLCppWh2FAKmWQTtdh244sho+Pzx+X+vp6bz0RQnjrjru2/DjtRw45YhCHHXEoX3/xqdfiT1WbLt+K4nR58XtG+2wNWpXB6LrlXQSChKVTWJibHxYKOcdJkpRTVKLgdHwZcfH5HH7Y/kz9bgbDhl1ATU0NZERNXbmCuro6otHoRscSCoVQVZX8/HzISOQIIVizag3z5yyg3592QZZlEkKgC4GU+bDj8TgHDxrE+++/y4Cd+vHu/z7hsKPP5qP330dWJIQQpFIpAgHntQOBAMFgACEE8XgcTdP8MHYLofH1JcuS99j++x3IiUcfw+IVS7jlzjtZv349oVA+qioIh1XC4XzA9hLYfXx8/jhkOwfy8vK89USSJCKRCEII8vPzWbZkCSMuHM6kTz4iXlxM+/aV1GaMQdNMNYlc+DWUPluTVmEw2rbtSdFkI4TAMFJEo/FfdL425ZVcd+ON7NZ3b15/4yXuf+BeUqmUo+loWdi27RmCm0skEkGSJJYtXkRDQ5J9d9rDeVxYqMJuUsXWr98AHnv8Kc6/6GzWrp7J6WefyR23jae+vp5gMIRlORqRhmFkdpTOxBAKhbaoBJDP1kEHrr3xRvr17ct/P/yAt//zFmSuZdfg13VHlCce/2XXr4+PT+umuY4r7nyQPUcEQiF23+NPXHXl5bzwxNNUdOxIUWazKsthLMsPPftsO1qFwejcHM0P1dbTSIFc97uuN3uohyzDgN4Deejx8VR27MLtt93BKy+8QjgcRlVVzyAzTRPD+GX9p6d99xNKUKHfwIGZ11Iz3V8ULMvwwgkAO3Trxk3X/YP7H3yAaDTKDTfexHGnnMLsH3/yPFeyLKMoQZJJP3bZmpAzOqC3jx9PRA3w9+uvp6GhAUVRUNUNxVY+Pj5/PCzL8gxEF0VRPCeI6zksLS1l1N9Gcf31o6nqltucQlXlZsPSPj5bi1ZxtWUbjLZteRqLtrBYkVhJcWnbnOMDgU3vugzDwjQt+vQbwN0PXodhhhh64XnMnDkT27ZJJJwbWVEUAoHAJs/VOCTw1Q9fUJSfT0W7dlnHkMkpCSCEkvOcWF4exx1/Ao8/8TQ9+vfng7fe4rjTj2TSF5Myu0zHOxmLOWH3Ld2VxmfroGZurj33/BNDhgxjwbw5DL90uOcpr611pHjcFAgfH58/DoqiEAwGqa+v9+aA2tpaHr7nYfr16c+Lb72FLQSGkSCeFycQDOXMFU6PaB3L+hnviI/PFqRVGIzZyLJCIBAhDdimSSiVRyzovA0hyBQSpDd5jkBAIRhUSAH77HY4N4y9kpAERx11FN99N4VIxPEANd4BZmMAViZ3MZsFPy2iW7fqHO+Ra98pCgihY5pg28ILOwPsueuuvPXii5x77nksmbeG0486k3sevpPamvqcgp4tKQHks3Vwuy4AyIrM4LMHs+tuu/L0I0/z/DPPYdsWBQWOFI+b6O7j4/PHwQ07O3n5Ats2uG3CBM67+DxkRaE8EEACgkEnXcVZ0ZzjyKw7khREknx9V59tR6szGF1kQDeSNJCiKFaQE4YOBCKbemrOOYKhEGecMYSh557LnDlzGD32euYtmAfNeA/JMhClzE8kEvEMVF1PMH/+HNq2aUswyzOpZkXMVTVEINB8ZnJ5hw7cfvt47rzzDojKXHn5lVxy2WVM//FHr++1i1tJl05v2jj22R5s+H4lSaJbl26MvHQkAHfffzczf5rp/T0QCGw03cLHx6f1kz1Ha5rWTKGKk3bUqbw9p599Ng889jD7HHCAl5ZkmhrYlnccmda2kuQXufhsW1rFSmWaZpOey0FA1KRw1GcCBIPOzfNL1l7Xb5dXUMSEf9zGgbseyOuvvcmEm2+FrBwzN3xIxkAUwkYYKUzdMQjcrjIzp0xH0zSqO3cmFAo184obkGUJRWk62Egkwsknn8y7b7yMEszn+Vde4uxzzmTBwgXYtuUZp24FtzvG7Ko7n+2Lk0KhUF9f7xmERx9/NKeccgxffTmZfz39HKZpejJOmlb/s+f08fFpXdi2TSqVyok2hUIhJEnCtu0m+fHnXnAujz/0EPvuuQ/JUAjXRaCqIcJy06iSbzD6bGtahcGoqmqOAWZZTug5EVAJhCxEbMvkcTz40oPsPnAgDz79NPfecS/pdBLLMigoKMhJUtZ1m0AgQna3N9NMM2XlOpAkyjp0IJ0bjAAAACAASURBVJD1R8Mgp9ilMZZlo+sb8hKDwSA77LgjqxcvZtD++/H9N1PZfbfdeefd9zF0kRlDroHYXNWdz/bBSYuwm1Q/P/jgE/TecUfufuABvpkyxZOJcmWgfHx8fj/Iskwk4kS7TNP0olOmafL5558z9Ixh3DD6BgRgZvLzhRCYpkWek77u5ev7+LQEWoXB2BhFcTyJVsZyDOpbxlgqaduR60aPpapTZ666+ipe/dfLCCGRSqW8JGXn9TcYd0I44suqGmbqJ28TC4VoV1qaE2YMBNhkqyZFkQkGlSbSO/F4nNseeYRr/n4lhm0x+PTTGX/beFatWoWqRkinddxIdWMPrM/2Q5ZBlu0m3RYUJcRVI69ECJuLLr6YlUuXZmST7I2ey8fHp/VimiaWZWFZlmc8/vTDT5x+5um89sbLWFYSkcmHF8JZIyTJRlGcjaeiRPCnB5+WQqszGHV9g8hxPgIC5s9WMm/ueeOyzIEHHsDo60aRTCa5ftxoPv7mKwKNwsuKEkLTNM9r6NagzJo6nXheMWVlnZucP7twZWMoyob34XZ6aVfclsuv+BvPPvo0AUVm3I3j+L9r/49EIkEwqGKaznFb4jPw2TLYNti2mtMFJplMEgqpHHnYIPb902F89fkX3DBmjCfW6+Pj8/tDURRkWc6JkOmKTudO3bn7/ru5/KpRyIBiakiSjK5L3jrg5L6b2LbvDPBpGbQKg1EI4Xlh3KoxgKQaQNghtHTuDZVtVG4u7nnVgMrJJw3m2pG3smjRMm65bgwL5s7LyaMUwiIUCiHLak4eyfzlq4jky+RXOBakbdtewvOmHIC2baFpJtlqOW6nF1WFQDDMIYMO4dP33mfnXXblyUee5PC//IXPJ05ElhxpBr9wouUgy873lp1XGo1GkWWJwsJ8xo0bQYcuJTz36qu89c67JBO+NIaPz+8NVwZn7Zq1rF292pND69+7Px9/+C5nnXEWkWgcXW9AUZz1JBRyolauFqMjxxbyvYw+LYJWYWVkG4zZ1NfXY6YtiDg3otsRJtuo3FwaN5K5ZtyFnHPOuUz8+GNG/e0aatet83aJzeUjGobBsmWriahxCoOlkMlhcROeN1UDY9smoZDarAirEM4PQFWf3jz08P0MPvUUPps6lTPPOY/nXnyRvLw8L+yRjVuR90vFx322DBvLK+3VdzdGXn4dNbX1PHDPvaRSdd731FjKqXGFZXMYhuHdI9kdkUzTxLZt/xrw8dkGZN+f7tz7w8wfuOmmmxg6ZAgL5y1s8hzbhkAgnmMQCuGEot3Ig6r+smJOH5+tRau4DGVZ9rpjNMUkkKl33lRHmJ9/DUc/z61CVtUwV15+Kfvutx9vvPovRo8di6Zp6LoTXrYs3TMcLctg+eIF2FaScDxCQVnRL3rtTYWrnXw493eZ3j17c8eEO7n71ltZvWoFF190IaNGXY6maUiSlNOX2P3MfN3GlkUqZTBs6DCOP+kE3v3gXZ5+/HHIfE/ud+UmyAcCAUzTRNd1VFXN8Vq7Vdbucxpf/7Ise4uOfw34+GwdDMPAMIycNUpVVdavX8/Iqy7n7nvvZtqPP1Jcmk+9U8uSdZwTocq+PbPnfB+flkSrvSx1vYGQVIYaEWhJxyvzWwxGSRJIkuxJ5KTTtXSorOT28eOJFxby+GOPcd9ddyFJBrYtsO0gsqySTgsUJUB9nY4tBKFAiFjY8SzZmZBEthG3JSgsKuLs4cN54IGHiUXj3Hzz7Zw7dDgrF9USi8U8na9kMvmbPhOfrUMkEiAUCjH26qvpUN6WkWPG8NOsWRiGjrAFdkYuSQjhGZGBQMDLh3K91m6VtWsYut+1+/03ftzHx2fLEwgEvPvTsizS6bR3r0ZihRx+7CCmTJlCYVEpcSGQfKF+n1bKxtx2LZ5gMI4ILMbSFdTob18MTTOdI/gdDjudOPr06cNTzz/PWaefxoT776Frzx4cfNCBKIpzrKKkgCjLVy/Dtm0KS9qRn58PQD2CuG02kVfZEqiqyrHHHkVhaR5j/n4DL77+LGmzgcuuvIpdduqLLAd9qZ0WimmaKIpCZWUl5wwfzuixYzn6yMMZsMcAqtp2obxnD6ralFBe0ZZ2bdpTUJTvpUNsrLhJ13UkSSIQCJBOp72KTPdvwaDfEcLHZ2tTW1NDLC8PyzLIyyvkuaef9nQXAUxTR1X9e9GnddJqDUYAgUANgcRvrzINBCII4Wg8ugULrsF1yIEHcsvNN3PpxZdy4YgLeeWFV+g/cKfM85zilBXrVmPZFhVFhd45CyQZlCCG4UjrbCnqgDxhAxYHHXAQPap6ce3YUTz3r+f4btp0Ro+7jmOOOOZnxcN9ti/BUIjBQ4bw79df54svvuTH2YsBHRkoLCmmpLSU0sJSSstK6N69J926dWGHqs706NWLcEUFhYqCZTm5ia4nkYz4eyqV8oxGvwrbx2fr4RZEPvvsE7z04qucP2IEhx9+KGRt8NwcYkUJYRgJgkF/M+/T+mg1BmMqlcpUJm/wJsZicSBETSKVdZxBKKQiy79skdQ0pzDFTUNp7J07+ZTTWLZ8Jddeey3Hnn4yE995hw5VVd7fdT0NAqLhpt7O32IsWpZBrbDJV0Pel5UPIMle7mOn6o7cd88jVHToxITbxnPeGWdTc+0yTr9gKPF4Maa5ZQ1Wn19POp0gEIh5lfXtKyq489Y72W2f3ejcpQfjb7iemjXL+HjSl3w6aTKf//R5purpjZzzVFZWsluP3dhn0AHsvvPODNhlQE6eYraH0Zdc8vHZeqiqyqhRo5gwYQLhcIRTThuSI5Gm6xsMRFnGNxZ9Wi2txmDMXgDJVJdFM27+sJl93K9bHEMhR/swEIhmhLhz/66qKuecdRZTp33NC8+9wqhrrmH8+PGUlZcDkKxtQAibWHGbnOdZloEkycjNtHbaHBQlQHGmWwybeGuxWJjRV19Lj8pujPnHrVw67nrmLFvOpVdcSGVlZ0zT9JKy3ZCo73na9oTDMUxTQ4ig9/nvuveuXDfuGsaNvYGvJ0/kxttu56wLLgBg1apVzJj2PbMWTGf2D4uYNXMW69fXsbZmBR998wkvffgKwrIIRKP0rOpMde+e7Fjdi879OtOxqDPFpQWUFhdTWFhMNB4lEAh4ldOKonjV1dnGpnutuGE0WZYxDKOJ4bk515RlWZ7307Is7/jsMfj4tCSyr2uX7OtfCOFdy4ZhYVkG+YWF7L///lxyySUcdNBBmTxiCcvaYCDatlsBvV3elo/Pb6bVGIyNMc00Zibkmk5vmaKSbO3DbJLJJNFolKLSUsbffBc1tWlefvll2le25+YbbwEgkTARAora5OYrZu80f9vYfv6YUCjEkGFDqOxWzQ3XXseEe+5g+o9TGHfjTezUf6ctMg6f305zVfEXnHMBH787kfsfeoSDDzmMfQ44AICysjLKDjiQ/TkQAEPXWLVsPavWLWbFynWsXL6E2YuWMuunH5n74zQ++s87vJZ4GSSJvGgBbcpLqChrQ3FpG9q1b0dVVXd6dK+ic3Unqrt0IxZ1FrPsELbISsoXzSTou8e6f9M0bbMMPyEEmqb5+ZQ+LRr3uk6n0zl9oA3DyNkUOcoUKuFwmCuvvJAR519IUVE+lmVljMrcvHi/7syntdNqDcZAIEgkEiEvEqE2S2MunU4TDAa3aFVo9qRR0aGCe+66k+NOOJa77rybLjv0YtgZZ2Cm6hFCUKwVbLHX/bXst/eeVD3+KBeffz5vvvcey08/g1tv/QeHHnEEZE18Pi2HkpI2nD3sHEaMOJ+Tzz6bqZMnU1pa2uS4QDBE+87ltO/seLaFbaMZJmktjZZKoWkaS5YsYfLnXzNt9jQ++99EJs/4Ar3e8RQGgyHC4RChUJBgMETPnjuw224D6d9rF3bda1dKSko8w1GWZS8VJBAIoGlaTl931+MSCASa3G8NDQ3E4/Gc68z1brrn9vFpibjXdTAY9NaTQCDgGZJz5ixm5MgLGNh/T0ZdOwqAcDCfUGZTv0Hmys8h9/l90WoMRtu2kSQJIWxs20BVw071mWXl6FplG3dbAsNIoaphdMAAYkB152rGXT2Oc4cP4+Lhw+lYXM6S9UuxhYXaafsbjEgSVdXVPPfyy1x3w3U8fO+jDDrhJJ564D72OuoIKuJ5fji6hSHLMocdfCDP7DaQd99/nwceeYCRl40kENy4a1kIQVrTiEQihENByFTnV1ZWsueeewJgApJlMfWrr5m2cAqffjSdefNmsmzpChINdUyZMpWJEz8jnXY6S0SjUfr370PPAQPZtWdf+gzoQ0FBAbIi06a0jHgsRiAYyKnKlmXZuz/d66qxMoBlWZ7UiI9PS2aDB91ZT2zbaYig6zqfffQRB59wAkYiQZt2nSCro4ssy1iWhWmahEIhEonkVlHI8PHZXrQag9HNGZFlxcsHlCQJVVWx9K3XWs0NKQSEjSpskFVAcMBBB3D13//O8BEjuPiKSyguagtCahEFBrZtIssKsViMcdeOo0vHntz6j1s4ecgQLr3wfEZcfBlV1dUYhuGHB1sIQggKigu5fswYPpw4kaceeZI/H3AIAwf0RiKILNvIsprJOTRRlACSJDXJ7W2MDkQVhZ322I2d9tiNM05yBOpr16RYuOgnlq9excKFi1iyZBEL5y5k2ZoVLJ0/nycefZRHMwLh+fn5VHfpTIf2nans2IHi4iJ26NaV8o4d6dCmHR06tycYdDyW2RI+QghM0+n13tirbds2tm1vQpDfx2f74N5TliVQlA3zaSgU4uPPPsM2DBRZpkuHTphmGknaMOe7xqKmab6x6PO7o9XM1s0ZYjLQJhxmfe3anMfdcNiWRcp0dpGQJJlgMMiZQ4eydlUNo2+7ljlz5zSb77UtccOH2Tly4XCYoUNPY6edd+Tc00/nngce5vPJ3/Dkk09RXV29Xcfrk4ssKwwcOJBbR9/ElaMu55knH2GnvrcTDDjXXPZxm0vASKLZ0ZzWlJIkU9gmRmGbAfTLPGZZFsmGJEktRbK+nrpkkpVLlzL9u+/4af58Pv3iG95+7x2sjGcxHosSicWIhqLkFeVTXVlJj55d6dKjP3369qN7pw4Ul5SgKIqXA0zmGg2Hw76YuE+LJxh07jOns5fjObz40kvZ/4ADeOr5Z6nuVoUsBxDCiXHpuuJtgPyNkM/vEUlsbyvnN9DQ0MCuu/2JtkUlfDTpI4SwcxbWLYltOz+N5wFd17nub39j/F13YRgGjz7xFGcOPg1wxuJ+vNsyBKzr4DoOhbCxLB1VDVNXV8dJp13Ax++9iB0M8e9nXmTfA/clEolg23bOAp49bvd3N+zis+WxhCCJIE+S0bQ6/vznI/nq2y+Z+O437LR7pxwpjiQg9ASxzGNu2oQkSZhmGkUJZjyRhte5qDk0rZ5QKG+zx6hpGjOmzGDGj1OZNHUq337+OeuXL6curaHpafSUiW5pXk/zXfv1pVu/PgzovQu77VdFSd6OFBbFCIdChIIhgsEAciZM3bjQxg1zNw53b+o4l8b/b/x44/D5pp7j8/vGDSfTTF7twsWLeOLZx3n/zU/4+OP3NmkETv1mKiMuHkbfgQO5aPjFVFdVNXFyZM+p7jWY/Tf/+vNp6bRqgzGRSLDP/vtiWTLfffMVpqltsi/z1mLFihWcfuaZvP/OOxxzxDHc+dAE2pa2QVXDnlfy18rqbGlq16/lwbvv4tYJ92ALwbnnDufSSy8hPz/Py/90ixuEEE7IP1P1Z5rmFs8R9XFw+pibBAKOpf/mm29y5plnUtm+nA8++IS8wmJkWUKSQAgLWW4ZHoxUKsW8WXOYv3Q+y2etZf6amaxYtpLlS5eycO1a1sxbRE26FlMzCQRitK9sS5fOnamurKKifVvalJfTrVs1BflFtGvblrKKikxxTtDLJXP7aLvyPrIse79nH+eSXd2qaZpXpNP4fGQMRVVVm1TE+vwxsG3nvhNCeNeJK6Fz+imDefbFV+izU2c+ee9TCgsLmz2HZdl88803XHblpXz++VfsvuvuPPXUE1RXVWUcDQaqGsCyLCxLEAio6LqGLMtemoZpmn56kE+Lp1UbjMlkgoMOO4h1y9cwY+ZMAExTy+R3bd3dWioTz3f3kP/3t6u485bxiKDKiOHnMWbsjUSiMSwLhEjlyCtsDwxjwxjSySSff/kl5557AYsXL2Dgvv144s7HaV9V5WnzkSWD4ufibH2cLkO6l6NbW1vLORcN5aWnXuGWm2/n0ssvJp1OEY1GEcJuMRuQxliWia7p1NXWUpNI0LCmhiX1K1k5cx5z5k1n8pTZzJ79E6tqajAzKRSFhfnEonHy8/IobteODmVt6dqjK/2796B3nz6Ud+hALBbLCW27uEagsxhbBIPBnN+b09RzyS5WIBMtkGXZDyf+Qcju5pWNW6A1eOgwykJ5nHXJmfTaYceNnse2BbZtsXDxQqZ/P5VkncagYwdl7lVYu3YNhmFQXt4G2xaZ9anpeRpvfHx8Whqt2mBMpVKccMIJzJ4xg5nz5m3T1zZNMM0GwmHHmBp33XVcf8MNmXBchGf++U9OOfMk7/h0GlqaA2Pu3NkMHnwq33w+n9LONi8/+Rq777339h7WHxLHw6jlbCzeeOcdTjj6aHbotgNv/PsNOlZ13K5j3JKsnTePT3/4gW+/+YaPPpzErDkzWLN6NbZpNjlWjUTYdac9+PMBe9G1ujsDdx5A+47tKShoAYoEPq2a+vp68vLyaGhoIBaLkUqlmmxKfi1C2Cyfv45TTz+NTz59lwvPv4TrrhtFSVlZk9f38WkNtG6DMZ3mpJNP5ovPPuPHlSsptM1tHqqzLEe5/8Zbbubaq6/mhOMG8e2UGcxbPIt7bn2QIcOGtBivRSKhEwo5+WJufs3KZSu5esz1/OvZZ4jnxxg16m+cdsppxPLyvONM0/SKFHw5nq2DU0XseB4kyanMtG2VE48/mrffeYcbx47m/AsvJhgKYVnOMS0x5akeyF7+LCuTLyhLGIAbdLMzP6p3nMGKxUtYsGAZP86ZweL585k+dz41K1extqaGtTVLaahJU59IYNs28fJyurYpoapnT/rv0Jf2ndvTpqyctuWlFJW0oaSgiHh+3JP+cT2NbvjRvf4ty/Kv6z8ohmGgqip1tXW8/8H7vPnOO5x9+mnstc9+Oe38yHTa2lwBDF3XPQkpK53krvvv5YknnmTp8pXceuutDDn9DLSMHBZZfaazQ9Q+Pi2RVm0waprG+cOH8sIr/2HVsmWEQgEUJUAqZfzqFoG/FNdgvO/BB7jkwosYeuYZHHjAQZw97Gwi0QgTJkzgqKOO8vJjtgeGYXgSRImMlmQ2iUSCZ//9b+688UYWLFjAwX/9KyOvv4m+O3T2wnqSJPntBLciTl5dEMtyFibLcgzIuT/9xH777U1ZRTteeP452nfo1CLCVlpGpaDxXWaa6ZxCm2yDUQfcu8DKGIybukt1XSfRkGDlqtWsXDOfmlUJlixbxsolK1i8eD6zZs9k1ux51KxfD5JEQUERRYVxSsvaUlZcSn5hPt2rqmjfpQtdK6vo0rkjeSUl5Ofnexs4t3WhX3Dwx0PXdYRt89jDjzLqmqsxJfjnA/dz/IknbcazN+DkqYMsq55h6RaiCWGhWQYL5sxl3rwF7LzzzrRtW0FDxsv+8X8/pE/PAfTdqa+fw+jT4tn+bq/fhARmHL1WQpJ0FMUJJYTD2+Zt6XoDwaATkm7fsRJFUUgt0zn62KNpqFnLmeddyd//fi1du1ax8867bpMxNUe2d7M5UyMWizH0pJPYrWcfBp81lJdffZXvp0/j3nvv4cAD/9oitCV/77iLhWuPW5aOogTo0r07QwYP44Z/3MjzTz3L30eP3r4DzZC9tGV7YxRlw8aorq6O/IyYOFnGIoCS+dnkawSDBIuDFBUX0YPuXs6hbduezIlpmixYsIBZU39k8vQv+fzjicxbvJivv/oqMx4FWVFQFQVFUWjbrh3dq7rTp19XdtlxZ/ruMZA2pWUUFxShaU4hgn+9/zEIBoNomkZdKkH3HXpzx01j2PVXpORI0oYr2Z1qXdUCSVKJyCo9e/ahZ88+3nFR4N5XXuG6a68hHAgx4sIRXH311X7hlU+LplV7GE3TZNy11zP6phuYN28eVVVV220sU76awt77702//v344IMPiEQi3Hb/GMZcdRvdulfx6D+foFfP3siyRDqdJhaLoWlpgsHQdvNuOF+9wDTTXh/ttWvXMvayS3jyzf9gWzYjLx3JacNOoaykglAoSCKRIBKJeJ5G27bRdd3T1vPZ8syc+RPHHXsqsxfPZNq3U+jetWtOEZMjHhxCklpuMcy2xLAM5i+cz6oFq/h06qfMn7WYhUsXsnrpUmob6qhd30BDQx1pXUe2LIpLS+lU1Y0eParo1aUXnbtXU15WRnFpMYVFJRTlO51uotGoJ8ujKAoNDQ2Ew2EvxJ1dbOMWVLiFDNktEd3H3GPcEKYbjnSLLkzTxLZt3/O0mbifG5l5yTAMQqGQp8ubTqcJhUKsr61DCYXIj4Qzz9MxJYXQNrx3hBAsX7KMu++9h/feeotddt+FG2+4mVAkQjQapb6+PiOGH/Q2R9FoNEeOR9M038D02aa0aoPRsixuueUmrr7mGr6aNJld9tglU2mqbvUq6cYsWraI3j16071rd976z1uUV5STSqa45aabGD/hdrr36sHdd93LnrvtBl6RgyPpsb3sLCHsTKtF1dsZa5qJEBov/utl7rrjLr797lsOO/pgLj9/JHvtsydqJh/MzftyO3n4bB3qgFBa4+abb+S2Cbdy8OHH8viDDxKLxRDC0QZVFKcIy/Gy+8ZFcxiGQc3q1Sxbs5xlS1azatVKlq1awdKFi1iweAnLFs1l2Yo1rFm3DtswKCospKRNCaXlFVSWt6OorITqjh1pX9mOiuoedC4vo6KiLcFg0JOf2hSuNuWmctRcQ9KVdcFLVVD9kPlmkN1laGMySZM//5y7772Pfffcm8FnDSEYco5PbST6srVw515NVqmZvxAjP0inkgoAVqxcyQMPPsiyFSsYdNjB/PnPf/HSULLnXr9Tl8+2ppWHpCEYjCNsldU1qyGTRwJb3wJrXHhQXFiMLMnomk5DXQPlFeWEwmGGnXchcxcs45ln/slVIy/nkYceoUf3HkiSjKpu30VAkmTPsHbD66oqoygxTjnpFPru2JeLLrqSt//9Hj/8uIBbrr2Mgw8/nXg86Emc+Mbi1iUCBMIhTjzuOJ576WU+fv99pnz/PXvtsQcAQhhYFqhqANsOejm1PrkEAgHK2rWjrF07+vd1HjNMg3QqTTKVIplooKamgTV1s5n2+QJ+mD+bWVO+49vvv+frukmYkkQkFCIcDRON55MfDFLStSu9Ksqp3mEHBvTema7dOtGhqopgMJjjeednDEUXd/HPvqecDaXvud8csrUM3c8wW4rpv59+yrAhQ5i7cCFlZW28Di1sY2ORrLk3AoSrOmFnFdYYmsFH73/IV59NYtInH/LAAw+wzz77Q1Z60eZsUnx8tjSt+oqTZZmi0jhyQGLZfEdWZ1t5FhvP//FonILSUhrSCebXr6MzXVBkifbt2/DUU4+QTCZ5442XuOySy3j00UfJz88nGo3R0NASZBVsLxdTUZzPTw2o9O/fn//9731uGjuWf9x5J8efPIzBgz/gmmvGUl1d3UTHzmfL45oOPfrsyKknHsMN143jmWefZeBOOwFBgkEl01EIwEQIq1G24B+Xn2sRGlADBPIC5OXlIUQZTkZLX/66X+5xs3+azZwfZvHljMlM/e57lny/kBV1y1n+1dd8p6fRNB3D0JEUKC4ppEvnPvxpz4Hs3Kcf7asr6dqtG8FgkEg4QjAYwDBNb1zZY8wOV7v499bm4xqG2Z9pNBr1cmlXrlyCrutcfsEFXD16NKGWEs4VTgGZEnAMwbYVxbz62is8/fTT/G/SJPKLSrFtJ30olUrR0NBAXjyPcCSMnSk+8/HZFrTqkLQQgmeee4ZhZw/jhutHc9lVV23T13fC30EvLHjcoMOZ9OXXPPHE4xx00ME5nWfWr1/PlZdewbPPPsWue+7JfQ8+SPcu3RFi+3SnIZPn43Y6cD0hTrFFbphDS6V4++23mXDXXUyc+CU7D9iRERcOZ9BRxxCJRPywyDZi4byF7LHXXpS3KeWZZ5+hZ6+e2LaBogRJpzXCYd9QxBNSFqiq7HUo+jlPuGk2bfvZHELYJPUktUvXMH3JatYtm82iRUtZuHABq5YtY8WqVSxeupL169dQW1uLEgxSmJdPhw4d6NGtG+0r2lJRWUlFRXtKKztQWVhESRsnX9KyLE9NIbtDjc+vwzTNnM/UsnRWLFlGeafObGxbZdtO6sC2zAXOTi3ZGOm0iSRpPP7400yYcBd7774nJ596Invsvz9hP6Tgs41o1R5GSZIoiucTCQaZs2zBdnh9BRBYVhpFiVBe3ZH0x/+jdt16yJp0DCNFQUEB1467jvrEev718qtccMEF3HvvvezQtXqbj3vD+B05kexcn+yKP5dQJMJRxxzDzgMH8tiDT3L/gxO4+JJLefvt9xh9w810qCwjovpFL1uD7Er8TtWdOOfMYYy7ZQyTPplEr969POM+GPxjLxoGYGZCi06qyIZrcXO8dJsb3ZMkmVgoTqw6TkVVJ0yzD4FABNM0aairo66+nvW19SQS9SyaP58f5kxj9syFTJnyPW++/x6J2lokSSIWixMrLKQoGiG/OI/ORVVUDuhO96qO7LLjAEp36ExbuRzb1ggEAr6ncTNx25quWbuWCffey9I5c3ji6afRNItwOEj7Tp2h0cJnWTqS5HRY2lZzWLauo/OSOrbtjMG2HSMy2w4Mh1UsS6JrdUcqivN4+PFHsCSLP+2zj5+D4rPNaNUeRoB33/2AwYNP44AD9uS5516BjOdxexgvd9x7H1dcfBET7r6b89LpBwAAIABJREFUc4aeSiiU3+SYVYkazj72JN58732OPuII7rn/EcrbFmf6jYapra2loKBgu72Hn8O2bf43cSLnDx/OzJkzqaxsz3333c8Bf/4LkhzCspx2b7Isk06nUVXVy99y84nc6k/fg/LLWbBgJvvuewDRwnymfzMNJSunyTAkfGdvy6VmlU6d/T2fvTubyVM/Z/Lkb5k5bz7pujpMy8A0LK9vewgo6tiJ3Xbdmb122pk+fQZQ3aML0WiM4uIiDF0nnpeHoigkEomccKyb4lJXV+f97s4lyWTSC3lLkkR9fb0XvpUkyZt/3OPc52UvE9tzXrJt2xO93tRYDz/sr7z9zodUVVXx7bff/m66ArnfwrRZ31OUX0THio7U1taiqirvv/U2FR07UN2lmpKSUpLJJPF4HF3XPR1eSZJIZVpyOnOGQTi8Yd3x8dkUrd5g/OyzSZxyyqmUlXXgq68+Bdgmwt22jdeVw+Wjt97nwMP+yo1jx3LlqFGA0uzmb82aNQwfPpw3336bE486iNFj76RTVQfw+ttaGIbVYg0qDVgydyG3334Lr732Gg0NCU469iSGDDuLnXfuj6KAogQ9UWRJktB1nVAo1Gw/YJ9Nk13IkkwmuezKK3jkwYd45vFHOf6UMwBIp5NEIuFMTqnvcWgtNDQ0sGLpCmYtnsrcr5cyb9UCli9fzqqlK1hbs5p1a9ewat16DF0jnh+loqwTvXp2o11ZW9p3r6KyfSUdKtpTWJBHh3btKCwpyQm/G4bRbAeR7CpiNy1lU6klrpHhivhvr2I3IQSWZXkFH9kV5bZtI4RA13UGHXQiFVUxLrvi/+i3Y7+cc7TmwrCUDaoEgUY2+6yZszj+hOOYNm06Rx55GOPG3MqO/XrlHJM992ZXlPv4bC6t3mD89rvvOPnkkzE0jXnbsJ+0aToTcfbivHTRIjp06sTQwYO56777CEfiORNTdkeAOXPmMHzECD547z1OPPE0brnhesrbVRIKKQhh5UjdtFRSqSRvvv4Gd0y4nS++nMwOPXoz9JyzOO/sM8mLFzTbRcM3GH85up4mGHQWdyEEb731H4YOPYsOVZV89O5H5OXlIcuuVIdvMLYmsvU0ycjvpNNp1qxcw8p1q6ldu4a562pYN28+P82ew0/fz2LesrmsqakBXYdgkA4V7SkrLaa8TRuKy8ro3LkLXbp0pGtlb7ru0JGSsjIURdmsvMjG96dlWdi23cQIbUkGo6tV6RbhKYrCwnkLyCuIUFxS3uQcrdVgNAxn3JLk5Ny6X0EymQQheO+/7/HMsy+RXFHLzXffyo49e230+xRC5BiM/rzsszm0eoNxwdwFnHDCCUyfP4dVixZtsipyS+J+bJom4aYACiHo1bUr8eJ83nrrXdq0Kcs53vV8SpKEEIJly5Zx9NFH880333Dw4Ydz/733UtnB9TSy3fQZfwm2bZNKpbjjvvsYM3o0Qtfp07s3Lzz5JJXduqGqKqqqNgmL+Gw+2ekJQtisW13HYYcfztTp3/L8c88xaNAg0mloKUWfPpvGtp0fVf359BnDAFkF7A2dbQzDYPXq1fww9QcmfjeZ776YyBdffEMikYCMhI+iKKiKiqIqVFRUsMMO/Thw/73YpV8/evbfkbz8fK8gJDvM644nO3TNdg5DN4cnxg1M+uQTxlxzDTePvYWBfxqAogQRskICaJoU5OC07gttc73e34Km1XlpTtnrg/ud2Rnvqm1ZhCNhZEnGNAwm3H47jzzxBGeffz7nDRlCLBbzvs90Ou3lyLa079in5dHCfVg/j6oqKKpMqqYGLZ3O5GzkNo7fGrg3V/YiLUkS/ffYlf+8/h9qa+soaFOW1UJNIhwOIknQ0KATjwdp3749b775JqcPHsyH77zDGYNP5v77H6Rz52oUReR4HloKbgcF27YzC4xFJBLi6iuvZO/+O3HL7RP46JMP2GXffbly1FUcf+Qgunbp5u1mTdP09cN+Ae7nZZqO5qcsy5SUFXLWeWdw7tmf8frrr/HXvxxIJBrDti3fu9hCye7nblkbvIq2LbAsm2BQQW/UchEcL5Jtm8iKkwvsGHgmhYWFdOvWjUHHDYJMwc+aFSv48tNP+WHeQn6cNpXZC+aTWl9LXWo9Eyd+yH/eeQ3bMAjEoGenflT17seAPl3Ys29f4uXlFBTmE48XUFxQSDQeRZKknO4pLQnXMfDyM89w0UWXYFgac5ctYM/Ant4xecJGIDVrCLXEufXnyM6JNwynGM7tXgMgSxLhrIpwW3LckQE1RP36Oq688EIWTJ3KPQ8/DL5X0edX0Oo9jGvXruG4447jk0/+y0/TptGtT5/NeNaWwQ3xuInqqqpy/z33c/6F5/P6K69zwNFHELZNQEKSFAzDRFGkrBZgjhGwetVKrrnmOp56+im6da1i/I13s/8h+7TIifrnWL1yNa+8/jL33ncf07+bRu8dd+TkE09i6JChtG3fFk3TAFpsfmZLIzuMaJppVNXZoSxbspg+fftR3aWaxx97nD59+mCajsyTX1DbsmgcdnZpLOWTAJrb5mbLczX3fzJ5xcFGLQvqTZPaJctYvn4Ji+auYumq5axcuJD5c+cye8EcFsxdyJr160EI8vLyqGjfljZlFXRq14E27drSpXM3qqs60KVTJ9r26EGBqmDb5nbvJmRn5lRZVrj77jt49fU3OXPomRx35MkEwxayrOZ0/Mr2Im7su2gtZL/3bNxrqfE1JYSgvq6Wr7/+ju+nfUfXPn04/MADAUg0NPDVF19QWlrOjv133NZvxac1Ilo5qVRKHHnssQIQkz6auE1f27IsIYQQtm0L27aFEEJ8PHGiCMbjYsQF5zT5W/bvzv+dHyGEqK+vF1dccbEARGWHTuK1114TQgih6wkhhBB1dXVCCCHS6bQwTXNbvs1fjG1bYuGC+WLk5VeJ/PxCEQwGRf9+O4uXn39RiKzPTWTed/a/mqYJXdeFEELoui40Tdsu76ElYttWzu/Hn3q8CEUj4tHHHxe2bQvLMoRhpLfrGH2akv295T6+rcdhC13TRH1dnVi1aqVYvGiRmPXNN+KxBx8X51x4vvjTbgNFphBXIEkiFAqLwsJCUd6mjehQWSkO2+NQce3oq8UrL74mFi9eLJLJpBBCiNraWiEyc7FlWd69nP23RCLR7Jiy57Pse18IIZLJZM58WV9fL9Lp3Hk0kUiItevWZs2xVubvG/vMm3+8tdB4DdnweO6/G8MUQhhGSti2JabPmCFKy8tFWZsycepxx4k1a9Z4x2XPvaZpinTamVcsyxKpVEqIrO82+/fWsD75/HpavYfRMAxOOf10Xnr+eV576SUGHXvsdh3Pj9N/5NijjiGUX8DXkz/dLC+hG0JPJg3uv/8uxt0wDlmWeerpZzhgv/0IBINeXlEstnVD7b8Wp8BFIISd44H49stv+dt1f+Prr79i7boajhp6Flefdw5dunahoKA4J1yUHf6qr3c64Ni27VVa++Qy6aNJHPDX/TjnrHMYf/cEAgHnc/c/Kp9fi23b/8/eecdHUeZ//L0zW9ILSUgj9B66dEGaNBUB22HvnmIvp/7UO/X83f284p139oJKEVHBBqhgpfcuvQUSEtLbbnZ32vP7Y3eWTUERkWzivl8vXmx2Z5NnZ2eeeeZbPh/27NzDps2b2LNvO+vWbaHgeAHOqmpqPG6qqqtRPL4sQUpqKn379mBArxGc068zrTt2pEWLRKKioomNicXusGO1Wmudw6qqBhouXC7XSecz0/HGMHSE8EXaS0pKef2lF+nUM5srr5gWKHPxWfyF54ifS0V5Oc/87//y2WcLsUoWPvl8CW07tMXhL4URQuD1ev2+9T5Hr5O5J5lZtmCh9DDNjya/YAS49667+O9LL/HCay9z1213NOpYigoLueH661n6/fcc3r2bLJ/fWK104o+haRpvvv0mf37yLxSXl/D3vzzNddfeTIvkFiE9IQbLdNRF0zQ+WrCAt+fM5MtFX5CSlMSFkycz7aqrGHHuuUiShNVqQ1WVepONqqqBppnwRFQbp9PJ8OHDKass44dtPxATE4sQhFPSYc4oVc4qDu87QH5RIfsPHSQ35yjH8wo4lHuYwwcPUlxegebxEBkZSdu2rchIb02H9h1okZpCzzZtaNmlIx3S00nPaosk2QIi86fStW3Om2vXrueee+5jy5YN3H/vgzz51FM4IsBqjUDXVX/6OXTnx1DBp6RgYBhWwItudZCzZw8el4sefXohy77W63feeYfd+/Zx3rBhjBk92l93rtcqhTAbZvDP0yeb/8M0H5pF90FGpk86Ie/wsbP6dxvSe0xIiKdtx/boS5eybfPmwIJRkk6+q3XdJ9hrt/vuyK+76lpaRCVz7e038udn/kJJYSmP/+lPREVHoyhKoAsylIiIiAhEBepGDmRZZurUSxky9FxWXrWCZ5/9X2a+8w7ffPMNI0eOYPqddzGgX78GLx7mhBRqnzcUcDgcjBkxgn+98AIrvl3B2AtGNen6rDBnj2BnnJ8iLiaO3v360RuY6F/ouapdlFeVU15WTo3Hw96dO1m3bhU7dh5k9fZtfPPtN1hkmcSoKGJTkkmMiSE6No4BfXqT3SebXt3OoXN2FywWSyBSGNwYZGLeZJeVlZJXeIzb7r+G6dPvICLShsXii3XIsq2WI1KYH8OCxSL5byp9c2rHzh2R61yfVi9fzpszZ/LurFk88cQj3H773RiG7zVFUfw3+dag5s/wYvE3QWPnxM8EL73+kgDEvfc+5KvlauTx/Oe554TDbhd33nlLg/UmDaGqbqHraq3ntq1dK1qkZwirwyGm3nKLcFZXB9VN6oH6xlDkZLU2QghRfLxMvPD8P0Rqakthla0iPj5ePPzwfSIvL084nc5AHdOP/Y4wQuhCiLc/+kjExcWJyVMmhvdVmNOisrJSOA1DeBs4flRVDdSvnSper1ds3bhVvPbmW+KGG64UnTpki4TYZBEZGSlsNpuQJEkAwmaziSFDBoi7H3pALP5osdh/4ICoqqoSNTU1wuVyBWoYdV0Tququ93cMQwhNE0JVw/PE6dBwLaTvuYqyMvHc3/4iBgzoLxYuWCCEEKKqylef6HQ6A8eE0+msU5cf/i6aM80iJf3pwoVMufhiLpw0iY8XLMBts51Uf+ts8MW333PlZZfQtnUb1qxZS2Tk6adSVy3fwJN/foRly5bTr2cvnvjTk4yfOBG7w46uG35h7NBLxRiGga7rPyrweywnh3fefJcPFy5g564fSEtLZcpllzFl0iQGDhgQ0IGzWq2NKhYcyuzbv58bbriBDVu2kLN3P5lZmY09pDBNEF1X/ZGnMx/JNwyN4oIC9u7Zx65DB9i//xC5OYc5fuw4efm5FJSW4qmuRpZlMlu1oVfP7nRo3YHk1GT69R9AcstE2rZqS1xCXK1Ilqr6OoJ9qW17OCV9imiagSxb0DQPkmSvZa7wU2UCmzes57a7ptOjSy+uuPoyzh81DkmilpC6LMth7/NmSrNYMG5YvY6B5w5m+PDRfLFoEVGxjSvIWlxYTN9+fVE1la+++ILs3r1PO6WqaSp5eXm8+sKLPPfKK6QlJXPb9Ft58N4HiYjwLagkyYLH4wlYdpknq5kiDmU0VePA/oN8sehz5i2YzfoNW8nMyKB79+7ceP3VXHTRFGLj42stGOvqh5kF2ubrXq+3lod1c0bxern33nt57fXXeeudt7jhuhugznf/Y80FYcKcbQxDx+PxUlpcSmHRcYorKji8fz8HDuxm3cZNrF6xJrBtUlIKCYlxZKRlkNgyhb49+5PdqT0Dhp5DSst07HYZqzUCi8Unhi5EfRcXn2eygiw70HVfg6Gm+bbTtNoyO8FpcVUFi8WLLNualMD3T6HrBpJkCehs/pRod1WQAPqhA4e4/va72LDyW6Jjo8k9coyoKN8ivqHrTd3nzLnI6/XWqn8M16c3ERo7xHkmOLh7twDEoCF9RYXzWGMPRyhKjZg6cYKIiIgUL7742hn7vQvmzhUJCQkCEBePGyeKiooa3M6U4GlqeNxu8e7sd0THdn0C8h7duvUSixcsFh5P7c/k8XiEqqon/V3NnWDpklde+a+w2WzizltuadQxhQlzung8PlmW0uNeEZGA6DVwoPjT00+La665TLTKyBBWU+4n6F9EQoK47tLrxOsvvS727dsXOCfMuUJVPfXKfEwUpaaWxE7w+dQQTXVOPRPULQlQVY/Ysm6j2LxqlRB+6TfDMMShA4fE5vWbhaZptSR3DMMQTqezUcYe5szS5COMhiEoLS0ls10G3dp149NPPiWzdVsaO3s5/8ulXD5xPNdfdz0vv/LyaSnq67qKLNtQ/d1JFmDdhvU89sijfL9yJb169OJ/n/4j5w4fRUJCw0l405klVO/gfLIZOmBBk204gKoyDwuXz2L2mwvZunE9hYVFdOjYkSumTWPC2DFkd+tJYlICkiQ3mKr+LUUYATasXs3IsWPp3asXS5cuJSY2FvxNDZIvjRDuMg8TEmiagbBKWAGP243dLqPrArvd4ZfHgaKiYhwOBwkJCeBvCjyel8/mnT+wa8cmdu7cR+7RPApLiig4VoCzpgJNMWjVKosuXboysG9/2nfpQNu27cholU5cVCwpGSk4rA5cLoXo6BOyX0IIDEMgy/UjiIriRpYjm6Tv9JnkVL23hw47j3Xr1zJ4cH/eeWM2nbp0aNDZqylkvsI0TJNfMOq6gaZptGzZipYtE5g3by79+vVr1BSCroPLU0h2xz6kZmbx/vvzyMhI/9knieno4AVs/ou/YcCh/Xt5ZcYMXnv5ZdLT07n1hpu5+ZYbSUpNrfc7fkzuprGpBmL9j3VdwSvbiQpaKJeVVbBixfcs/uRzVq5fzt59B8nKTGfIwKGcN2o4EyZcQEZGRr2FkKIoWK3W30wdTVVFBZ379CHB4eCjBQvo3LUjEIGw+o6Z3/j1LkwIoao6mqTjkKy4DMHO1etY8PlCrrrkEnqf0w+gwTpKxX8cy4BHVSktLOFYYT4H9x0kL/8QR/bnsX3XDg4ePERhYQGGYZCW1pJWrdvQPqsdmW3a0qljawb2G0xmZipJqal+jUjfgtFq9c0VhqGh6xZsNtON64RjzG8VXQdQkSQZXVdqycMFu5x98OE85n84n10/7OWl519kxLgRKIoS6IJviFC+PoWpT5NfMJr07t2VisIa5s6cw9Bxwxu1ANrco7fdeguz33uPr7/6iqGDB5/2AkbTPMiyHVWtCUhHuN1u5s//gIcffpjysgomXDiJ5//5LC2SWxEXd+IENAwjJBdOmuYB2Y61zkSs6wpgCeiBARxx1SCXl7Jo0WJefPFFdu7cSWRkJPHxGUy+ojfXTn2APgP6EB0djcvlIjIystmLfdetS5xwwVQ2rFvJjBlvMXnyhYAUFvAOEzJUAAn+x6bQ9mcff8zv77qbyqJC3nnrLX533XUnfb+meZEkK5IkY/izLebhres6qqLiqnHh9XrJzc1l3Yp1rFy/hm9XLKf6eD6aRcbusBETE0NUbCxdsnszftwYhvc/h649eiA7JKLtPoFqIDB3mGM1DF9g4rcapT+xTBAoiookSdhsNhTFhc3m8x03DAOXy0lNjZvEhATsDgeK4mLHxq385+3XmDxuMpOnTq4VcQzV61OYhpGfeuqppxp7EGeCVWuWs3PPXs6/cDzdunZttHEYhoYQGpIk47DZmDN7NsnxSYwdP/Zn/y6vtxqLxYHFYkWSLEiSDSF8J5ndbqd37z6MGzWeZWtXs27VSj76ZDGJMTYys1oHOpRDNS0rSVYkiwXDwN/tDarqwmqNxGKREcLnWCKEQbzNRnx8PP3792f69OmMHDoCl+Ii/3geq77fzIyZbzPvg4+oKa9Gsltw2B2Bz26mp6urq3E4HLjd7lr6YU2VunftVTVOPlown959+zBk0BAsFhGIjni91fW8h8OEOZtE+MtPNE1Cln03c7PnzGHfwQPceffd3HnPPaiqHkgP67rqX6zJWCwEonxCGBi6t5ZuoCRJWG1WoqKiiI2NpVWrVgwaOojLL7+M+++9gxtuvo0e2V1JT2uJU1HxVDs5fGAvXyxayOtvvMFrL73EstUryNmVj7O6FF34Gukki4RF8jURmrqDv0UM40RjjMulEhXlCFxXZPlEd7rFYsHhcBATE4Mky7gRSFYH3y/5in//60XmzJ1NcXEJo0aNCpQRuVyuH41Ahgktmk2E8aEnHuXVf7/AC//9LzfcdFOjLgh03ee2cbiokIvHjCFSjmTNphVIki/yJ0lmJM2OJJ26lZuZPtF1FbvdjqZp2Gw2CnJzeWnGDObMnMmx40cYP+YCbrnpFkaNGUV8fDz407R2ux3dl18InPCapgUmA/P3ne00gWFoWCwSFosUEIc1DJ9kxslcHDweDzv37GHtqlVs2bKZ9WvX8MOuHKJioXf3PvTq05thw0fSs0c32rVtS2xc7RrP4FRJsARQ8Gevux8Mw8AwjJC5cPhuHnz1RUcOHqFD97bccP2t/Ou554mLjWpwuzBhfm1MaRZdV2rZhGqaB4tFQpbtaJqXyioXx/Pz6dy5M7aTLBo0zTcPnCkqKirIz81n9759HD68lz3795N7OJcD+/Zw5HghshCkpKTRvn0bunbuRrfuXWjbsS3n9OhPYkoi0dHRteZK04nGdKTyRdo0fwr7xHYEzTl155VTcbxpTMzSqJ+DrzZUQ5ZtVFc7+ezjxaxfv5LW7Try4IP3BrYrKy3FKklEREf79+cJxQvTSrLuDX44jd14NPkFo6r6FkAzXn2Zux54gH/+6+/cc+e9jRrmNveoy+nkjtvu4P0P3mfHlg10zO4OfmcCw9CxWHxX8NNZ2wohAv6eXm81OnYO7t/PX//yJO+//zEtElswZswEnnnqMTK6dyfS79Mc/D78i6AT6ReBx+PB4XCEbGSyIVwuFyXFRezavZ/335/Lt0uWkFdURExMLIkJ8bRr25bhwwcxashF9O7XixZp8RiGEfiMwfvE9LN2u93Y7XZkWcbj8WD3+3mb25le1yZmIffJvFZ/DYQQaJonIAvSMjWFvn36MW/ePKKj7djt0f7tfNs38aBqmCaCeQ4Zho6qylitKmVlZbz8r1fp2LcT0y69CotF/1U0H38OhqHj9nhwOV1UVVWSX3CclSu/5bvlK9m1fRf5+fnY7XaiY6JJSkyidatMBk2YwLi+g+k3uC+O+HiERyciQq7ll+3xqNhsMpJkqTXXmvulru+y+XxdubDmhBACj9uDJEuBxfHx48cZPXo06WmZ3HX7nUy5fHKtudhMc5v/myUB5v4Kc/Zp8gtGk++//I5RE0fz+OOP8+STTzaqyLNZcwgwa9Zspk+/g2tvvpZX//sa1KnbqLvwOF2Ca28+ef9jnv7rU+zcvRurVeaBe+7k2utvpW27Nkiygc0WhWEI3O6aevp8TbGmpG7dUbmnnFVLvmP+7IV8v2UFVeVluJxOdItGYmIiI0aPYszg8zhvzBiioqNISUrBYpFxRNh+VvRQUZSA9uXZRgijXiH++PGj2fPDXtZs2EBGRsZZH1OYMPiPTV2X/NkTg9ycPKZPn87iLxdz0QUX8M5bbxGTkIrdXv8YDiXWL1/Otyu+46tvl7Nr5y48Hjc1bjeKohAbG8uQ84Ywdey59B08noyMdOLjEhEYxMfHB87Pk92sNcV59kyhqiqGYaAoCldMnsLKjRvRNJXSI0eISkmhpqamVoNocEAj+OcwZ59msWD0Akd37qRrnz5Mv+VW/vGv54gIgbZ9VXWzbtNWrpp2JUkxMSxbuYqYuDg8HjcREREIIU77TslMb5iyMpqmgd8VRQd+OHCAuW++yedffsm+3btJz+rCjdMu5uJLptC9Wza6sBIVdUI41Vz0NMVwf/BnD8YwDIqOF7Fl6xY2rFnN9r37OHD4MAU5hympqCDS4aBnv5707tiLzl160b5TGi0zM8hMzyQlKYmo6GgMw6j1Pem6XssZobEwU2HB3HnHncycPZNt27bRoUMH+BmSGGHCnCkUpQZZ9mUpVLWG775fxd1330vbVlk89cxTDBkyBPzzoyxH0tjrJl+2x/Kji9eDe/awc88eNm3Zwg87fiAvL4+cozmUllcgAx07tqNfzyH0H9KHrt260rpVBq3btCciIhohVKxW3/yqaVqgttqcZ0+UC6m1mv2aK8FzV2lZBZ8u+pKyknxuvf9+YoWOJFnJzcnleMlxOnXoREKir11KVX3NNuHoYuPR5BeMuq6iWizobict0rK47IILee3NNwJadGcbn66gETjxK8sruHDKeDZv2MGnn3zKmPPPR5Is9RYiP5fghaLVakXxq9k66myzd/9+Fn32Ga+8/joFhw/TuVcPxo4aybVX3ki/Qf1q/a7mjBACZ7WTvMJCSvKPsXX7DtauW8O2DRvYe3Q/uiIRGxVFi5bJtExJJSU1lX69+9O3dw969exFy/SWxMbGBpwRamrqR2dN94KztZhUFAgu/fr33/7NA48+wDdffMHoCRPAXwva2BfkML8dzOiQWfLhcrnQdJ19+/bTtlVrUtJSAFDVGqzWKIRo/OPzVBaMwTidTgoLCzmWf4x9+w+wbcMWNm5cy8atW9F1naTkJLIys2jTsQPnnnMO5503jOzefYmOjg4sGIOjZOb8axgakhQa9dG/FFWtwWarn173NblItdx18N88WK0RCP+CcdoV09i8fTN9e/Xln8/9k6ysrLM4+jAnpRFFw884rVu3FoPGjhXFZWWNPZRa/P35vwssFnHdzTcLRVFEwS/8fXVdT+oSrMxvGLpQlBrh9TrF448/LmzR0QGnhEsmThSrli2rp8xfUVHxC0d49nC7G37+ZPvIdCUI5nCVUyz88GMx/fabxMCePes5SgDCERcnRg4eJO598F7x2YKFIicnR3i9XqEoyknG5Raapgld14XL5RJCCFHDcxDvAAAgAElEQVReXv5LP24tDMMQiuIK/Lxw4UIBiFeef+VHtwsT5tdkT1GRWDxnnqgqKTvtY8/rPfvOIA3NexVCiFP1k6qsrBRvv/62GD1utIhJSqrnSnPFldeJzz7++DfjUOUUQngaeN7jf00EOfzU5bMPPhNpaWkCEA8+9tivOs4wp06TjzAGM3TYeTgrivn6m+9p2YCI9dnA9DOFE6nAoweP0rtfT7p07cbcuXNplZUaaEjwelUcjl8e3fPJ+Yh6KQ1VpZbrzaHDh3n7nXf4+sul7Ny5A5eiMOHCC7n+ymlkd+9OmzbtiImNwfC3K0uSVEut39f9ZgTEWoO3O/E3z3zE0nSECe66NAnurKvrIuABhOom0nZqJQpCCAoLCtmyYwfbV21mx6Ed5B/Lp7K8jKLyUspKyqipqQEgOTWdrt060btTF1q37Uirtq3ISE3FFmGnZXo6cZExtEhOCnjTBo83OMrwU/sreP+b2zbklrBm9WrGjRvHNTdezysvvFTvvcGPzUgp/tT9qUa6fwvR6DA/DzOVqugKs198g4f//CdS0lvy4fsf0jO7x0nfdzLv51CgDGjxC95fWlrKmuUr+G7lKvbu/oFDR3MpOHKECpeLqORkRg84h3NHjmBg7z6kte5I64wk7BGxyLIVSfLNqRbLibk3+Lyre06bc8mp+EKfDepec2jg+mR6ef/YUEtLClmzagODhg4iJSUFXVeoqqjmq+9W0qdHZ9q174DNrxZilgkF7wf881yoqFo0B5r0gtHXaaYEWv6vmHYFq5atYMPGjWRkZjbauHRdQQgrVqsUqLu49fe/5/0P5vHBrNlcMHlKoIalrvTEr0VdaYTcnFxWrljOwsUL+XThZyiKQs8ePTnnnP5M/d0VDOnfn7i4OH8d0olFim/MemCBFlzTZ9Y/BtdXNvWaE13XqCgrp7ysjPzi4xQdL6bi+HG27NhNTmEuR/ft54fdewLbJyUkkJjcgoSkFiREx9MyLZUWSUl0at+GzKy2dGzTkdSMVFLTUwOdkkCtRVjdbsngi0VDzglerxe73c7uXTu5ZOoUWia1YPma9YHicrMrse5FJ7hrPrhL05T5aKg2NLxgDEOdY7S62iciX1pRyuD+oxFU86ennuLSSy4hJjr6N21LaRg6zqoqDucdI3ffPjZt+4H1G1aybv1mSktLaRkXR+tu3ejeqRPnjRzOkP4j6Nark79T+MTcq6oqsiwHFkd1z2NT6se3jQdJah6WhnWddua8O4cbb76FXt26MP326dz8+9+jqioWi6XWwtnsWNd1PdCNTtBc2diL6qZKk18wEtQ19dA99/DfN99k84YN9MjODolxmY9zd+6kw8CBXDFlCjPeeguHw4HFYsHrhbMxlwohAvup0m/JZzEEiuKlKv8YT7zwIrNmzsRbUYEjIoL0tEzuvO1ObrjlWuIT4tF1vdaJ1pB8TPDfqK6uDrzelE/OhjrzhGGgahq6oaNrOpqmsTvnAHvXbWXltjXs3HKA/Yf2UFZSgvDLQlhlGUmWscpWJNknBNypU2e69simW89serfpRkbrDLr17BZYrAkhTknU1hzjkdxcrrz6arbt2EFNRcXP7io0v7/g/3/O+8P8dhBCBC7UvhsKC0IYlJYeR5IsJCS0DNyQED6GAmiahqqquN1uNq5dy4uvzGDJsq9Qqqux2+3YbXZat8lk+m13MvGiC2nfoX3gvT+2Lw1DwzB0rFaHfztLs5DRMj+z0+kkNjaW6moPjz3+MK+++SajRw9nyaIl4Jc1czgcgeMyuKGIIKOD8PH4y2jiC0ZfF6gQvhD4f/7xPPc9fD/r1qxhwKBBtTSwzuaYaEBGocZVw/jxF7Jz1za2bt5Kq9aZZ12HTFHAYnHXKzg2bbuKCoqY/9E85s57n5wj+RQV5IFD43cXXsOkSy4ku1cPkuKTSUlNCVwMgrv9mjs+qfUTNJSOD2yrKJSXl7N72y6OFB3mhy072L23jIqKA7hrPLic1dR43LicTqqcLjRVDbw3LS2Ndh060apVGq1bppHVtgNprdNIaZFCdHQ00TExSLJESmIyIBOfGIssWygpKub6667n29WrqKms9HXM+9MzwWnnYB2z4PRWXRrSO2vOWnFhTh3DMDh69Cg5u3fTsld3ume2CbxmzoGaVn+uCXOCGv984q4q5YsvvmHBos848MNOCo4fp6SkBFXTGDJgAJOvuILzhgyhVds2pKYkIct2v87liflH1w1k+YQfdnNonlEBDQg+gszmmOLCQvSoKFJj4pAk3/V169atWCMcdOnQgTi/YcXPKbcJ89M06QUj/pA/fsP6mXPe4oZrb2bWvPlcffnURnHlEMJ01qidAtZ1nX8+9w/++MSf+fOf/8Qf/vAAYGnQxeRsUzdd7fG4+Pr71az97mtWbd7MxrVrqfF46JbdlWH9z6Xf4H4MGzyM9h3b11os1nVPCSVXlDOBCwjui67rmnMqeDwuSosqKCrMp7i8nOLCAvKOF+GqruZYYS6lx4spK6+iuDCf0tIKSsrKCD5FW6Zn0CIhgZS0lmS0SCU2PpaEFi2IjoskJSaBWXPeZf3mjXy7bDltMjOJT4ynRWKLWhFLUz/SarX+aLow+PsMdTeKMGeXPT/s4fGnnuCLRYv4zz+e4da7/wD+uUSWHYHu5zPt1NLU0DSf7am5mPsp8nJy2LJ9O5s3bWHr5o2s3biF48ePkZqURN8hQxgxZAj9+/Wj/+DBAf1eWZZRFB273bwJ/PnOLKGKzyLSCii1PlOwI5gk6ezavpMx48Yi7DZuueYq/vDIoyQkJNZy2qmL6XLW2BJpTYkmv2A0zeEtFgvfLlvBhLEX8eQzf+AP998faCxpDHz+mycWEkIIVq9ZxbXXXE+NrrJj43aSk+MCY/818dkQWpBlG7rui2QFN8c0NFYhDDRVo6yigqM5OSz46EM+nP8Rhw8dJjommpSkFLKyu3P52POZPOVSstpkndQ9pSmiqvWjI4ri+tWOKSEENW4XHrcHRVHxuGvwehU8Xi8lRUUc3HOAvMIjHDp6hKP7DrP74EGqvaUoTt/7LZJEpMOBoqpomkZGZiaRjggiIiOItttJat2aTllptMhIp0PbrrRJyaB1x9YkpyRjtVqxWq2BelXq1FRykmgjQcLzZn1rY9/8hDk7/PUfz/H4I4/xu6lT+Nd/nqNlWpr/BlGuNZf81mWdDENgsUCJxUKK/7nqai+xsT++oNM0naqKco4XFbNlw3JmzvmY79esRHi9JCclkZySwsUTx3PptGl07NiZuLi4QCOJz2FHbfKZH8MwBc4tgBE4rkyHK6s1EovF97O7xs3HH3zMn//8BLpsY8mSL+kQlM5vyCAj2J0nzKnRpBeMPis7jchI38VtzZrVTBg/kauuvpJXXnm13vZnI50WXEti1ieWA4lAeUkJV151NUu+Wsrnn7zLhIuvgka0bAseK/4okizLPxoV/PqLr3l1zhusW7GGqspKnE4nhmEwceIYpl50CWPGj8dmt5PasiW2IDs9c/EY7HAQbEtYdzsawQ3B/J5Ohbq2fMH4JrpfP7JiGAYH9h0g/0g+u4oqKTq4lk8/+5ytW7aTlJREZGQkqqJiGCpeVUNVNAxdQ9FUhOGv5ZEkMjMyaJXRljZdM2mT0orO7buQkNCCTj06IcsyCfHx2B12rDYbNqsNr8dDfEJCoCyhoe/LfBw8vTS0bd3t6k7edber+3zdx2F+Gae6n0tLS9m+aRODhg3DFRUVWAzV5cfOk+ZOCZD8I5qEmuZbTJ/qoXv8+HHeev0tFny+iJx9e6h2ulBVhYEDh3Hbtb9j3IQJJKRngKEHFkcN3bgHB1lOxonTtnHdeEzXNMPwRWsdjuAGvPr7VVEU3O4a4uMTMAwDt9tNUXExNquVuNhYIiIj69WFn+pcFKaJLxjrsmPbFi6/7EraZbZl0TefnZXu45/Lay+/xj3338NFEy9m5rsziY6KapLFyQV5BWzYvIHl33/P1h9+YPPGjVQ6nbSIi6PvwIEM6NGDnv370bdnX9LatSJSsmG322vJwZgezbqu+4VrfX6hwWlQSZLqmc+HOTmP//GPPPvXv/LKjBlMu+QS8nPz8biLySmsoLigmJqKMnJLinFWVVJ6vBSny0l5dSXVlWWUFZdRVVOD1+1GNwwskkRMTAyJMTGkZrYkoUUKqUlppLdMIiYxkZSUFGJjE0hLa0FSYjJRkTEkpSQSHZ+AxTCIiIioJXkRnP42U9xmZ725nekXa1J3O5Pg46ghiaEwPw8zPef1en03GqoaKFkwDIMNmzeguN2MHDmmWZWZNEW8Xi8b16zlu1Vr2LRxHVu2bOdo7iEyWqZz7sRJjB82kIH9z6Fzl27Y/GoVsuzLMCmKgiyDJFn9pVO+sqG6JScnUr71HaVCGSEMDEMPZNDKSsq44qqr2LJpAzdefx33PvAAWa2yapVMmXNL8FxjZl3C1KZZLRgPHtnH7668jNKjLjYf3UuiVFsOpK4eXmOQf+wYvfr3JyYyivfmzWHIwCGNOp5fiqoolJSWkpuby/bt21m88Au+WvEdNRUVxCfEk56aTmpqJ8aMP5exI4eT3bMnERERGIZxSh3AZtOG2+0ON1ucAs/97W889sc/8tSzz/A/DzzS4DZC+M6HGqcLr+LF7fXgcbuocdbgURSc1dUc2b+fXJeL0rzDHM3PJ+9gPscLj1HmdKI4fXlwm81GdHQskZE2oiKjiY6KIcJhIyo+ng5ZWSSltqJPr260y2pH287tA13z0dHRJ70BMGstg8/VYAcd3wVPDheyn2HqpucC511NDa+89BIvvPoymWlpfPThAlq0bPGbjBiGAm7ACtj850plRQXH8gtYuXoVc+bMYf3atURGRpCRnk7PXr259MormThmDHFxsUiSXKtrODj6+GPNb00Zr9fL1198yR///H8cOryHWbNmMXrUaKKjo2tlvVRVDSyYT1Z+E6aJLxh96Q53ICxdcCyf66+9lmUbN1BVlIcjIq6xh9ggzzzzOE89/Tee+etfue+u24iMTKgXZXS5XPWs55oKXm8VSxZ9z5vvvsm6VWuornJiKCpeQ6d169Zc9rvLuOCii8nu2ov4WDuSBHa77zsMXtiHo4o/n5dffp0HH7yPe++9g2effQ4hzmzJQ3V1NYd27qKgooSdhw6wZ8tGcnJKOZCzn/LiYp/umWFg6DqapmMIPZD+ToiLI7tbL9p0b0N21+70at2HPj06YEuLgchEEmRfNFnyT9Y/9f2bzTthXchfRvAlwGKxBBYVVrud7Zs3M3nSJIrLdf7zn2e45dZbfds12mjDAHg8lURExNd7fvfWrfz1xX+z+LMvcVZUoKoKbdq0YvqtdzL17um0djiw2+1UV1cTFxeHx+MJ3Iw1h/lWBbxAtH8x7PF4AoGGfTt30rZTp8BiWVEUqqqqSEpKqpOyD6ekT0aTXjDWpaqikttuuY33F3xA2dGjJAb5T/6YBMrZpqioiO6du9KlVw8+XvAhiQmp9ZTxmwo/tV/Lqo+y8ruNfP3tSnbu2M6Bw/spLizB4/HQLjOTc0eMZNDAwXTvkU1mWkuy2rbF4XDgdrub7IK5MZkzdya33zada664mlffer1B14VfC5fLxbGcHI4WFXEs9zD79x2lqOQYebn5VJZVUO2poqqymuryCipcNQhdR3Y4yExpSae2nWjXIYvuXbuS3qYNSSlJtGjRgoyWGcTFxxLpn/QbkskIi4n/MswIi2EYtVL75YAoLeXD9+fTqUNnRo8fhQeQ/RGuMI2PYWhYLHW9qaGksID3P1zAsuXfsGnLFvLz8khPT+eCiRcyZcoU+vTuTXpmeuA9v2ZD39nkhNB5/aZFJxDj30ZVVf7z/L9Yv2Ejl0y9lIsvvpj4BN8CPNg5LExtmvyC0ay1kCRfTdw9993HG6+/zopvl9N/5DDM6otgR5JQ4KHb7+GlmW/w/rtzufiSqU3OFcXXpRZxyvvVMHQqSivYfXAPOYeOsHXzZtatW8WWrT/gcrtJapFMt04daNuhAz17dmfUsPNp36U9cXFx9VIlwbWOYV3A2nzy2Sdcf+31TBo7ljnz5zf2cMDfbFZRWkGlu4LysgoqikspqqigpKCA3Jxj7D+ylwOHdpGbV47H6cRqtRKXEEeLpBa0SW9DcloKXdu3p3OvbLq27UrbDm1pkXzCuK2u+41Z0xiubfz5eNzVHNhzmLYd2hITiEBJtdw2zHM/zNlFVd31HFwaWjD66vg0ZNmO4nSybts2Nn63nA8WL2Djli0kRCfRq2cPLpg4ntETJtAzO9tv8+p7f4hcIk+Lk908BjfIKIoCAmbMmMETTz+Fx+nkpRde4oabbmiEETcxGsnD+oxhGL5/vseGePDRR4VFksT782YLo7EHF4RhGEJRXKJMCKELIb7/bqlISEgQI0aMC7xuGKE04h+nobFWV1ef8nsVRREul1MU5OeLt2bMEGMuOF/YY2MFIKxWq4iKihJtWrUSd91+u/jm829EXuUxoaon3m/+/aa0z84G8+bPEzGxMWLq1KmB5wxDCEU5vd+nKCfOrzOJYRhC0zSheBVRU1MjqqqrRN6xY+LbL78U/3jtLXHdddNE+/bthC06WgBCliThcDhEdFS0SEpPFxeMHi1e/O+LYtu+bUIIIXRdCLe7RhiGHj42TpOCggIxceJkkdgyTrz/8Vwhgs614H0Z3q+Ng+97ONXtam+oqZpwOp1iyZIvxZgxY4Qsy8JqtYq4Fi3E7XfcLHZs3FjrWtocMAxdKIrL/7j+B1MURWxYtUo8+tgjYs3W5YHnnU7nWR1nU6LJRxh13VfzZhgSVqvEf//1bx7+n0d5+ImHefKxZ5BlQsaRxCdn4DOVLy4q4qabb2LRosUs++Yrzht9vn+b0BhrY1BeVsbKtRtY/v03rFi9ktLjxRwryMddU0NcUjLDhg5j3Hnn0rt/f9q1a0dSUlKgkcLj8QTZLXoDuoIERZzM9HlNTQ0xMTGBZgqzY645NFMs+fZbpl12GUOHDGHx4sUAKIoTuz3mJ98bipQUlbB7xw7WbFzFvt0H2H3wIMUl5VSUHqeiogohy3Rp1Yoh553L4CEj6dmjKxlZWaQkJeGIiEAIgWEYKIpCZGRkoPNeUZRAyYMZpVYUJdCV3xwJTrW53W7sdjsej4fo6GgMw+Dy313GJx99yojRE/nH3//OOX27N/aQw/xKrNzyHXNeXcDKFd+w//BhdFXjsiumcd0119G7ZydSUlsjSapf0kagabq/9k8DrAih+2W1fHOqEBKSRJNvStM0jd07d3IsP5/BgwYRER+P5LfFDe4rCLbGbcgmt7nS5BeMJl6vhsNh5Z1Zs7hz+nSm/e4yZsx4p842jetWEexKoxk6r7z+Go888BAXTJnErDffrpVabeyxNga+i7uGLNuo9Lo4vHMf23buYOeWrezeu5tNm3ZQUJRPi8REunTpQueu3ejbvRvnDB1Kj65diU9MrCXdUlcuIdiZJXj/1k1pNmW+/+47Lrn0Unp1H8D3K5c09nDOKLquU1VRRm5hJXk5uzhwIIftW7awZftm9u8/jLOmmpSEFnTr1Zu+PXsy7LzzGHzOObTMzAykqcL1jicIdrrQNI0PFrzHgb2Hueqaq2nftk2zsJcLc3J0XWfv/r0s+WIlq5Z9zrfLvwNJZuiAoYy7YCwXT55KakoaERFWf+ewDV33IkkOdF3132z75lRFUYiIaPrlH16vl/956BHemvkW48eO5X+f+w/ts1KRJBmLRWpQJuy3VPrSbBaMJl9+/TXTLr+c0b1H8dH3H9V6LVQEfk1B70P79jHqggvQFYX5CxYweMCAwDahMtazjX9NV6tOR/F6cbvdlJaVs3XDFmYtmMWyr5ZRUVmJw2YjOjaWVhkZnH/RWK6Zcg3de3fH4XCcVPSZZrx/165YwUVTppCV1ZYtWzc19nDOKHW7Fw3DwON246pxUVpYzcrVK5n34TyWr1mB7m+aSoiLY9KkSVx/88107exzxKiL0+kMRBibe2Q/2JHH7JA1b6DMTln5FLvUwzQPdE3gdFaybu0aXvzXv1n41Vc4IiJo07o106ZdyR133E5qaqo/k2c0eJ4I0bgC32cC07hh88bN3PfgQ6xY/h3z5i/gikumQgORxIbMKJo9jZ0TP5MYhiG2bdomUpJTRI8ePYTL5atf8HgqG3toQtSptzT5n0cfFHbJLp79419ERXmZv/5Eb6whnjWC94WqeoSua/76M99zdb+zuvukqqpKfP7pp+Kee34v2nbqJBISEoTVahWSLIsuvXqJxx9+WKxes0bkHzsmFEURhmGImpqak4zFELrePPb51o1bRUpyiujdu3fgOd9nP80ixhBBC3rs9TobfN4kPy9f/Pff/xb9Bg8SyUnJwmazCUAMGTJSLP5kkTheUCDKy8vrvc/j8QjldIs9mwBmbZuu62LNuhVi9Nix4u4HHxRVVVVB2/jqVnVdD9cqNlNU1fc9n2zOW/XtKnHRxReL5MQEYbFYRHJysnjllVfEsWN5QjULyf2Yp0twH0FTOm50veGxulwusXTRUuHxVApV9fi31YXb7W5w+99K3WOTjjD6dBhPmIsbhk5uzlGGjTqXqIhYln23jLSMtMYeJvjHqusakmRDknx3ZEIY7D6Yy8hB59Cta3feeudNOnTqgmGoGEbz1pfTdV83nq4rSJJPi1FVPUhSRCC6GNy192OdmWUlZWzauon169azdcMGdu7axcHDh7FGRTK4X18GDzmX/gMG06dXNplZWQghcDgcaJoWsLcLdphpymzZtonxYyeQkZHJ1q1bG3s4vwhN8wZsK6uB2Aa2qQFO1iPv8XjYtW0XX363hI3r1vD9spV43W6GDBzIyAkTmDRpEl06dmz2UUUTXdcRQpBzMIcLJo2nsKCIPzzyR5544mEMw9Tr9JWF6Lqv1jEcZWxemNcdSTrhcKLrCpJsRwHMIii3y8Wa9WuYP/8jln69lMOHjnBOv15MmXwpl156Ke3bt8cwjEBZjynfpetqIH3bFPB4NCIifKUXuq4E3OF816UTx7+i6Hz84TyysrLoP2gQNru91trjt0KTXzCazQpmuNjpdNKjZ3ckYeWLxV/QJbtLYw8TAp6etQ3UQaBaJO6/9VZmzJrFW6+/ylXX3wi/IbV5nyyEtZa4tKmhZR6ZP+eaVVZaStHx4+zOPcRH73/E14sWcbykhMTEJFq3yWLouYO45rJr6TuoH3a7vdkI1pps3bKFcePHk56exqZNGwILrqaIYWgN1tH9XG1JwzAoLytj/aFDfPbGTD746APKK8vp2rUrV152Gbf+/vekpKfjAZq+Et1Pcyz3GHc9dDeTL5jM1IsvJT4xBiFA09xYrRG15qkwzQvzuhO8oDMMDYtkRQeEf+5VAAPA42H33t188OEHvP7iu1Q68+mW3ZlLLrmU++99EIfDQWRkZJNurDObWQxDr3fcq/5/VceL6NKpA0kpKfzfM89yxVWXN6gJ2+xp7BDnr8Hw4cNFanqy+GbFYiH8YXIzPR2K7Ni1S0QnJYkRI4aIAl1vVtIGjU1lZaV4Z+5cMXriaBEdHS2sVqsAxMDBg8XsmTPF4UOHhaqqgTRKRUVFrbSKqqrC4/GlJIIlRkL1mNq496BITk0T3Xpki9Ka0CjFaEwakmA6mn9U3P/AnSIqKkpIkkWkp6eL+e/OFx6PR3i9zoB8iWH4jodQxUyDKYoivF5vrbFWVVUFPrumaaKwqKhJpQrDhB6e4mJx4+9vFnFRqUKSJOEA8fzzz4vCwsJax1bwsSf8qdzgMpKmRPDneuvVt0VsYqLom50t3O4K4RZC1ARtF/x5zfKnUJ4/Tgf5qaeeeqqxF61nmsWLF3Jo3xHGj76Yzt27IAUJS4diNMlut7Nv3z4WL/qCUYMH0LZNByyW0BxrU8PhcNCnZ0+uvfJaJk+eTOvWrbFJNvbv38PcD+ez8LPPqaooASFISk72WdNJUq1yB1NmxePxgP8YkiQpJNMRxTlHmT17JnExMUy/+TaszSDN/kvxpZesaJobWbYRHxvP+PEXMG7UWCyyzr4DB5jz3hxyDueSmpJBckpcoPwhMjIiILsUaoXtZgmFKWMSnFp3OBwIISgrLeO9d9/lnblz6dKxIykpKY044jBNETONbYuO4aILJjJm3DDiY2I4lF/Jpx9/wMo1a7DJEbRMjsURERU4Ds2SH1+jVdOM3eu6N2CE2bN3DwYPHMh548bRvUt2wNPbJ8dlQQjdn44/UU7W7MpdGnvF+ktRFKVeIe5D9zwuoqKjxKszXhdmWa+u6yHb2GAYhnj3vTkiOSVJ9O3VQ9TU1ITsWJsDxYXFYvnyZeKJp54Sbdq0EbLNIrJaZYkrLr9CfLt0qTDvhZtiA4TZ9NKzRw/h/o0UYp8uqhCipNopVq5cKSZOnCgskiTat2sn/vXiv4TT6Qx8/7quC01rqL2mcWmoAF/TNOH1eoUQQpSVlon/e+b/RHxCorBFIzas2NUIowzT1PE1Sp04/t1CCLfXK1av3SruvfNukZiYJCIjI8XY80eIt99+W7ic9TMvqqo2qfnU4/EERQy1WpFGM3qo66rQNKVJfa5fSmjdMp8GwREgk57ntMHt8VJcVIr5AU29sVDEYrEwcfwFdGjfkV179/P555/jdrsbe1jNluSWyQwffh7PPPkkOTk5vPj3F5GFwQcffsD5EyZw46VXkJ+bXyuCWFVV1ahjPlW0SDdCMtB0HZc/Ivpb5rj/f5fLVe81K5AUE825557Lxx99xL//9hxV1TU8cNcDPHTnnVSVl4Nf2DsUa5XM6IWq6iiKjsdTiSzLgcij3W5n3959xGux7N2/il4DWzfyiMM0RXxyOioej0/zzKp5sckWhgzqzfMv/peV3y1nSJ8+fPX1Mm688UZGjhrPzk0+SS+n0+l7j9UakhmZk2GaQBgGGOb2754AACAASURBVEZt60VTc7GqvJLHHvkT8+fMx+lUGnG0Z4/QXEH9QrJatkfoOjWVlQGx5lDGMHTi4qL5/Q234vV6+fCj+VgwGntYzRqzCQng9vums2zzVp589i9079qdTxZ+wvCRo3hvwYscPpyHpunExsbWe38oHluyEotF+FKUjqhmlg45DVKFwDD0gENDMKpaE3jsiIjgjnum8/LrL5DdLZs33nuPe+57iGO5xwJOKKGKzSZjt8tERMSjaVrg+eiYaJ576Tl2F+8mI30odnvTTAuGaVwMA6zWCOx2GUVxYbU6kOUTi7/uvbvzzerVzJg1ixHnnceOnZsZNGokj/3pMY7m5YXsXHkqSBI0ZPwkgJKqKtasW8lVN13FF4sWBpyUggk+H5sDTb6G0fySJElC83c0WXSV/774Il07dub8sWOx+1vgze1CDYtFQpJk2rZtzYcLPiPvSA4jR44iMzOzsYfWjPEtGL1eBavVSnx0FCOHDWfCuAnEJsazftMG3nljHvv2/kCnjh1ISk7HZpMDVpRgCclO9oLiUubMeofomGhuuvVmHLZwDaNZW6SqIIQ30HkthC0g2SRJPivJ7G7ZjBszjrxjuXy44EP27ttB7+wBJKUkhuTcEYzb7eaTjz8mPz+PrNatkWWZSEckNqsNLxA+EsKcDrpu+C0BZWx15hPD0AOi3X179+aCiRPJzOhETu4+Pp7/CcuWL0d4vWRmtiYuob5ofqii6z51DsPQA/O8x+Oplc2Mio0lOSaGz79ZREFpGdMuvxSr1eaXplL9c47avKxGGzsn/kup1QUphND99RK26Ggx5aJJYn9xSb3tQplZb84WFotF/OG+x4Tw19F5PJ6AuK7H4wnJeqqmSt1aUY+nUni9XpFz5IAYMmSksFgsIjUzU8yeMUeIHzmOzI7pYBHkxsCsYezRo0eg1qayMtwtLQJi8Xqtn0UDovBCCHG8oEBcffXVQpItYtT5w8X+3fuF11sthP8crFs3fTYwz/3gLkwhhNA0RZQVucRVN1wtYmNjxWVTp4jSkhJhGLpQ1YaFhsOEOVV+7NrZ0Guaaojco0fEk4/9UcTFJYgIh0Oc06+v+PzzRULX9UB3v8dTf67UNK/QtMavCTRVEup2P9dFVRTxw84dYtv27bXUGJqr+UaTXzCaBBfler3VIqFFC3He6NEi/3hBrddCkeDxlZYWiN49eoi2HduKqsrGXXz8FjEMQyjKiYvxc88+K1JSUgQgHnnkUXHsWH5AqkQIITTtxMRgumM0pur/1s1bREpKXaeX+g5DYX6asrIyMXj4cCHZbGLalVeKkuLiWjdrqqqe1D3oTGMeU8F/P/hvf/rJAtEiIUF079FdfPXVlyJ4OasorvBNZphGYfnab8T5558vEhITBZYI8fB994ucQ4eE1+MVun7CPcXlctWapzwe33EbipxsXKoqhKpq/utD85THa/IpaRNTOgNAlu0sXrCAqpoqrrj8CmJjIhsUAA4VfOr4vvHZbBEUVpaw8NPPSIyJY+iwYYHtvF5v8wpvhxg+9xlLoD5H0zwMHHIuPXv2ZN+hrXz68WIKCooYPHgQDocdq9WKphnIsoSuKxiGr+ShMR1jCoqOMWf2HGJj47j99tv9z4qAxEWYn8ZMPUVGRjJp7Fh+2LmHRV98TrQ9hiHnDg6cg4qiBArgf028Xm/g7wSnuIQQge80Oakl7dq05va77ubcoefiDkpBy7INRVHCc0eYs06bVu245JJLaN+pEyUFR5g3fwHffv0Vqgrd2ncgKi66VkOMYZyoGwyukwwVDMM3rmDFO03D796mUlZWSnR0NKqq+z3aNazW0C5l+Vk09or1l2D6njbENddeK1JSUsTu3bt/1Ec4FNB1392J8Ee4Nm/cILp26SwSEuLF4V0lAZmMcJTg10XXRa1jxYz86roujuYeEqPGjRJ2u11MGj9eVFVVCU1TAumTUIlir1u5SiS1SKrnJd1cUyS/BnXPs63btosBgweLmKgY8d6CBY06nmCx7ob8sIMxjBPzSpgwZxPD0IXH4/bPqUK43bo4lpcn/vOPP4mo5GQRHRUjBo7oJVZ8syIgD1U3RR2KxgjBqWozE2Vmqj9f+rnoP6B/rTkiOAPVHGjiS1/hd5OtT1R8AjU1Naiqr0nhbEQCThdVrcZq9UkQWCwWsnv2ouc5/amoqOTjb2cF7r5MQekwvw6+ngYLERGR/p9lVNVAVQ2yWrVj7sy5jBgxgkVLlzL5islUVjqRJCtCiJDxTjUM3X9enMBisYTM+EIdl8sV8Bc3z7WePbpx343XYpXgscce4/jx4yiK86ydi8GR4ejoaDweDzNef512bdrwzeJvAuMo8m+jaR4MQ8frNRDCHZ4zwpxVzPnQ4YhA05xYLBARIZGRmck9Dz3Nqm++Irt3dzatPMr4SeN44YV/U15eHrAWdLlcCCGIijqZS3xjYlorWrDZzOuE75Xy4mL27NrNC889h6HrKIoTSWpe5htN+iri+9IaPqiyW3fE5XJRWlzl95wO3fZ2h8Mn2RIT4zth7HY7t998MwAfvvshR48eBf+J2Nza9EMRTdMDkju+ic+KrkNaWhrPP/885w8dzbKly3jk0ccor6hA09woik82QlFCQ49LDtI8Cx83p44pvyOEjhC+71SSrEy++nrGTppEfs5h3nnrDSzYz6pWqqqqgcfzFyzg3kcfJS0tjfgW8ei675hL8v9v+kFHREjYbJF4vd6zNs4wYUxHLMMAmy3GL6tz4vjt2asPCz9dxDN//gOtO2TyyMNPcvXvfseihZ/jrKpq1JKen8IwNDTNCPqZwPk3YtgY0tLTyTmcQ2FBIXZ7TLPTU242NYx1yT2Wy4fzP+T8EePo1TcbTVMRgpCXxjBJT09n3eZ1bN6wmY4dO9KjR1dsNkfAaulkIqg1NTW1Xqv7c5gfx2I5ccfoswD0PRYCDAniUlIYdk5flm9Yz+qVy2mT2Zr+AwYG6lQa25A+7+hR5s6bR3J6OrfedFPg+VCVlApVLBapVlTWbrfTvWtX5s6dS+7RAsaOG0daWuoZ/7uqqga+K4/Hg67rgcyCeVwdOnwIi2Hw9J+eYsjwoUEyQQaSJNd7HK5dDHM2Ma83QhBU6+eLOioKyDJEREczYvhwzh02BCuRfLroM5YsWUpO3hH69M3Gbo1AluWApI2qutF1X6S8MecxSZKR5RN/3xe8951r0THRZGW1Z9So8+g/cCCyLDe7a2+zvYKkpvsm89yaXVgsFuz2iJNOnObEHEpERETw9yeexul08s2SJShenx6Ux+MJpNcVRakVeQDqhfFDM6wf2tRdLABoWhVWIBLo3Lsns956E9Xq4n+e+B8qKirAr4PX2I0lVZqGLgRxQR6mFoslvGg4A2RnZzNt2jS2bt/C90u/POO/v7KyspZzVUREBA6HI+Bbbs5TUyZPYc7sOQwfOaLW+4ObBEKxYSDMbwtJ8i0YfTfevmPabvctOoTqRgiDvj0H8Px/n2XmzFep8Lh449XXGT50FIcOHUKWZTRNwzAMbLZI7HY7ui7j8VQ29kcLIEknzjVZlrnkkklcdtkk7Pbmef412wVjQmIijqgoju4r/8ltIyIiGv1C3xB9hw5l6vipfLxkCZs3b0WW5Vpm5na7PXAHE5xybMrK+qGKwxFH8C7t1qUHzz7+HNVON1MvnhhYyEuS1KhpCKHrIASeoMEK4UudhDl9fF3wOvfd9xCZrVJ5/b3ZKKqK8wz+jbi4uMB5bFoZ6rrO2rWreXfuXJx+i8Jgh5owYZoSiuJCCJDlSCwWyZ/1c3DppVezf8cept9xGzUulV69enHP3XeTc/Cgbz4zfKVCNptBRER8Y3+Mk6KqKg7HCYHyhixJmzLNdsHosDtISkiiOP9o4LmmWMZ11Q3TiLRY+Pvf/oZhGPUiiibBhe3hIvdfByGMQC2OJMtc+rtL6T94MCtWrGXx4s9QVRW3W23UBivzu48LGoOmhRcYvxRZtiNJMpnpLblo7GQ2r9/M1vWbidB+nfpAnx2hxtKlX3Hbbbfx0B/+wK49e3C71ZPWbYcJE8poGths0QihYxj1r2NZWWn831//xptvzuC884by6quvct111zF7zhw03U0oV9Touh4oJ9nzwx7KKsvweDwNWpI2ZUL4K/hlOCIdpKS14Nix0sBzIRhE/EkGDBrEwP6DWPLVErZv2n7S1GJwrYQkSSEZMW3KeL3VyPKJ1IrLVUV6Wjo33XQ9OjDj9RlUlpbicDRu6lfxODEMvVbhuNUaEdKTbVOhDIiIimTYeUOIstv5z0uvntHUr1k6UFPjW+CXl1YyZ+ZsfvhhF1dffyUD+/Vr9OMrTJjTxbwkWSwSsmz1P/aldc1IXERUFBdeNJZ33pnNPXfez5adO7n77ru5+7Y7qKgoRVFCM1UiSRJWq5Vlm5YyduxY3n353ZBu3jldmu1lxG61ER+bQN7OI3i91eDvfMQfNjYjdaEeMm7Trg0TJ01ElmX+8u+/oAVFGIM/h67rOJ1OjKDcY6h/tqaCpoHVGoWq+jykhfClD0FwxdSpZGdns2HrLr5avgZo3HIASyWgW5CDVohhSZ0zQ4LhW9T1HdCPzKxMFi3+iNKSsjP2+31qDifkROJbxHHzldczZ+Zb/POv/yQiIgJJsqAoTlRVR1XDZSdhmg4WCyiK7xwy51FTVCIy0heJs9vt2O122rVrz7P//CsfvDeHzIx0Zs6azfnnT2Dpks9xh+B1zSddZuH47iKOFeVxzHUESZJoOB/YdGlWV5JgSRObzU5cbDwF3kKEMLu2dP9rNmw2G5WVlSHRDOD1egPFvUKIwCKw2v/6JZdMpWVGOmuWrWbL5o2Yp4v5OQAKCgs5mpdXa8HY3MLhjYXVCkJo2O1mV5wPIQQREQ6efvppyksL2LxuJYqiBOrQTDkTs1npdDEMo97vNI91w9D92os+tFgQsiA6pnZaXNd9TVOa5gm8Nyy3Uh9z35hSGcHfm3lqtW3djjZZbVAUheUrltfbrrKyst73ZO7/4O0a2v+6HhRBkW0MmzyOq669odY2dnsMNtv/s3fecXJWVR//PnVmdmZ7KmkECL33hCYgTaQFkNBFBFRAAWkqqCggRXov0qWDFEVaKCKQhJIAAQJJICG9bTa705563j+esjNbZ5NQ4ru/fPLJZOZ5bj3n3HPPPfccDcPoO0Xow5qFRCL4N+KlyAjXmReVruuMHXs4jz3yKKf+8nTmzZvDiSecwrlnn80nn30W81Ig18rlY2e8FfFiW9gfNw6fFq2/dMH7lmXFa3N3odOW5XKYRopBA9cP3iv5bVXWgO8K1miFUURobW2NFazSY1hddRnY2IBn2yxdujT8PaBOx3H4auZMHvz731FV9VtfOHVdR1XVcOfV1o/oesuIESM55sijWLhoIU8/+09U20bEx3HaLldMefddPvv447iMPqw+uG4xTK8WHJ84TqCyq6qGqmrsvfduDBs0iBdfepWWllYSoVTUdR3f95n6ySfMW7BgpepubW0NbxmqcZlNS5bQ3BRYtqKdLWEIpUIui/g+ZonjdfScZVnc9feHYvr6LmyWvmuIxkZRgn8Nw8B13TAtZ/BMurqaMbvvjG3bvP6f1+PnAJqbm3nyn/+Mx7atPKVDas/Sz/l8HhHh1def45fn/A7LakUvSe/Xhz78L0HTKEuv150H1aZbbMHll/yFm6+/hdr+Ddx0220cM24cr73yCq2traiqGstHTVNxXSuWvaUXEKOQdLqu43ketu0CQSNK11/LCrTXUjev6J0Zn80gn82HymNb2a7rY9seRx91FA/e8zeOPOIgANIlz0XlFYvFMsPOmoQ1WmFUFAUrb/Hwfffz1Zw5aJoWW+mqMg3UDWpEUWHG1BlxCBrLgkI+zzl/+AP6oOHouhEv8N8WImJVFKUsXp4B8Y3I3591FqZZz8svj2fZ4sWAGkea932fJx9/nJlfftmBEFtbWzupsQ+9ga4nQ78bD8uyMM10vDMFqK7ux0EHH8SHH03m46lT4+81TWN5UxNPPPoQy5cvXKm6q6uDoO6RMFNVDaUqyUWXXc7sDz+kUHARIc6MoBg6KApuri30hO/7tLbmufTSi6kWJcxk4qOqKtns6rznu+YjUvA8z8e2bTRNQ9d1EolE2ZzvvdPe+L7PJ1M/oWVFSzCmvvDvf/+TmZ98EpcT/auqKpPenMjM6TM61EUY/urjTz/m5J+fzl23Xs/ixc14noP7NV2q6UMf1gTE63lVikOPOIw3//MqJ598AtNnzGC//ffnossuY/HCZbE7h64b6HoQr1hR1Dhrl2UFPJpKpWIDTSKRQFGUWOmMZGxVVaAPBPqEi+taqKrGckVhyjvv8NIr4+NML4WCQ7HYgq6rmKZG/8ZGxo47ksaGOnzfxbYVdD0V3gzXyOVyoWvJmql6rZmtLkFD/zryns3PTzuNCRPexHEC07Gua6QSaUQUFi6dVxKCxuLKyy7jvQmT2Hubjb8TmTlKM3FYlhUfM1qWFd+IdPv14+cnj+Pd999n4ttv47pt0fNnTJvBU//6F0on27RI4ejDqkNVlfgYsP1CvvWYHUgkEvz3zf8i4seZhR74+3288cYE+tWttdL1+r4f+0UqCtSnq9l68y3ZZ+xY/vOfV+JLEgBusYD4PvVDBuG6Pr4vFK0s1994FU88/E8OPuKIsEwXkDi7UB/aYFkuhmFgmmbZPEdHVQCbbLUJ1dXVNC1rYvGixbiuxYoVrTz5+D/RQ+tu6ZGX73v8++WXmPbZtC7rvfveOyk0u/z5kr8wbNgwNC1Y/PrQh/+vcF23LOrHgAEDuPba27jt1lvZbofRXHXppRx52IE88uTjtLbm43ciw0lkP0kkavD9tv+LEGds6W6NVFUdXU/gedBf09BrUlxz/VXM/HwmjuOQShkkkzUd3tP1YIOZSAS8v3jhInzPX+MDea/RCqMP5FWdgw88hPcnTeKkk37G66+/CeGOvq62FkPX+Wr+nPidq2+8mmtvvpktN92E2toGDOPbH4IoMC+hP0ZkbSy1QFQDxx59PINrarjluuvQ9bbLDH+5/CqaV6zoO47+GmHbsGzpQj7+8CM8z4utuxHWX2c9hgwZxAuvvQAEuZvfn/g+f/7zxVQlTDKZlfcnjaxcETzP5vCxBzE3m+WMM37Jq6+O7xBKyco5qKqCosBV11/HVX+9hp322ioO+aNpZt9lmC5QmskhypZCaGmOUFNTw0Ybbc6CRQv5au5cVFXjw6kf8Mob46lNR8q9Gh95NS1t4t1J7/HO5290We+pJ5/JM489xEk/OQGALiJo9aEP/29gmiaqqoZHyMGGLZnUGXfkkTz84N8551e/4o3JU/jlqadz5mk/Y8mSJSUnduD7Dq7rhpdtoos3WRyrSMvyZR3qs+3yE5eIByPxO2TYcObNWcDpp59GMZejWPLOJx9+yGsvvha/qyhBpprnnn6W5194Ac/31vjoJWv0iqECGWDgoIFcfMEFTJ06lSOPPIKJEycCUJdOY+g6c5bMA+Cxp57it2f/lmxLCzvsNIZ0Oo2q6rhuseziwDeNUmf4TCbDwnmLmD/3K1y33MdsxIYbs8MPD2b8m2/y9mtvo6oaX0ybxj333Y54Hl7fCvO1wTSDnN9/u/Nebr72ZkTahElzc5HBAwaxzvCRvPnKR2SzWRRF5cI/XciyZcupbWygtr42zgizqtA0k5q6Os447TQ++2w6P/nJT/n4448BKDg1+KJRU2Ogqgp3XXIrvz//92TzBfbcff/VUv//OnRdjSMMtLYGluLOskHtdcC+LFq6hHkL56OqOv984gmalixlXlPwbpAxKFAY5y1exIIl8/jsnc/LymhttUL547Luemuzw/d2iTcXIjmcMCNGH/rw/xUtLcFxchSmJkhMUWSddUZyxbXX8sgDD5JKpLn7gQfYfMstefm11/B9n5aWljhzkmkGvueKElway2azPPXsY8z66gsouXhqmsGJi+MEfoqGQZl+sN7QYfSvr+elV17myqtvIBleQmtdsYJLLrmE3ffZnZaWFgg3mzdfcw1n//43bLLpBnhevk9h/K5g3I9/zLobbURTUxMHHHAA9911O4lkmkQiyRcfzeI/r77O7849F4BBAwaw9ZZbYhhGGGk+WWZJ+KZRmsEll7PRdI2rr7uJs395Mk8//TRz5szB931q00l+sNto0pkMf7ryErItLdz7xCNxOWldpzVcoKLMFIFzbl/4jdWB6ppqDht3KNfcdA177bUbz7/4L5pXrKCuLkldQyMDBw9BT7Xw1ayveODev/PWm2+j6ToDhw/FMAzq6up6XWd3oZF+PG4c9fV1LF26lB133Jdnn3uM7PL5iO9i2RZ333svv7n+DwBsuvFGbLHZ5vG7vu9h230B3tsjciVIp9PM+GwGjz38EO9MmIhjOR38g7fbcDN8x2HRvPnMnzOfO++7D4D+JT7RhUKg8H38wXvMnT2bj6ZMi4/CHMdhwoTXmTFjJqCWuaZ4noNpptG01P+SmO5DHyqG5/k4jheGMGtD4D/YFrx+7NiDeeGFZzj++OMo5osce+QxXPT7P7Bo0SIILy1CEBrN98PEBnX1zP5yMbfdcAstzc0kEonwYktwXK3rVfFmL4hjG+gHmbo6GurqcF2XB+77G6++9BLi+8z8chZvvD2BzbfanHQ6zYQJE9nvBwdyxvnnM3bs4Wy55TZxhprA7WwN3QTKGgzf98VxivH/r77mGlFBAKmtr5Z999lfqmtqZPiIEbL1ttsKSvDb9ttuK7O++CIsQ8RxbPF971vrRz6fjz9HfZq3YIGMPeIIqampkT333FOuueYKmT97tnw1d65stNlm0n9Qg9x1552y/Y47CiCKhvz16ivEtm3xfRHXbSvP85xvrW//K7DtYI5c15Nr/3qdADJg4EA55cQTZdbnn4tt23LqL38phqLIFX+9RnbbdU8BRVKppFx99eVfS5uKxaIcd/SxQkjzgwevLXvuuYeYpikbbraxDBk2LKANRZETf3Ki5LIFERFxHBHPc8T3/a+lXWsyXNcWERHHccRxHHn8+Sdlmy23kqOOPEqeeOQRERGxbVtc15U5c+eKZppyzAk/kp/94pR4Hi676KKyMm3blrPOOENQFEnU1kpL0wrJuZZcd91NUlNTJ+eff6EUi8WQ952wHZaIiHheIKP60Ic+dI5iMdABii1N8tCDj8g222wjmmnKjjvuKA8+cL/k8jkREfE8X1y3bZ1/6h//kH4DBsh5554rWdcWz3PFdQN+87pRB37961/Fa+6++39fli5dIR9++JFsttkWcufdd8r1N18vG224saAostFG68mXs2aK4/xv8PEarzCWLnoffzJVNtxkw1hwK6oSfFYUMaqq4u8PHTdOvBKKaF/ON43Sukvbsrx5oRx00EECiK7rMrB/f/ndr8+T0886XaBGGhsbJZPJxP266IILxCoUxPf/N4jzu4TSObJtW4447ggBRFVVyWQycvvdt8v1198syURSqhsbRVXVYONSWyuPPfaoZLPW19Kmhx9+WNLptABilNC8GdIEIIZpyO133y4iIoVCs/i+iG330Uh3iPjQ8z259+9/l2RdnSQTCRm12dry75deEsdxpKWlVTbeZEsZOmyomKYZj/fZF11TVlY2m5UxY7aLf588cbJM/3S6DFlrqPTv31+ef/75TuWPbdvxYtiHPvShDZZliW0Hm7uIdwLjiCdz586VU089SQBJmKYcd9xx0tzcXPb+EhGZ8+WXMmq99aQqlZLrr75SPM/p8FxnuP2ee2JeVlVVfvvb34rruvLZ1Kmy2667imEY8e/PP/28OE5RXNcuk7crVqxY3UPyjWCNVhgltBBGE1EsFuXMM8+IF2tFbVs0S//ec/898ftNni+O8+1ZF0VEXNcVywoUiiXtrIEffPCBjBmza9wnQPRO+gTIZZdeGjNRH1Yvmko+e54js2csk0022Uz0pCKQEUXTZMjgwWLoetmc9GtslLde/8/X1q5Ppn8oO+66XSf0oIpqmKJoSP9+a8vCOXM6fT+Xy31tbVsTYdsSW/kcpyC+70sum5VLLr5EqlK1wSIBsvdee8kD990ne+21V0c+bGdhnPbJDNESifj3J599VGZ8NkMOOuggue22G8R1LXHDIwHbtkusjO63MAJ96MOaB0dE2m+5Hrz3Xtlqu20lkTBl0KBB8sA998uyZUvFsoIncyKy5x6BQWbtddeWF158ISjLceKThs4w6a1JHXj+z3+8WDbZbLOy74455oiy91pbW7+Gnn+zWOMVRs8rNx+//sqr0lBfH5uMURCdalFAlFDZmj9nfvy873vfiSNbNzSJO05RPE/Etoti28H377zznqy33qhOlcTSv3+86Pd9FomvAa5rlbksRAv8PffeJ/UNjd3OyeDBg2X2l7NXe5uiebYsS359zvmiqlpcZ6lyAshxpxwevxcoRH000h3axtaNXUSWLVkmvzrtzLJx1UFSqVRHhfHycoXxpuuuK/v96quv6FCnZVmSz+elWCzKlzO+lP/85xX579tvSzab77ME96EPPaAoIl64yYvg+77MmDFD/nDBH6ShoUEymbSMPfwwmfTWpPi5W264NubLDTfcUKa8O0VK92lOJ6rBsmXLRE8mO/C9ahC7va29zjry1oQJYtsitu2I5wWFuq4bbwjXRKzR3tTBbakCpTEwdxg9mp123j343Qum0qMQz+o22+3M4KGD4+cVRcX3db5NH9RcLhcEZFZUPC+BooCm6WgaaJrB1ltvyaOPPkL//v27L8j1w172YXVCVfU4PArhLWXXzXPQgQew5567d/+urpLql+r2mZWBruuIgKKYHHbgwdSUXLTw292WP+MX55a0nTgygGX52PZ3Ly/rt422TD2BYFFVnYZ+DfzhTxewzwF7o4VD7YaXWtpjudMW27IZePyRR8p+tVhSKAAAIABJREFU//DD4Eb7wmwTb77yX+676y4uvfQiDj74YLbbbjv23ndv7rzmLgb064em+WEAsT70oQ+E634p33meA5aNIqCqQXi6XM5GURRGjlyHc88/j+eee44xO4/m6aef4LAjDuOPf7yclpYWDjzkMIwwhe60adM4eOzBfPHZ9Lhs3893qL+2tpYtNtumw/dhaFt0RWfsXoewxeabh2u4iqKoWBZxVpo1NmHCt62xrg60P4V97cXXOhwNRn8f+NvfxPM8se18aF10v3MWF9dtu7Ri221Hhs888YTU9evX6fEjIJdfdll46aXND9LzPCkUCl1V1YcK0ZXh9r0J70ltbW28s2z/d6/vfz9+dnX6rVhWNv5s23kZM2ZMp/XvvNkeq63O/y8oFruep8WLF8t2244WVVE7HW9Abrr6z/Hzs778ssPvyWRSGgcOFBSlw2/Dhg+Ta6+89hvqaR/68P8HSxcvlQvPPV8GDOgvqqLILrvsIhMm/le22bT8KHmPffaRhQsWiBdekInW08hHUkTkpNBHsrO/I0aMkM8///xb7u3XgzXawhghCp4eZdjYba/dOGDffVDaRcrJZDLse9BBOI6DYaTCOGkaqvrdyqYQ7EqCz6XhA/baf38u/vMl1NbWtnsjgapDobUV3/PKotirqhqH7OnDyqOr7JFb77A1991+O9W1nVsRh5VYs9uHh1gVmGZbIHDDSHHGGWegtssioGiw77gf9KWX6yUSia7nqV+/Rm689kpGbbRRNyUMiD+9+vKLHX4tFossW7QoiN8RoqqqiqPHHc1DjzzEaWeetgqt70Mf+lCalSlCY/9G/nT5X3jqqSc44pij+eSTqeyz9/4sy5afErz2yitc/KdLaF4RpFeNss2Uhr36wc77dFqvZpqc+5szGDVq1NfSr28b/xMKYxuUOHvFcWf9mky6PO3Z5ltvTmNjY4fc0WtKghQzkeDYY47mgnPPo0SPBAqID8WiG8aVbEth14evH6MPOojjjvhJ/H+9RHdcb8NAsejs6HJVUZrVcr999mGzdTct+72hpo7ddx3zrcYY/V9CPu+gKCpb77gtN99yI2Y6jd7Jc4YRxUKFf45/tdsyFRU23GAT7rrzXm6+5Wa232Z7RCQ+slqjY7b1oQ/fMHw/4LvusliNHr0Lt9xwI3fdcTdrDV6LWbNnoplmzMu+43DXvXdz1VUXA2AYBqqq4rqFOHj4RltsjB4bYtKxzD9ox3059pgT4WuS+d821miFMdL6IwTpgIIu7bDJJmy74+iy5w/74cEd3rcsD88rfkMt7j3KfMx8j6qkxtm//Q2//Pmv0fQ2RUB88P228Yjt4+LjOP97hPtdgW3n6J9IcNJpJ7HVtlsCCm7JcG+90dYAcUq+1QURIZRdAGRqajhi3OFlz4wZvQvrrz8q9MHsw6qiqiqw4Opagj12/R733fw3kp0EY89XLQdg7uzZTJ/6Sbtf23an1YkEx//kOF57+XmOOPIwaupqMAwDTdPIZDI4oS+qqq7RYroPffjG4DitsZ92S4sV6wjBWm/R2trK3LlzmfrRRzz73FMsWL4MRPBsG7eknHw+x6WXXs3td98bG2JMMx1nhBk8ZAj96+vDp3O4hSDP9ZV3X051OshNnUqlOqRsXdOxxksi2+5oegbo19CPw394MKlkCj0FNXW1rLP11mXPuG6RZFIryxH7XUN09GjbNqra1tYLLvwDJ//s5yQSbW2PcmgCWKGrvKKoHfIe92H1IZqfTTbchHN/eTbVmX5lvw9aa9DXUq/ntR0zR0cm+x20H8OGDQMgkTTYZvQW1DfWd3o804eVQ+mx1KFHjuUvF11EQ2ND2TO6ExxJf/LZJyxcvLD8N6oxTZPdv7cHt973d+6+414GDh1a9kwk0wzD6HAa0oc+9KFrmGY6TuOXTisUi0VmffEFzz73HDfdfAu/+Nkv2G677dh5l1248857aF60uNvy/vjb83jskQdx7GDzFmWEMQyDbUZvV1KvyQnHHc9ag0fE8rYIuO7/lrFmjVYYFUXpUqAqispe++3FsHVG4hZgg3VHscnw4WXPRIqU5znf2XytkYm9Paoz1Zxz1jns+/3vx9/lacUneNjwHNTvaJ/+F6HrOj844AAOPbQtX7OeTDJ47SFE9+wcp+ONu5Wvr+MmZ/jw4Ww/ehtQoLG+P7uN3n2Nz136XYZuGBx97DH8+Jjj241zC57n8dFHH7Fs2bL4Ww1QUg5nnv5Lbr/lRn50SPmJR0QfkUxzXTe2MvahD32oDI7j4fuCZdmMf/Elrr7icn519tmcf+45PPDgAyxcuLDb90s5ecGiRVxy+V94Z8Jb5c9oGhuM2CD+/3rrj+DoY44h2e4kySj3HVvjsUYrjN1B02Cddddl3x0DhWrd9dZjWDuFMUL7sCnfFRSLK1AUUFVi34kImgZrrz2M6266keFhv9JqDWpI7lGfrL77Dl8rSg3cNXU1XHHlFQweHFx0GTJoEP0aG4lEiK6vPktv5OPmeTaK4qMoCvX19eyxzX4k9RRrjRzJLrvtBmEYoD6sGly3iO97KIqCrrcd8dfXN3DhH3/PrttvH39XZzSQzeX474QJeOFuTzUMRu86mg8nv8+fL72EdTfYEE0vF7+6nsK2vTj3u6ZpZXX1oQ996B6KomKaBooCqVSa7++zN3/561VMnjCBye9N5p777+CcCy/gwAP2YZ3hG5Os7WhwKrPPCMz8dC6n/+p05rYsib923Rzrj1onVqCOGvsLNtks8CEPwq6B6Qdr+P8S1ghpJCIUi0USiQSKouD7Ppqmkc1myWQynb7j+y6qqvO7v1zAY+MfYofttu3GGtm1shjVG7VDVVVyuRzpdLrLd1YXksna8Mazha4bgBK3IWr3iBEjmDBhArvtsSdFp4gfWhWjPpmmj+s66Hrvj7ZKx9yyLFRVxWh3E/frQKFQIJVKxUethmGQz+epqvp6d2ue56FpGo7jxIpB1JauYJqBJUhVA3/R/v37c8O113PiL05gnbr+qIqCiI8AjqNidqG7ua4b03WhUCCTyZSNf3tEdF+qDCqKwu6Hjabh+gEcd/QRsY9rd3xCeASqaRqqqmJZFslkEtd10XWdYrGIaZr4vh+3b3VZLT3PQ1VV8vk8qVQKRVHI5XJkMhkKhQLJZBLf93FdN3Y8X52IaCqfz5NMJnEcB13X4zkwTTN28+jObaWuro5nXnyRvffai7cnTiSfL5BtbWH61A/QNI3Baw3m2KOO5ayzzqLfgHKXBc/z8TzBNDU8z8M020Ryd3JpdUJEOpWpPdHN6kI0D73hu9UFz/NwXZdEIkE2m41lzNftN+p5Xkz/qqriOA6+73/tfY78+QqFQryGfROytRQRvxUKBaqqqmLaW10o5ZtkMgnh5ZS6zWvZZPO2i4GeZ7Ns2XKWzpvP1GnTmDXnC76aPosvFixgyeIltDYvJ5vP09LSyoefTONn+x/K9fc/wMgRw6iqqmfd9UdRXVvH2hsP4tyzTiijmWifl0y2RTSJ+MmyLAzDCONIB3SQSqXK6H91wPf9WKZG85vP50mn06FvpYrr5lDVNKoKlZD8SresWCySTCaxLOtr97OJlAZVVfF9P3Yk7U6YRUfMjY39OePk82JrS28RhaSJFkzbtr8RZTGCCGhaEMw7aoOqqnEIIU0zGTx4MDddewMfTZ3S4Ual56krpSx6noeu67GymEgksL4Bc6XrurE1tZRxvgnH/0hhLFWKuxPgvu8CSjhWbWP8/X335vBDj8Lxg8tUgWCwMc2uy4rqpoSuVyYc0qjhG3Ho2MM45IcHxt/1tOiXWq+jOqP5j/5fOi+rCxEfp9PpUOlW47ZG4+55HolEIpY3qxORkhgJ00QigeM4aJoWC3BVVfE8D9/3u90sZTIZbrzuOk75xS/QNI1pUz9j1pz5HHbojzjl1JPYefTOnb6vaWocQisa82CDGNCTbdvouv6103+pTI18NL8JZZEwpBChz6ZlWei6/o0oiwCO48R0lclkYovw141o4xXN7zdlTY42B+l0Gt/38TzvG1MWbdvGMIx4IxgpLt/WxRBNMxkwYCADBgxk4622ir/P5/O0NLewbOliljQ1sWDBIhYuWURrYSHTpk1n+NC10HWd+vpGNt5gA/505VUYHULddUTET6X6ku/7sVxd3caYSFeI6DrSXSIaCKyxgS5TKdkr0ovZsm2b5uZmHMchnU7H/jXFYjHeqRMOTHRkVl1dTWtrK4QR0leEsY1qampoaWnp8Hw6nSaXC24Gp1KpuOzoO1VVMU2TYrEYlxHVbSgKuqpSqNJIZatRq5rJFTyKWpFqyWCYJvl8HhUTUip+sYgh9TiJ5RhOPY6/HEyo1XRWFNxYYUqlUrS0tJBIJLBtm0wmE/eptB+ln0v7XdqnqqoqCoUCIhIr3CJCIpHAdV08z4t3H67rdhjXQlbwMxYNtkqLqIi48YLbvLwZrV4jkWvEYTn1hkFTwkHPphA8/Fqb2pzOinBBMKoTmHmXXBCHgFSViZu3cTGprk60WWBaWjDSCQp5G5MG7MQy6jyD5si/qkqnn6exNFIoq03qi8Ly8HelJkEm79Ea1mtmEmgFl4LngaqQTplYeRsvZCZFUeKQBBENZDIZbNvGsqzYd7VYLMZjGo1R6ViXzkFP82SaJp7nkU6n499oJ9gjC6tlWZhKP9xkK7WOzvJ0DnWFSbWeoNXLgqLw+Sef8uknX3DU8T+iWCySSiVpaWmlVm8bf706QSLvkvNUFMWlujq4XRfVH/U9ohXbtvF9IaWZuL6NU50gk03iVrXg5xqoSraS9ZLo2WXY/aowbbWMT9rzYNT3SFHKZDJl/FTahnQ6He+QI17t7LmIliOLSTSupRuQSH54nodlWfGuO3ouov+qqipaWlpIJpMYhtElP0VtaM9PURtK+am0DTU1NRSLRWzbprq6Og5hU/pcKpUil8uhaRqmaZLNZuM++Z5OTQpybgrXWUGquornXn4RPbuUtz/6jCGDh3DkYUcyIJVkRUkct1KaisYz7pOhoks1rrsCtcokUzTJprP4rQppzcTybVwRMFRqdYMVhZDnUjr9/BIezBg02grLIp+J2gS1Oa+M9/V8wIMRHaTTafL5fLygRacKpfQfyV5FUWIrUfs5KaWRnmiv9PlImWhtbS2bp1K+W928n81mSSQSaJoWW74URVlpmupNWyMf1SDigRm3oWveL+enSMGINjk9zVM0/slkkkQiEY+zbdu9mqfe8n5kOY2+i/jJtu2yMVpdNBW1IRq7guKQyDcg6lJUDMxMgpaWVhKJKpLJ4DZ1IhHI+lzOpbY22ECYxSJNSRW9GFhA7VYVNbECXxqp0/NMXTSLD/8zhR8ecShV+DR70AgsS9ik8oGM1qQfhr48XvtK5Z6iKGQyGXK5XId1f3XRXtCnXGzJjcY/k8mQTqdRVQXPs9H1JJbV0m0MWnqrMG62xbZM//JzBLBbWzENIzCBpVJQKAT/AuRyEFnhslmIdqqtrRAuimWfS5/P5yHa8RQKgTm5UAi+y2ZRMhnEtlEMA8lmgzLiul0oqmAWQJLguiiJBNJqolTbCAUgBThQ0FESCqLmwNIDG7JWADK4hTCWXqQQFYtBPZaFoutIqfm8qz6V9ruzPilKUK5pBrZgywocE3W9rd5QICjFImI6KIU6SOeRnAvpVHgXOhXWGxC5kk0jmeVAGshBth4l09b3uG+A77qI56GFC4RnB3HhVL0VnKA8u1hE0VRMNYWYKoraithJUE3QI9IpYLcmMaujo4AsTi6DERlipRW3WN1Wr1NAJEV0mupZFqquo4TjqhRsJGUijoNTLJLIZBDfB9cNImj7fuA8GFmcSmmvdKwrob3oGdsO5qFQQK2uxgfUfB7fNIP6TDPYhkVtkCwU05DKQms/lOosQjEcdxUFEHIoVCNOEbco6NXtLL1eHtxqSHiQzeKZJpqqgq4jjoMUi6iZTButGEZbRHfy0FoH1SugQEhThdAt2YRcIXg+LK9Tei0dn5AHlSi5ZPicUiggiUQwxul0Oa+WjnspXVtWyE9a27i2p+t8PnLODebctpFkMpAnxSIeoIW8r1RVBbzeFT9FbWjPT1Eb2vFTad8Vy0J0HVEUnHweRDCrQbEakIQDtEK+AaqykKuCtNfWJ03DLRbRU6CQRFBQADsLQhYzk8HJ5zGqqlAcJxhXwwhoKKKpkvFUCPhOQp9Hv1CAlALZDGSsMBlhRENOyMtRn9rzYA47m8aMjYStuIUSHnTziF+FZgYygoyNk89jeh4SzXsyGdB8Kf07TjDP4Tx1ynelNNIT34XzZOfzaIoSzHl7Winlu9XJ+6HnumvbeJZFQtOQqqre09RKtFUJZS+JBHaotEpIUx34qZT3u+KnUprqap6ivod9UiwLV1XRdD0Yu57WsZXlfU2L22C3tmJWVwdyJpsN5isao9VMU8FYOlAwINUaHqgG46BUV+NaFqpto5TQQ8AnSaCIngQKDShVWSRXBekVQKZE9gZ0o5kmimchfhpMD/wc2LWQdAP5gY5CKghz57qI7+PaNkZVFeJ5qIbRJndXF+1BOa2E5SqtrUh1NScefRyX/eVSklU1mGZQTCUGzl7ZwKd++B5rDx/OFjtsSq3RDwcLBRUdAxcXDQ3bstETOuIKogk6Oo7nYOgGVtHCSBr4jo9iKKi+iisuhmZgWzZGwsC1XVRTRfEUfHwMzaCltYVJ701ifmsrh37ve6SqaxFUBDd4TvFR1LbyVE1FCf/4toNuJnA9B8/x0JJ68K+hgeWhdNJWEUEzNFRfRUT4eNoHTPlgKsOHD2eXHcag6kZbnywLI9GxT6Zmxr+V9UnxMVQDy7YwTAPHctrGSxUM1cB2bFRDxS26iPi8PfEt5s6fz+EH7EqitgrF17CtYHcRlRcdlycSOp4CvuujaAqqooDn4ysKnu2hmVqQX9sNxkDxA59Q1VDxPb9Dn57697O4lrD19hux3ogN8SwHElpcljiB0qgYCr7tt1kkHBtFVdBVHdux0XQNTQl2laZp4oqLuNI2LmEbxA2sJwYa06dNZcL777PX7qOpzwyKx7w9rai+iicehtY2rq7tBn31iMfIdoIjkVIaRQMNDcdzUHUVS0tQVSwyc/40Jr33Kf0bG9l9113R0bFsKygTcC0XPaGjoWEVLUxTwxXB1MzgmMXzUHWdorhoroQ8beD4DqqowRGsqSKeoOoqOjq2Z6MrCqpq8Pxzz2D2q2ennXYN/AtR4/76XuCboqgK4gi+4WCSwrGdePxRwMML2mdZ6Ik2ui+jUdtCURUUTcFQDOxikbffm8Ts1lb2Gr0d9bX1JPQqPMVDDf9E9OE5XkzzlYy/5ViYholt2WgJLRRAOq644PlousGsBXN549VX2XHrrRm1wSZBP1wHXTNwwzZUzE+aBH0q4aeI/g3NCKwxpo+GgQd8PmMm7707iYZ0A3scsCcabW2N+ElBwfd81HYXVpLo5G0b1fTQQqXOx0JsDauqipSbx0cJkgugxLQnCIqnUCzmePqZpxkyZBCjx2xH2khh4XWgUfEF0zBjK4RiKF3zoG2j6Aq6EliRNFOLac8wjFj2ZrNZJk2ZxLzWVnbebTcGDhmMCjiWoCUC2ovGtTf8FMkSM2GW0Uop7RmmwYKFCxj/yniGDhvKtttuTzrZdnqlGAqaaKuV96P5VDUVv2jz+oQ3WLxsOfv/8IekjFSH9aS0rZ3SXgldV7r2YXtganzwwcd8/ulHbLThxmyw3vpoporneD2XV8G4tm9r+z4tXdHM8y88x8i1BrLFFtt1KK+3PN1dW0vXSN/2Ec/m2ef/jec5fH+/Pag263u9RhpG27h2Jss9y4vXSM/2ylxaPv30I96ZPJm999uP+rr6oE+hBc7FCdW3gL5830XRVUKhWt73qiSKK7iWBaaGZ3kBfYUy2nd8EokEnuMghoLmq8z84gsmvT+JwY392HnnXQCfBDqFsE8eXpku0xn99zRPZet5OEYaGjrw0D8eY+Gi+ViORY3Zpm9Wgl47TWy/3Y785YpLqK9uxMNFQUFFw8dHQcFzvUCY+sH4qoqK53toqhYcx+ga4guooIiCL37wmxcc1fheKJglUBg1RWP+vHmcdvqpzJ8/nz9eczlr1Q3s8JyiKHF5ihrsspXIv0zT8cSLF2fxBEULBb/Wsa0IcdkAF1z8W6Z8MJXtttuOS6+4nOrq6lXuk+d5gcAKf2vfBkVV8F2fpYuXcsaZZ7CoeT5/uORyBg3pF5TjBZdfovIiB9poIRNfAudfJfiMQtxvCD6rmgoS+LUomoL4UtanQr7Ayy8/j6UKJ/70FxxywEFxu+Oy/JL3vaBOVVVxPTf4rAQ+YIqmoKLGvnq++G0XeEragA++6qJjcv3V1/H2++/zx4suYeSwdVfLuKqqGijLncyZoiq4qo7uutz94B289eZv2GrLLbn++usDRcULGBgChVzV1ZjmFU0BAU3VYr8cVVWxKaL7Zjg/BTQjFY+DqgUbEkUNxya8hasqKqPffoO11x/FVVddFRyThYpKNE/R3Abj5aGj44VCKvJ38/GDdrtuGd23p9Eg4H1Qr53L8dPTTmT27Fn8/KRT2Gm33TBUM+ZvBWXlxz/8LZYRgUjGx49p79GHH+eNV1/l8J8cyfFHnFAmP6I2rAo/RfQfvYMm4dj73Hzbjbw/eSIjBg/humtuLGtre36KZEyEaE7RfNRQrAoueCquYaD7UXicUGEMaS+KsD9r+uc8+czTbLP9Nlxz3XUkzSSCdKBREUHX9NiXu5TvUIk/K4pSRk9d8aCmaixbvpSTf3UC876ax+mnnsnOe+wU0rjENL4y/FQqS8rmrB0f/2f8fxj/yni22WYbrrvuOqpSVUF7wz6tLpkatTWeT1VhyaLF/PzUn5P/4ENuvP56EolUh/Xk65A5ES9ecfWVzPz8Ew496ABO+fmpMZ9GtBe/sxrW0vZ9mvLBu7zxxmtsP3oMV115Tcd5CvvXvjx8EEXK+t6btoonLJ4/j9ffehNffC664M+MGDFytctyKVkjxZMyH9Ebr7uRdyZP5rzzzmPTTTeN1zFN0+LQdNBRp2gvz0p5qlSniOSF7/nouh7/rojC3x+5k8lT32PHrbfiumuvKZP/qqoGm8iSeiulw/a/tV/PlTASzFPP/xMUL7Jp9gq9VhgVFBpq+1FX3zHDQSUQkfgWU3Qa3tNtQNd1SVcFZuP6ZE2HQLnd1RW3exVuHA5qXAsATTRqamt63feV6XPby5BJZ3DyUNdQTWNDv55fKamj1/WVwK7Oo2QysHw5GTNR8bi3b8vKjn11eMzer2EADf16XzcrM94hBvkDITwEbGxsXOm6V4XuDMOkoaFhpS4ArGzdVnUVWnizL1OVYUD/gV2WTwmNRXXZdhYj9EVYmfoH9u8PQFqvpq6+rsPtye7mc1Vo3fd9ampqQXQ01A63mSvBqtTftCiQb2oSavvVUvVNxm/TFHSCOVdRaWzsfd9L0dtxiC4DOJZNpipFbUN9j++wGvgLwPE8UjW1FByHqkyG2gouL3TVv6g9vem/6jv4CiQzCfoP7N+ruleF3gAGDFwLVVEwzWRFdXfWhs7+XwmKfuDqpLhQk67rkd96muvetkHvHyiFtbW1KyXf27enN7SYVvqh+BrJRIJ+/Stfz1lNkRNM08T2FPyVuGvU66t3q3pjz/NsfD9K5h3c9PW87oPTeri49P6GbnCLVXDdAr7vrXRw7mwh2+t3SrNrlGbliL7vqc8RbM+i6PY24LOUjKvg+ysX/NfzwCkUQFVA73nOg/ksv25V2veVhU3lmUpKx7WN1oJ5932vQ/u6QnM6cLZOrEK4B9cthjfS3AqebgdDY1VCNrtuW7rL3mR68fDwrJ7HKBhXr0P5ppmJ+W5lkKWpgnr9DuPqeU5I5yt/49KzVPB6L5Cj8E+RPFsV6L6O5q9aiJHOZF2PNLBa81X3juaLBPJVTyZQzcpvirbPohHxfvRvJTJfPA83vGTRm0vKbXK8bVwjnusN/WumEZxoVTDn7eWZiIeI126tqZzX84UCltvzPLWX66W8z0qsaUBwJC+BAhSd2nSHUnnWHivD+7qzapuiiPYiXaY365ybBFGhWMHYB2Mb8FN3Y9AbeJ5HQlUDd7VeoteaX1HJ4VFZRyOGdd22wSwNP6KqGppWgYDwQFZi9dQ0I0yNV7VKmnnKCJjZM21ErVSwKnHfS2O46XoiPjJyXatHgaZrOoZRWTiTqLxgRxLtuNSyWH2lCnpFOaZFVimm+epIu6j00IDSPpXPs4KmGaiqhm3ngmM6z+5VGIdVsxCuQmgQkZUe9uaw7kCQer0KSq84Jr4bLjrdTF0wrtEK2zaejlOI+Y5YmFceqkTLdz9m0XxGiISooihomomiqDhOIZY/vYMVOMn3Ar7vxspRxfKsl+gqQ1BnC0iwKXI6mfNuaEAkjqthV+W6fq4EpTnuy/LdxzLHqDiHvZTQT0+8TglNtc+isSq8mtR1KnndcQphrLxoHQteKg2FVEr/PUKC3tsVxTVRyuhfVfVOkk70gtcBoyLjT3mZEe9H8166plUO6ZWCF8lSxymEN4TbdIpS3q+8+pULqN0V7fVmnfNsD/GFZBc7lHJ+UmJ+Ks1MtyobUxEJj917v7nutcKYVmvQlc6FouPk48VY00xUVUNROsYBjHYkgdZsoWkGltXSaZlBWTqGEZZhLunyufaIsjMQCrFeEVQJoiM2zTZR/O7LKO1TZ32PoKp6yGjdl+c5Pm4FFh9ixlXDhcvsdPFSVT3+vieFRtfBSFeBJ+D03AbHycfCzPe9eEETkTgEA50sMD3Bbe4+Hlxpn1RVx3ECi3Jp/00zHefVrkSwpUMlvbASqdlK+x74FK5EfDXXR5z8SjF1KuSlaHEJxqRnK3UgSLKY6eiWXufPtefVUmHZnqbaK3g9IV0V8FrOyZUpEhEL0CUyAAAgAElEQVSKxSKu68bjGtVdOsaGkYrlT6VQFNASRu/MTGG9ppmMaapQKHSIhdobuK4bX2iJ0H5xisY/6nspP0X55qP2uK4VxmvtWpFVVBUjdHsw85XFmI3itxHn73XLFnF6sWGqIgjloSpqRbwZ0VSx2Fz2fUQDEe9F6093UDQNI5Wi2KxSCauX9sm2c/G4ViLLO0Nzrg5VUaiq4NaBqmqxEl6aQaR0bnuzYdE0r4PLR2cIeK3jc6U0EKFiK5ipQ3is3lXsy1KasqwgtE8kv8sNT72Xr6q9coaM9vJMVfVeb1QyaQ1NU1gahitqj9Jx7Ww+Szfrnuf0yqpMeEpse8Gy3lv0eqQLTg6vC+22VLAFabRU5n41lznz59C8fCmZVDUDhwxm+NDh6Dr4vho7onYX/8fDxQlDyLgrBkLobmHbuU6JltDsGpQfOINOmDSRhpoGNt5ko952meZccwVPBQgUtoCA5sz6innz59C0ooXqVIoBaw1m+LBhJJOpMGONFyqy3RCc4QdhV3qB6Ip8oVBA1VQmvTOBxrp+bLDh+r0SKK4LTi4PmgJGz4LFDGN4zP1qLvMXziXbmkNVFBLpJFtssjmuW0TXk13OWWf1A+h13bsESJzdRqV5+XJmz/6KJUuXIuJTXZ1mvVGjqK2p61Vg1FxrwISplQimqqoac2Z/xYcffcSe++1DlZHAdYsoSi8sULoa8lPvrSaep/Ovf/+bDddbj3VHjUJRlIpymiqKQkJNBOFcoEsTo2lW4/setu2EQXhdmpY2M3vOl6xobsH1PBr6NTBy2EjqG+t6pbg1sxiAtJHu1NoU3XS07Vy8eFuKysypU1i8pJmWlhX0a6hnxLojWWvQkIrdZ0TAtsB3gXS5RT84KfF6TLH42bSpNDVn2WbrrVc6yLmu6z0GcE4kamKldM6sWcyaMw/LKpAwDIYMG8bQoUPjeKa6nogzEXUF8f3A9aQX8DwHx/aY8cU0mpYsJ++41NdUs+7Idaitr0dVBUXRUFWtjD87Qz606vqeF4TP6gZtR/8Ki5Y08eXMKeStAmkzybARIxg2bBgkquPnLMvu1gdYPC/oe8au+KZoLpfDtgrMnPklTcuXo6oqNXX1rD9qPepqa8N0nRqeZ/XId3XpZkQEpwILY2DZCmIezpgxh/nzJwJQX1/D4IH9GTB0bfAsFJSKlHXHVSnYPSsbpfRfLLayYP5SFiyYx6LmJQyoaWStIUMZsfba4dpX4SDabnCKoihdKq2la2kiUY0LNC1eyuzZM1i+vAXftxk4fB3WHzaMdHU1nudULF99fdVcRyZNmoDtOmy/zfZoutqrdTWfD3Jd13WTACQ66o4s9SIaX3zxGYsWLMVyHFLpNMMHD2bI8OFhFrjK4bouKU1DXwmLfK8VRt3QO9wQbI+AUYu89NIL3Hzj7Xw6/VOam5pJJxKsvf66jDviKH7+s58h0iZAusvkoPiguApaooBf4mPUneJRmsJs3tx5HHPkkRx/1E+46NI/9rbLaJHVzHAQpWfrgePYPP7UM9x/5118Pv1TFixZRkN1hpEbbMCxxx7LcUePwzSr8DynzXLaBVRfR3MrW3w8z0ZVdTzPxjCSpFIpPv74U44/5mSOPWYcF/7htyXPGT3ujHxHxVDVincihUKBd95/n9tvupWJ77zJ8mXNaKrKoOFrcfAPD+bU009nQP/Kd3ZR83x6XkQAli9v4pKLL+bll8YzZ94cfN9nwIABbDt6NBf8+jw22GS9yvMqh830VyILQSFf4Kbrb+KOu+/k86++oMpIoOvJDhaYbrEKx2svv/wyxxx7LH++8EJ+dfbZvXrX1gSJ5HeiO2uBxPz62eczueWmmxk//nkWLVyC43kMHjqYnUbvyplnnMamm25ecf2JYnUFT4Fhpsn7Hl42yxU33cyrTz/D5zO/wLaL1NfUsOU2YzjzjNPY7Xu7VFy3prioige58kU0UHh7Vnp/e86vyboqDz/44EorjJ1lvog2Wp7nhApYkI3i6aef5p4772TqtM/J57NUJRKsv/HGHHfs8Rzxo0PIVAeX83pj8XRSlSmOudxybrj+Vp7913PM+fJLVlg2gxrr2WrzLTj1rF+z0w47YISbzLYLCZ2XpYb+6ZVm/SgU8jz44GM8+uT9fPzBdFryWapNkw032YTjjz2eA8cdgZlK4rpOxfOQ0IJxrQQL587l4quuYuIbbzJv/lxUVWP4yJGM2WF7zj/nfEasMyLol1rJJk0NDmcrqFzEZ8G8edx400288OKLTJ8+HYCBA/ux1WZb8LNfnsMuO++IrnUtO4ITNwms85pGogKLekT/rlvk6aef47bbbmPmjOksWtHCgOo0o0ZtyPEn/ZgfjR2HaVZoZVWUcDMs3R6iBMp3Anzh7bcmcttttzNp0hssWrQUQ1UZNGoUB++zDyedfDJDBg+orG6oaB3vDL7vsnRegR+fdDRDB23CQ/feT22/rte0wNfaKVt3IiW4u7Wl1GpqWx733X8PDz/yCJ9//DF52yZTW8vG667LT0/5KQcfdhgJPRHLiZ6gKAouHv43cUvat6jAMVzhjbfe5PRfncnCeQsYO3Yse++5H4sXzOaCyy7jg8kfUm2anHDKKbSGa3N3jO0rCp6m4tlg1i8BBlXUVsuysCyLn5/xc2bPnoO9kqntqhJhflFXR5EejjgUlRfGv8RZZ/yK5mVNjN1/f/b/4SF88sWHXHnNzUx5fzKG63LCKT9DVTvPE1wKV7WwtcqEeOTPEo2l3dTEuef+ji9nTcfKt/nYVGrC1xN+EAS0UAC3ZwabO38u5513NhPfmsjuY8Zw1qlnsSjbwp233sxll1+OXSjwlyuvrKhuADUT7Jyqi90TtqpqtACnnnQSjz39NBttNIpf//5U1kqtw10P3MVD99/PlA/+y4v/eJmhI0dWVHd0RNTTzt9x8rEVwXWLaJrJ+H++y50P30Hzihasljx2shZFocfNQRkMjdZia48LSXQcEQmkTz96h1+fdQZWsUhrsfdO0hoaatTOLowPgb9SGw1dcNHvePqxp9h01Cj+eN5vQDe4/b67ueeeu2heuphbbr2V/gMH4rqFeKy6Oh1ImEHdhaUGSDlvBP55LrqewLYgldD4/RVXcsUVV1BTk+GnPz6RrbfYjidfv59H/vYYE99/mVeeGc9GW25ZUd99RassoWoJPM+hBeH+m2/j2edfYdvR27GiZQX19ZXd9O3QhjD9ZymiuY34VlFg4ltvcf455zB3wQKOPu7H7LXT95j88WRu/tudfDB1Kv3rqhlz6GH060G2Eh5J66Hyr1uV0eiF517Hbff8lfr6Bn7x05MYOnQk9z7yAI8/9TTTps/gwfvvZ7Nw3HuyMJsE1jBfEXyle3pXFIXxL77Mhb87n0VLlvDjE8fyve0PDPp+5x1M+ehdGmrTHHjo4RXxm6Jp6MkkdmsrFdxBAOCIo47i/SlT2G7bLbj23GtpWtrErbfdyB23386spdN5+M4nKrptDbAiF5zKVHKG5Htw59/+xl+vuYZERvjNb/7MgJoG7n/0UR77x1N8Nm06L45/mbqGdHza06G/JVbeKFd6pXj53y9y0kknISL86EeH8IM9D+LF8a/xwMN3MfHdSRiKyZFHjqusMF0NQlSFaeq6amuwZinMWzCP8887kwkT32X7Lbbg12ecS3Pzcq669mquuOIKWptauOzKyyr2KPHMni2rUeYT17VCf1GNrJPnsisv4NOPvmBg4whIeD2m3m2/3ppmcKpYmd8qjH/hBc773e9oXb6cs848i8033Jw3J73GHX+7h88+/5y62mr23veAio0hmqbh+lS8QSqD9AKAHHrMj6VpRWuH32w7LyIixWKLZFta5CfH/lRAlTN+dXbZc08+8Yz079dPBg8eLMV8Pv7e89wu610wb57stcceoqjI7C8Xx9/7vh/XW1pG04omufzPl8kpp/xU+q01OPKuld9fcGFvuhvjjPPOEEB+NPZHsrxpeYfffd8X3/dERKSlpUWOPOooAeRXp59d9swDDz4o6UxGNh01SpqWLauo7vlz5ssB+x0ggMydO7fH51esWCE3Xn1Dh76fe+a5veqziEgul5O6+nqpqa2Rhx99uMfnb7v9dgHk4IMOk6aS76dNmyaDhgyVhoYGaVnRIrZti2VZPZZ32Z/+IoDMnDmz2+dc15ZXX/qHpFJJWX+DDWTKlCnxbwvmLpA999lHDN2QS664WSwrJ77v91j3DdfcEPTlkEN6fFZE5JWXXpGLf3+RfH+//cSoij26pampqYK3O2KDkSPlhz/8oeRLeKQ9isUWERH5aMpkueayq+VHxx4j/QYOEVDENE3505/+JK7bNV91hnyrI/vte6AA8uK/Xom/b8+fluWKbbvywZQpAsjoHXeW2dlc/Hs2m5V11t9Aampq5IXn/1lx/Xc9cqsAcuv9N4nruWLbuQ7PeF7AT5989IFstcWWouu6PP744219yOblzF+eKZqmydEnHC2u68ZzXiovysv05MrLLxcVZMxWW3X6TOlY2nZO7rr1b/KHC8+WMVvuIiqqALLHtrvJssWV8XYppn4wVQA5atw4KfTAGyuam+XIww8TRVXlhhtuKPvtofseklRVSnbeaXRZe1taWrosr6mpSfbae08B5PGX/9tjW2fMelcgIyOHD5VJb78df18oFOR7399bDMOQSy+5VAr5oE7btsW27S7Le/pf/w7WlkMPlWw2W/ZbRHeOUxTPc6VlRYuMO+yITvt+xy13SDKZlJ122lFc14tlcneYP3+e7LX3nmKmqivilSuv/KsA8v0995S5c+bE33/8wceyzsh1pbGxUZ599tmKZIyIyO8vvlBMw5CrLr+82+csKytz5syVESPWlYYBA2Xu3DlSOqTH//Q4QVHkpmtu6K6YMrw9YYKYqZSceOKJPda9ZEWTbLbdtpJIJOTKK66M59N1bbn+qivE0HXZfocdZGmF69qcWV/K4MGDZNDAQTLzs87luyci0YzcfP0twRr8o7Flz3w6ebIMXGstGT5okMz8/POK6hYR+eulwTxOnjy52+dsOye2Zck9t98tZ511qmy68eaiYggg39tlF1m6aFHQ1m70l/a45ZbbJZlMySFdrC0Rr7aKiOOJbLr5lpKpq5Vn//Fk/MwKEfnjpX8URVXlZyf9PF5PIz7pDo2NjXLI2ANl8eJFFbc5Qq+9dA27iNrJ7UPFSOGEvgbLly/no6nvMbCxnt+ceyYEyXQAGD1mWzbfYnMWLFjAWxMmxO93d+tH0VRUU0c1wC2pO3DGTeB5bWEGALLFLHc9/DgTJk1kaOMANt54/aANdu/D4wAkezDztt1MhvkLFvLhR1Pp37+ec885EzuM5acoCnvsuitbbrYNU6dP573336+obkVVerULLBaL3PH3u/nPf99hcGMdG2ywLoTH6SuDOP1jBcdaTz/7HNXVaS74zdmU2lfWW3ddTv3xCTQ1NfHkP57BMIyKjoqibjs9eqNrvDD+PSzLYfe992SLLbaA0Ady0JBBHD9uHOI6THn3NayiW5mTcnia5PbQbzv0AZr87vs88o+HWTR3FsOHbUlNXU2Htq+usAgRzEQ1RWDGlzO5/9F7+HjyFAYNHkS//o2B72gYMLZSiAhoFnoyHHizzbLdnj9NU8MwNO66424Mw+DYo49gaKqNT9LpNFf8+RJaWlp49bW3O6mrPARNxCdpK6ScYjBunfmAueEt7hnTZzFn9hzG7DqGAw44AADLckmlU4w9fCwDBgzgmcefYcnChbEVo0vfLlFAT4DROa/5flve38CVpIr7HniUfzzzb7IsZ5PNNkAzTXKa16OVjNAyWWo9NsMx98Ql387U1d6VYVEux5vvTmLdDUdx2mmnlZW3+967s9OYnXj7zQ+Y/9VXwdiGubK7RJhNEsBs6j6sEcC/n3obRcnxvX33YqPNA3eDfOhf+te/XorjOEx4ewLLlwfy1jCMbv2H9W5upkchwXQ9gapqLF22lDcm/pcNNt0o7nuEvX+wN9tssw1vvvk+X0yfhe97PV8ICPtuYlDoIXyab1m8Mv5VDMPgBwcdxMChQ2Oe3njzjTnsyKNobm5mwoQJHS4udQU7m0MAt6eTDDPNB+9/wJx5s/nx4eMYOLBfmc/lyT85mbq6Bu558G66u1JYyneGYaBXcOnFNNPM+OQzmuYvoLGxkWOOPiaeT00zOPz4n5Cpr2f+gvm8N6WydQ1Nif2zpYuAgH6J5fWJf/6DmroafnrSqWXPbLjllhx75JHMXbqU198cX1ndvYBiVNHU2sqTzz7GSy+98n/tnXmYZWV95z/v2e5aVb1VU91N09DQ0NA00KzaNpugAm6JZCAuGBCEKOYZlUyGeeIyJBozxtHRmZioiSYZiQlRIzYEN4ygsgg2IHQ33dD0Vr1WdXXVrbud7X3nj7Pcc2/d5dyCZp55pr4+PELde88573ve5ff+lu8XZcAJq05otEEXlBO2RxoYhkCIzpRtAwMD+L5DEXhx64tsff5pNrzmtVz0ug3xdwaBT/6XT7J86Qr+7Sc/wA6jp9E86YZALEOfVX583wajkjPzTGw7uFD0mNPlMjt272bt2Wcwb1GwcUbmwfDwYk4/4wyEEDzx5KNxJXM3t26gJaPj2+DZ47G8KbHRGKo3hC7Z4+Ydx7/d913u/d5G7t34fb72ta8DUDC6C2t3QqZXnqGmxy9pavIo+0f3ctJJZ7B0+VL0RCcvHhlh1Wknh21/BN93YkH1TvCEg62l42F03RpDQ4Pc+6/f4/777mXjxvv54hf/FwDCbwyi6XAypkJsMPbeBJ99ehOLFy9j6Qkrmv6uaRrLTz6JbDbLQz//Qdo7NwzGbHeDUUqf3buDDeKy171mxu8vvvQyPODQ6Chjhw6luncuTCTuZTBGebI3vv8mNm68n40b7+df/+VbvOnSKxHhJuq6bigO30dyct6kPOl1DBu4bjXgMXPhyiveyHe/ey/3bdzIxnv/lfff8v44kd6yLKY7VOO1g6bpaNFCltjzkvPTSRy8fvCTH7Jw4XxOO+O0+GATVOb6rDt/HUNDQzz5m5803WMcYrqICNE8MaMEbj/bMbfJMHQUih0HX2Ji8iiXXvHG+ABihHyhp556KoODg3iex7PbtvWsBlWosJhPo9QmdUUIjUwmSukIrvX33/xbvv/9+/j+vRvZuPF+Tlq6lGxG0CPFu+kaMZxgw9GVYKDlQNMa0qocPcqeXXs5d915M643NH+IU888FZ8qjz3xy+CavYwCJUD2Dt96QBnYtmUzmqZz8orTyYdav9H6vvbMtQwPD7Nn9CWmSkd7XhPACH/t1ut4LUUYrTlZ5elpDo3u55xE2yMsXryY1aetBhw2PfXLkKmiV9s1kBk8Z6rnmfjIkSPsfOkFTMPkorPPw4CmOf3bV70B3/fZ9eIuatVaz7UdwCoGaRmqxyE2A2x99mmk57H6vDNm9MvIyDJOOfUUnn76WURXForGvLNME0PTUjEo7D+wl2q1zPLlyxlZ2pwSNrxwIZecs4Hy5BSjO15IR2elJ0LSHajlDEDz6qE87uOsOGkFxy9fMuN7559/PrlMhod+8mzv+4Zwe9BHRfQ9vgsL58/nr/76q8H6fu/3+cd/+nLwJQlIRSZhe7RCKTWDXiowGAXVLily0bjd9PQv8B0469TTmD840365cP1FjO7ezejoaJpmQ7gfu1LOKj+/7xxG3dRnFL1YlkQkbM+xiQlK1SorVp4W51LoSoIINE5HFixC0zT2jR6NB36Qu6O1zUHwPQ/XtoEiyxYOx/rsUY5BUIUXsc5LTNNk5YnL4/+ulYJJXav3S4AdYLIaVEn7GRuldZ8MU1NjHD16lAuuWBW0OyoCcspkMoOMLFqApmkcPjiNEAaFQncjQvNNdC9doYhhBN6TFcuXx38b3XcAPZNpogMqRv2VwtNmVyqB5dWjSnpqaopDR0a5dMOVgSap7+N5XlCtqWkMDw+Tz2bZvH17qrYAeDJ4voLsXlU9dvAg05NHADh1xZqEkSUBjVw+S2ZoiKPT0xwtdaZvSqJWCozUTlxZEXRdx7ZLaAsXsCJUwpmamsLMZ1Hhvw+2meg9UfcoHucitPaTOvK8ZUzImAMUkx4kLZC4yocGTlfvUgJCCHSpkBEFUocNNJrTrltl27bnWbHyRLKF4G+OUji6RVEIctksC4cG2TdaCug8w+E2YJcQmcGmE240upL0S0Q0oKL1v3V8z2Ns5xgSybkr1wRdVvewQq3voaEhMpkMUikqtcY1Iy9hq4dbCBCeC67H4HDz+1KAEhrVskOxaMXPfcKKZU3fq9g2umGmmldKaE3neyc8Ezm6wNEEzatCY+46Tpm9W7aCUqw87oSwT1RoCAh0LOZlF6LpsOOl0bBtPZ5HKSJOGXug/fyw7WkymQFM22bLnp0Yhs7q01aiJdZhAEu3WL54MYcOjlMtV/EBrYcKR40SIDAy8zDaRB78xPjY/NRmPKW4YHUQRZBSxgcVTfMZGAzG+v6JErZtBzrs3dwiYdtzA0M9q6THj0xRrzvousbxy44L79lYF6P86KnSBI5js2i4t3qKXQ6MiV5btwE8sfUZBgYGWHPamdi2wrJUbPzlMxYLCoEG954tL7C6Q96uEA3PXrUa0OClYVDYu2c/lUqNVaee2dTnhO9mycnzKP2sxv7xyXSsCLYPsnuVNOGBYXJykurUFIuHl5DPNedmKgUDC4tI06XsHeh93+i69e5rchSJEKqCoRVYsmRZPK29o2GUwtDA0Ok2bAKGiuaoRq0WVEkPdanej/rwmW1b0XSdwSUj6JYVeFx9J+bkXLV8PlJKqpX0to3neVi6SnWwnfFc/f7AbUM23RpqcysVpO+jJzokGRrIDgVE2pXSeOJzu2PCqmboAUcaZQ4mwgbRIpVkmG9l2fc8m+xgcG+Rn11lVCET8jDamRSM/MGCV1CNU5jvO/GzZocWBKeL6YlYIaIbpGEgU/I9tItqZCwL37abaATSMvILJchks4F3sUfRi5QOfjWHmc3iOA66rsceGQAzm8fIZCkfTk+YqmeDvq73KN7QTIOaE5zWTFOLPQWRm35wsEiRLHW3Tt1NGRYO19Beicm+75LJDNIkFqlAeSp8nlkSOZs6TOogO89q32+vqJG3M/hSUk1BmdEKFxD5aNNuPyFrcYZC0LZ8Lk8xNBgNJcmFz6QbBoWhIapHy00FBe0otCKSf2Ogub2t3S/DZG2FisfFokVBGDubNRI0HBmyg4MoKZmYOBz/vms6hKUH/V5qPvl7SlKXPsWiFZIGe20pKnVdp1Qr46dI37BbjIRI4MSUoLW8Uttu/MGyikyXg/c6uCDox0jxA0DhsmBeAV2YHD4QcNY6vcaBEESn8Mx0i7EcqnxkMgONe7VcL5MZbFpThhYPU3ddXN+Pw3XdQnYZhgCFr8r4ie9F1CLJrTCTCZ4zqsBOpnxYVgHDDNgf9u7aRiaT6UlRFKFSlj2LXjzPDfY+Ici1HAKl9OKDWdmv4qUMUXravNQE2v60i+N51Op1LCupbOOQyeTiqng/5TZnZTKpI02u5wWsE0uKTeH26BlGRo5H1wyUnbJyyNTig1WvKv4oQjKYyWIkiu1c18XzIJ8pMpCdx9i2PSlbA34+nekTFeZ5XsKGMcP1xJfpOztEPRzDmgblLqlW0brnTDvoWsBWopSiEnozdd2kChSLxwNwcPfBpt93UxjTdR1Xzk4Tq/8cRnNmZVXyhFKpVMhmckgXkkyoTS708EmT3ptuvFEShRcO7Xb5hMlwWSvje/K6er2PKtUEtD4IWaNTtEwsqk1tD/fDuuelqlLTXBfNSVfdbRgznRuapqFbFiJRcRox8/duTER/kCYnSyCygZu/He+Zpjtomst0P27wcPHpZVSL8H8A2YyBrgePHT2H7xvo+f6Mp2hs9rx3O01jTeKbTvj7WZB2E/R9tTvjROefLjS7Vh92/a1o73lO+p1E8rvhKT/qp2BRNRMpI4RejObrdVIB0cIlyS6XQakZh0g9LGRWKKqiFN5fhflqbRZgFVpnCXhepwrB9nPCaGGkFEK0XThzpolumT1pxwByHRZfR0pki5pULmfiAa09FvV5Q/EDlBK4mgBNYeaDp+5EVxa3J0XYOlrKpYR2GkTJeaBpgZHqOJKhludrf/+kC3nm59nEWPG8Zv1iXddn5jgLganSkYYLTcOyLES2t6HjunW0BCdup4Cz7yscJ93Mzeql1EovIg+mrofL8ky1mfg5uzQlOU+ESKOrE/1Oosjh1etNB67Gexe4dp2666TPmw7XhrSLXMBLmPi5EMG64kmEJ6n2If1rlPsTjwjWr/5dcq2qNGktidibWa8hpMD0dUAxkFDO85wKnh/ukag2Obu96A/7bc0sDEav7iPbEPO5rovjOBQKBSYr04Abqwd4XnPNRG2qjFKDONA1QbdxUz9Ogk/iYNsvz8TkZBBSrmVnJwcUhaR7YWpqKvZ61BL5CckDuR8aQQMp+cF808XPzF6PuVKp4DsOxWz/YVGFol6pBPkmHYoBIpimiVYPtKcj8t0gPzUc0NMZVNVieRey0lZEB9lCj984uokd5pBE3hfCRa5WqwEeU1VJzrbIOen6vT4Z3LwXcXe7jVDHIEshfPbZ8fFR98gPex1D0gC63l5FplQthRtK/8aq67p4U+EzFxs7T3L0ZEVgFEQeXKkUvlTU65HKSvC5L31KtTIDbQyW1gNipMpRnwrmeaZYnGG4Shl4m6X0EAgG9QVhP1gcTcjyxTmb09MITTA0f6hJDaXdwQoA2wJ3Zp9F6knEMmQ67d7qdK3G4LSJPgs9ajsctpZhYrUQ8dp2CSM0MpPwEt6cKLxoGDrlShXPVwwvTEfto5TCDxep+lDzWhe13TSD/tcc1da49LxGv5VKHvMKBQq5dN71aqgfbmhGzHlLQkUjOVYi43ByMlK7MdtAunMAACAASURBVDBNk3o9zK11siC1OELQs+1S4jgOKjYKuiCXw3OC/NmqW6UIsdpMva6YnJzCGhhgIJMll9FJw+Lmu15qpZfp3VU0TSOfzzepZ43pJnWvSsnuXbCUlK8sVyrUUypZZSwLXZvZoGj9GS9PoBk6uYFCKvUYnHQh6SSiKESkchOtb75SOL5PcaQ7D2OzKkr/6/IMcm5dC8LSXdCqSmPFIenuNoBSLp5nkx8ewtdd7HxthnLeYIKWbLBoxgpv0X07pQZ4nkdeN2dF3N2/llHWB33mJpYM9SweXsT8gfmM798ZVhDXEEJSCQlxa7aNUpPMXzBMGvMhkAbMAga1xGlzQZfk3qS3Yd68wFU/4C/sq6nx7/PB75XuQ6ICstVLMjQ0xNC8eZjZLNO7J8PvuOi6j+NUkFIyffQwSkpyg0WqgNsjPGypLFnZXRoviWQCsw0MmRl0clQqjb7q7GGZiWyhELjd3e6nt6GhIcyhIUrlEr7vU6vVArJqzUApRcmdoCbLFBek4yeDhkpbpcexYr5lMJwJF676Ptwoe1HTyOVy1KtVpOtiLjawhlOGiMMun400oC89am7wzMl+7wtZA8aMriHpThjMD3aV3OoG0zQxhsIx1MGF4rpVpPTJZi2G8stwy2UqpRLZbKTrHRgXvufi13zyg0FnStk+bSKJ7FDn96NpgbdM0ww0IRgYCqyCXXt2EM1s33cZGBgI1DhME6HAqolEaKlLSkLGAXP2ChADuRylARe/zfrYC5mw3e2kAVtD+AtXBK2dnJqIDeF8PkjzUdLHc2qgFLlM/xGV7FRTckWTXJ7v19AGLBbnFiGlZCKsqPZ9l+TeNzG+j0yxYTgEocPO/RpJA3quh+91n29R2+tmw+dt2zaZjELXczjaBGgeJwwf31e7da23NOCgmcHUdJAK+2gwR0wz6C/LEmQQONPT5Mw8hmZgGL3XDjOfQypFNcU6s/LcFVRsm30HDiCEIJfLopRk2HfB18Ax0AwYXLEoVZuLhQLZlCkzA/kCpmFwaH+j313Xjee0fbSErmmpr4elg9ZLGtDH81xGRkbQgKl6lXHPJZsdwnV9vDBNqlKt4/k+x83rbk3ouhkbVF5Kgvqu8GUqfuJW5HJBSLqUUFdqLQ/TdRPDyHDcwqVIR6N2UCB9OSPUPDYepJ3kjlvQ/Ghd7ArDMKj6Lt4sXIx9G4y621tPeXBwkIGheWzevA3P0xJWr4dt2+wcHUVKyYmnrMBxnJ6hsyhnCQS5xGkzrcRchF65cJ3QqYqrXRi9WMwwvKjAk7ueCb9jous6QhSoe3V2HtiLLyUnrVpFHtB6+ON9z09BK5N8pmAT9X0XqSSuqaHM1snRmkHVBWFCfRqsPuVE9u/ZT7XikM1mgmcIr3Hk8GGmq1XWbdiQXvEkNAJFtfv9C8UiQ2GC+YvP7YhbppTE9x12vrATt1plfn6YvDE/lapCRo9Ikvs32ISmxbmLs/k9BK+nJmYXklZHZkehRBTqU90NjUYKiuKC9adw5OgUE+MTuG4UKnQRQnL40GEmjkxxytq1VKsumhaElLtVZUaqPrbffYxous7xK1ZgWRa/ejqoBnYcJ86vHjs4xvTEUXTDYMXpK+PfRYo7rXnYUXvaPlMKQ5dE8Uka1FprimqNd9Z6r9aD6fIlJ2AVi7yw83ksq4Bte2GbFNVqnX0796Gk5NSTViWu0bnPhRDoHbwdyf3fNHMI3eS4VYuRvmT3S7tDQ1DheXV8H6rVGnvHx1m4cAH5YjH8ndnV263CnjAyWXSrccOoTa1tNwsFNj+9I/5bJIM4PTXNvl0HUZKmtneDiFJ2UrgDFy5fRqaQx/N9du6ZmS/35BMBfdS84YVY2UyqNXa6ZCAAK4WX7fRVZyNdl0OjB1AKPC9iLFGUpqc4eHg/g4MDLF7Q2TGSHMtKBbtqGrqv4ZERsrkc27dvjnNilVJBeoiy2fTodgaLBZb18PI1QUUpMO0/DthHgvSak05axa4dL+EfDUwr09Rjo+jgwYOUy2VOXXla6lsbtXQpC23hpXd6tIakk9ASe0MyFpCcq6tOXIXCZ//+HdSqM+fwlpeexCoWOXHZia137vlss9ma+jYY7WwW2WZwJ0M+CxYu4PQ1J7N58/Nse/RxyqErNZfLsXPnTrZu3gzAW666BjNMUrbtztWrUvPwdCdMyU+HpPt4aipwYfcqpe+Ecj1wtQhfn6E+0YrjFo2w+uQ1bN28mcd/Hmh9Ok4Zw4DtW7ezbfM2AK656i14Xudy/AjSdPGt/kPSmmaQRVCr1ZFuc9tTy+MBdq0W8E31cL0DnHXeRezdt5dHH/5FQIakGWgO2I7DAz/+Mcr3ecfr35D6/l4tDAt3qSYDsHWdM849C9M0+N4PfoKy7XBgCzTN5Nv3bkQIweo1q1mxcnnXa0VwSsGqmkY6qxXKV/i2SvXsnR/AJ7vA7xqS7oRytt5XqCcJUylUD6+oUuD7Qfjj2rf8FqVyiccfeRzw0HUzVhz65re/Q6VW4pJzzyeXa/RjVM3fDm4pMB6sDmMkSm8RQrBs+XLmLVjA1+/+DuVyOTycBb976NGHODR2iMLCBaw5Z238+0rFCb/TZh7bHrjtLEMPpXpvqhXbJidUqkVVd2uQMFqjkLRhGHGldwTDyIbelrDIZ+ECzj5jFQ8+/AhTU1NYViMUNTZ+hMee/DVWscjlb7oycY0uesqJkLQ92D1txwQuf+0GfOmzadMmJicmwyT8DJoGf/M3X8OZnmbt6Ws4LkWVMEA9iiBIr8mKTq4T9Xod3/dZtHABa1adxI83/jJe1yPsGR3lyU1Pz2h7Nygp8R0HzzAwze5pO8WMzkUXrKdu29z7wP3hMwZ7X8Uw+Pu7/5FMJsNZa88in8+nWueyRhmVQlEK4OJLX4duWXz//m9DSC8VhSGfeeY3bNnyPNe99h0UuvIGeygV7Cd2vY5QKpWc3OmnrmZocIhdo6P8IuRPljI4yDy7aQvbdm9m8eIR1q5Z1/NaEIakozzULlXVmhYo0lxy2Qb27NnLtm0Nlo0oovm9+76DkpLL3/DmdPd+uTDClBcvB27v3IfWcVCvByHpQocIQHKubrj4tQgNnnr+VxyZGEepIP0BYPfu3Tz04FOcf9755AvNz9Ft7Pm+H9Qc9Xzymei/6KVWRfOaB7eUXuztc5wy8+Yt4JLLr8TMZLjljz7I9l//moMHDrFr1y6+/Jd/ybPPPcfVb7qakZFFQRhFCSxrsDMPltJBmkEBv9nIselW/Je81rzwpDso07nqWzGUT3+iWDi8mPNfezGabvD+22/mkU2PMnGkwgsvbOcv/+f/4oUXdnH55a/nxBNPADp5OhqwVI6sSh+SjvokkG8TzLMsdMvCrDa8sdFnvaAJQSYOSfde0N57/fXMGxjgD+74EI888gijowc5eGAP3/qXr7LxBz/g7LPO4cJLLsEVYkYCfztETD69wrpZ4K2XXcXIgoX8+peP8pW/+it279rJ6N69fOfb3+Gef76bbD7PZZetB/xUbVeFYFLOJiStJTyMLyckLca6V0l3wlBxKK7m7QcKcHQdLeTWS2aYJ7vBdSsYhkQpyXtuvoUly5fz5a99mZ/c+z32ju5j/7793POP/8iXv/QlTlxxIusuuqipz4UQM8J/fuhxi3j92qXjBx4NiaYFa87a09dw/nkXMD0+zoc//CG2Pf88e0d38tjjj/F3X/07KtUad3z0Q7HhLKVHoWC1Hf8CgZkrgmky3VJdqGlGqk3VMAxcW5Im994yc03FdBkr6luXer05FyDKRwoMRxgcGOLqN7wVt1bj2mvfytNPPcPB/fvZvPUp/vuf/wU7d77ALTe/F6nspmukQabUe6173WWXs3L1ah7+5cN84++/wUu7djE6upd/f/hn/MXnP0+xWOTiyy7HDNkleoWkc6F/xbXtJh7G5HvKZrPous7Q4DyufuNbccVRrr32rTy16Wn27NrN1q2b+eLnP8+evTu56T3XY5gGjpOuAEMDDE3DcbpTbplGlpve8x/IWhb/du93+dY//T0H9u3j4P4x7v7yl/jhgz9l+QkncNH6i5FSpdE6wCrkAg9jioPpihOO59LXvYYf/uhnfPbPPsO2bc+zb99+Hnv4Mf7bf/s0+XyON996fdeK9GAsB4aKpQtMme5AfNIpJ3DZpRczOTXF//jiF3nyV79iesrhN8/9hj/73GeoVMucec6ZrDhjZYqrhdGjHiFpYi+z5L2/914KxQJ33nEHv3j4Yfbs3c2Ol17kf3zuS/z4xz/jvLPXceaadF5lADc3O4o9APLhumjVIdtjJxMCv2XuBSFp0RSSbv6JiPtk/oL53HjDu9j05Fb+/FOf5cXdu5g6epgtzz3HzTffgK4p3nbFVanGTwTDMHB9Mauil77dJ0Kb6UKW0ouTXy2riFJw/e9cxyOP/JwH7nuAd7/73axZvYbxiTEefeIJ1q1dy+c++xdxSNd1bSwr07EBmgJdho/rNnJsNK3eUr/YgOvaDaLdcOZW/HQcfDOu1SOvJolMJsMNv/seNj/7DD9+4N+4+YZbOH3Vag6OHWTTU0+xbt35fOELX0Apiabp+H577skInuf1FZLWNDukeQ1w1PFQsr1l7ThOV8UV3xOBS0cI0pA2nb1uHe///d/nS1/6Eu+54Z2cuWYdtWqFh376OMtPXsrHP/YxAAzpY6Cgh6Z1tOAaxd7D9LQ1p/HpT36SP/qTT3PXn36a+zbeh2nqPLN1M1MTU7zvxlt429t+Z2bicgdEISKjT21hCCyvKM3CSKit9OXx8yV2Rs3qGNjPeJ1xW6VQ0eaeeN7m0GQB3/fQNEE2a3DnHX/Epz79J7zzllt4zfrXoSv4xa8eI2dZfODW2zhzzZkz7tOa6uSHG3dU9RchOUajym9N05DSY2TpCLff9n62bnmeu+++h62bt7NoyQjbt29l145dvPO3ruXWG2+Nr5Vcp1qhlESGlEsD+XS8pzPaJAS61Gd1co+gaRqW1ewt8LxGPq+UkM1ledfvvZPHnnycH/3wIW668SZWLF/KvvFDPP3rp1n/mvXcfuvtM1J2fN9p63kQQqD1seEsXLiQ//m5z/HR2/8jf/Knd3HfD35AMaPx3PatjO2Z5Ib3XcfVV11NLix66UUt5ROMc8PKoonu6RBWxuK6d17HLx97nAcf/Ck33XgTp6w8iRd3bef5F7Zx8YZL+MM77sS2bUxT72koCyHAMNA8L5WM+PpLL+EjH/0oX/va17nzP3+Mc868h0q1wq+ffhohBLffeivrzjo9KPrye0uTl0thIX+Kw93A4BB/cNvtjO7Zzyf+7OM88JMfks8PsOOZp9hzZIL3ve8mLnr9xUjpd61Kj2EYuCk0lQk9Vn94xx/y/I6X+Mn997Nnxw5OO/k0nt+xjW1bX2TturXc9YlPMGClrDYKyu17Oi9EOB7OPvtsbrrxJr7x9W/wnne9izPOXke5PMUTv3qCZUuW8ZE7/hPz+tBvN2spn7MdquH66vXO7VdKYUsPI7Hv+H6QSmB2mXO+78f7xYdu/zDPb9/NV7/xVZ58YQtLCgVe2rGD57Zt46o3vplrr7u2r0iUlBJD02aVLtW/wajPNBgNI4sbeqAifqyVK0/ib776NzzwvXu594EfMbr/MIsWWXzqrru45rd/m9NOPjn+vWkaSSqwGWjIGTWHZrspZ5hmo2l6ocCtH/gAl1z2+n6bC0A9DAUFxN29j41nnr2av/7rL/Lj+9/CvQ/8iIn9R7HmFbjr03/Mb7/t7Zxy0hkx436vBUUaXkzRkgatC8WSJSN88D9+hIsvv3TGd3sZMEKXOK4bGoy9V9NiMcPHPvYx1p93Ht/eeB9bt2+jQJY7P/b7vO0d13D2GeuD6wotVY5FZDCaXalRoVarkcvleNett7LkvAu5/5++ya9+9RSyavPmN7yJa3/netavX5+KEzHIDQKvHBp8szAYjYzB5ddcSWFekXzeTO3RbYInMfOyqcgqDcrAhee8lls//B4u23AZAONKMeTVu1JXEbEoeV4cnuzkwndd0DSJUkHI/5b338za00/lnu9+l+3bnqNSd7jud6/jg+98N6eecw6FYu9cY913EEKjkmlO/06OUU3TYhoqw8hSBy6/5hp+dPoavv3P9/Cjn/2UA6NjrDv3bP74P93JNVdfExe8Rb/p3HiB6/tI14V68+YtZfBPN5tqHHjvDTdQnL+ITK5/gzMi7k62sdHu4P89zw7nt84pK0/l63/7Df7pH/6Zh598kInDJRbNH+Kzn/4C1/7umzn++IbaUrVaDYti2s93pRQqPNQ4xXSqQFddfTVL71nMPd/9Nk88tInJus0lG17P+z7/u5x48WuYP1DoaqAn4RFYTQJFL2EWIQRnnXUWd9/9D3zve//KD/99IwcO72fFqlN43w038fZrf4fjlx8ff7c3tUjQdgfQ9d6RHMPI8PGPf5wN6y/mu9//Dr95ehu5gsWtt9zGNW+5hosuvBDTDFIe6vUyxWL3a+YHzEARqofB7jgVLKvANW97G0tWr+T7//tbPPLkk0xOlzl9/fn8+X+4kUuvuJSCSVfVtOZrejh27/UluvfpZ57Jt+6+m/vuv597772fnXv3s2LlAm5613/l7de9g5NOTOldBPBVvAd0o6FynDqZjMW8oXncddddXHXFFXzlm99gfPdRBgZNbvnAB/jAu9/DyWvWzJ7ztk/kly7i9o98hJNXnYQ50L2vBZBvCbkHuafd052Sjpyzzz2Xb/7vf+Cef/km//7vP+PAWInjV53MH3zoo7zlHW9lZOS4vuSDpZQg/PR1DAn0bTBKR7bVfjQTSiDR3jhy3Ag33XYbN912W/xZ5EV0nBKaFRCdapqOlCom3W2FpkVV0gE8L1hEuzHKR59JqViyZAlf+fKXZ8VLR6JKOiDu7v5ioiTt449fGbc9mnCR5z1IFA5USFx3OibFbQdLZMmJ9CHphuJN8BynnLySL/z5Z5q4KWu1Whzi6QWrUKA+OZkqJK1pefJ5+K3rr+e3rr++6bNk1MHzaqnUBYzBMKxb6h7WzcX0TRWuvPA8rrxwpmyYbZfCAhwZsDZ2MOCECLxf2dCrOZuQdC6b4+b33sgtv3dT099LJZvBwZSVq1kTbRZV0kXgTde8gde/4Q1YVjDfFkKgk5wClmliRDRGHfrINCVgJT5WXP7GN3L5G9/Y9L1xSMWCQCLnZr48ruXvzWM0WQSRQeFJm+XLF3HnH9/JnX98Z9N3+60Rt3JmB0+bF16tcx8uVJJPfupTqe8lpQrUZcJOtOaF1ZthlXRyw4j2gma+WY1ly5Zwx3/5MHfw4eZrh6vA9PQ0AwMDcZi/WwZS1K9WOaUqkKZx1oUXcM6FF3T9XpAa0f2wkgurpF3p4qfIU9c0jeOPX8btt38w1pMeA6KMyWidt20HTcvSlcFMCJSuI3QbxymTy/UOybuuyzVvuZpr3nJ1/LdarUYmk2nauHsZiwBedSpQI+pRdGNZBRSgZywuXHsuF3723I7fVUqF6Rsz33c0fYQIq6RT0LslPdUnLF/OrbfcxG3vv3lGtCYaQ6kOx1ZAlquUxPfaz1SlFNlsgzN4/vz5XPP2t3PN29/e9L1AR102KQL1glPoLdvYCcsWjPDfP/NfEWIwpJuSXQy2mYeWXiFpgLJbRRhZ8ghqtRorT17JnXd+gjvv/MSsnzuCaZoRq1Hf6Nt9Ioz03pJ2CgMByW9AFSGljMN1jtN5eVeqQTbq1GoYRrCIpknRSl63n9BuElU7fb5Dsk0RogkX7X2BF8sN+6H7Au25Xm+lhgSi7yZVZAwjgwwNXd93yeVy6T1eth2Eo1MUvSgFmtZevUbXG+3X9Xyq/B5ZDjn5etCDRN3dSj+SpCDIZAbxALsD+30rqmHYwZxF4QgofH+mDnRqYxHA9XEG+vcwAjiOHW+SUd90Yv1vhVCqoeSR2EyShLCe5zS9vzjnsQWzyRi2Q5J6t8MG6oWKE8Qh5nxb5RjaEF33gmP7MYdoEsm8r1ZE3sfWSki7hwHgebJ5fISUY8HG0z8dUhJOaDS2SkK6nQ59fYakI3RqYXKsBPmXVtc8NSd8U5oSaD2KCokVYGRTnyfLaxzHQQiBZRnoeo+1MwwpWHJeVw9y8trtpD5zuVxfXp4IhmWhCUEuheGmwndLrFHcvJ9J6cWV051yRqP9F6Bu27gpNtGAycSLaWwMI9M2tUdKmT5v2muEpDv1W0DJ13suBIV2OtU+kvKsSj9OmJnIZAbRdR8p/R5zXeG1pAg5TkCP04nj1/OgaObJhqp1aQ4e/cD3fQztVaqSdkUdKdItaMmB0KCG8FDKxXEC74FhGLhulWy2C+2CplCGxMznmxa2bvPT930cxyGbNeIwYy/DoxO8lJstNNrUCY2XJFPlzEjDQ5rpDN2gjYEn1jTNpv6PvLeRp7FcTnfCcny/3SGpLYJmz/xiZH9E61sHMZEZiE5AvVUoagnDqD3bfbnsYAE53UpnLIdDRZ8NrY7Q0HWziR6h1uU02RZSoVuzy2FMevsNIyhSSVuZ7vg+TrTo28miiaR6UrYpfaTT23GcSqpDXRL1kFxf6/DOI5oq1xWhqlPna/W7zGqGgejzgBCNZdPM4fsyPqD2GrOWpTdFVCJ1jiAkPfO3M8d1M91OOUHTkw3fSZK5olwuk8l0WWNDQzm150UpzBY6lojfVbQoY/VKyZDhZEubuhFcv5nQO1pjPA8sK4pGiY5h+FbYyk21JvUyClu10HtBSj+10ovnVDD9RqrOzGcRYeRN65Kb7qNU0Fm+7yNTGFmapoXpU0GhRGRAtkLX9fRhYZkISXfo+GDfDhrbrV+DJArR93yfDfym/hdomiCXy3VUriKMBiQhZUOlqB00LZjbrap1rxSUUpjCQJvF5tL30xS0QYw2OWXNLOqRjE8yaT4U8xYGmmZimirxWR6lZMdOV+hIZeBWqxiJAek4nSkgdF1PTBqFrqtZVQWRrJJO6e0pAV6YoB8ZCvW6inmrog3GdWs9w+QZkUsdklaq2sTuFileBCfxYEGKNqM0pxbDCELS+Kpncm/Evq9pekNpI6yaN00Vy8MFp18XJ4XcYZSG2rNKOhuoi0xNTcU0E0qpsBpX4XmSYrE/Zv9CqLZR69fiiUMzCsvKo1RgKPdNr5M10Md06FM1JEg5NWIvb+BlTb+UGoYRqKy0IJmLJmUwVyODRJsx94N/LKuQymuTxDwVhKT1Nj/0fZ96vY7jlEMtXQelGocp163F2sdpuOXaomWROJwI8XX4Aa5bDdc7LabE6VdlJxrrERly8yOpJhWHiIIsaTAVw8XcthtzL5n20XW+KxUbjGk9L7ZdwjCyOE4lEckgNAKMBEdg+7zMJHJhZpSHxE+hbixEkLAf0eq6bhXTVHGee7DGCqTUewcpdR89V0fTVU/ibsL3OjU1heM4uK4bt7FadZFSxeH/5BrYDaXqvMDDmGK8WFYhVlGy7RK6rqOUol5XTMRqSd2vkRxHxUKBnGUFCjldUKv5cZ8LQShp23jeSGWo+zxpQcYIQ9Kdq6STe3ikbpO8frT+FMP50U+eeNpc3VZomkKIQNVKSj82nDunXMw8tPSukm6+XtKBGbU/2hNb7a40CIi7PfxXg7i7Xq/jy8YLjlzQSRZ1ACndtpQxSgUWeiuRrBBax04XvoypfLxE72Wz6elufN9JRb7bDqVqsED7ppuq6GUQUF4tVhoByGSY8WIDr0T3V+D4NnUvnXfKNPNNJ5IoJNUphNANSklq0wIq1VQ8jMl3kQzZWFawAUWh8mBxNzt6e/1EQM4Lh+f8lC75oaHGM9TrUSjawEgRTo/vH968EobDeyWjt0NgtER6rSkkx9qF92wPb6lKn5QTwjSDe0YGk+fV6SElHEpuqfD7XtsFPBnO9P1grjZSLVrnfn86pZEWtANUa9WWzxonel3XyWaz8ZgK+P8anWuauVjKLg0NTutmpYesxklvz+KW99kK3/cRwuxrs4qM2nYwDCNBAxT8rdU73SkEH3zWCEN7KdcNhOjbsxrNd8sqNLXd82qhwdZ+/W+HGtOAwCCHjpY6dSga18G6J2akDkSpS53g+4A08J0CFlZ4oJU9n3toaAjLsjBNM05dyefNJo9xazpAx2sVghzGfg+mUf/7vkMmA5HOR693npxPtVoN3/exZPd88oGwsKPTI0YqQ8FBMmXalxO4o/uRMG21KaL1x+9B8t/4vWywVzizU32L0iGy2ZnrXnvMTA8IpAFVk2RqMo2gtQuTW2W0FkRyuemeoRme52FpqYhPZqB/pRdTR2giVtHodKLQdattaCVSe+hXpUUARjab/gST/G2o5ziLvR8g5kvTnd4qNxFaizpaNSUb30tztVm6Rl8m9IyHq4nQwzj7vCohRGwg9nrvTS2NBvQs3nkupY5tO0gJyopuPYtTWOIUnxZOq3ddCNSYTgqHS1tEh69eldENpE9Y7zVmIy9ILzSrPClcr04h3zw+lPJjY22WKchtEXgjQ67NcBFWQiABlTcT3+v+PiMt49kgSfLVbjOOcvTyHXJEeyFNYVmE6K27+ZfBT5e4Z6f1v/29RTD+VL0/L9UrgYCFnrrrhZ7x/u49a634CEKkVnppB8PINM3ZXu/c9/04p04BrpSQSeeN7z3v9a40bc1o5Dn5HQ5PM6/ffkylORxGCHI/q7NL4EvkS/b3m+b/jm6dHGvJWGm3LuxnLfB9Nz6YJvN9hRBo6KlVqZLon7hbN/Hcaqyi8WqUsut6cHL06nXM0CpPm4P3SqCYa/Zwjb1qdwZLz5A1gkFSPvAyF6c+EHtqZqtUMksYiSCSEZ4mpWGkDvG8XOhB8R7za4HhYs/WLd0nikY2lHgLDShLxyzqs6Pj7wNB3p2KPdO6rrfNrTFNHc+rd/SMzQamaVIul2PvUF5vPlCVSiWE0HDdoNBltge+djCMLJqmxV5LdeAJMQAABTtJREFUAM0UaLpOxpGJ70XFBLMMcbdBpeKhaXpTzpWeqJIulQIDNqBnOfYQQqCFu1RSMq1VSeVYIRv2hGYYaH0ZHS8Pug5C18nmcgjbQNcDBaNjkTfWiqBQKpBDlEpRSyFN+EpA17WYci6fywXULodewYnVA4ejf7Eaa1s3pZdXEp5XC2sMcmTNV+dQIoTA85o9r8oINhlHKer1Op7nMSgEQsiuGtD9QtOMxLremFO6rmNLiVSqaypgO/Q9Uo5OlyiVbDxxEM17dQba6PghjtSCBXviyDimZSCkRsWePubPoOs6+w/sB6AmphmfGGO+9Bmbhej4bPDioUOUK4FxbA+NcuBgHUPMjli4H7h4SNuGchmlCabrNcYOjaEbOp50U3ta+0VQFSdQpuRoKfB2jB8+TLaQoV595TbtdnBUGUsU0TSNUXsXAIZSHBk7gq+5CE9HaRKhRE+JyH7hSw09THeQloVXqnG07nB0YpLpzFQgS3kMMTFexTTzuK5DPdRrnayWOTx2CKVJNM94xdseXW+sZgdk3JrHvgP7AJieLiE9yfjhcQDKHNsDolKK0mSQj2e7HocPHwahWsb5K3NoUbpPrdJ4nzVgfF+wlUopkV6dQ0cOvGrra6VSplYKjMNxXTB2qHEkHqsfm+OxNDw0X0cJxaFDowDU6nUmjkxQrpdetbaPHRxlujSFKjocGTuElZLI+pXC1OEjaLoGhuDw+MF4nivdPyZzXgiB7dhYGYuDBw7gKo368nLTOz+WEMC4EEwcGEd6PgrFocmD5MYz6L4Zt1sa3jEZA0qfRvg6k2OBYtyRqfFgjdEVylegxCve90qToESwdgKlI5MoKREq0ACP1lRJYDSKV3hv8WSVmpZnUBcoXzFVqZDTdXQhuqYCtoNQffjghRAML13Kheech2/U0Z1X5yRYp8JzT23l0KFDXHnF5Zg5C80z8C0b3Zld5XNamIbJlue2sH3XdpYuXcraM9aSyWfwu9AAvZKwHZtnNz/baHvWQvOP9WIqkBkLzS7x4M8fwbMdzjrzLJaMLMHKmNT92jFb0HVNR6FwzRo7X9jPti1buHTDBnLzc+jusR1v0nTRXBNd0xk9tINNv97M8HEjrL/gIhy9hmabSN1Dk701xfuFbunxmPLzBR56YCMDuQFeu/61OKKG5r4apLQCV9d4ZtMTHDpwgPMvXs/igUGk4aM71ive9shoQAW6155hc3DvGJs2beLMM89g1crT+qKUernYuWsnW57fwuDgIBs2XA7YCPnKb9rROEui7lR48Kc/Y8nICBecewGOWUO3j+3aFkHTBI8/+RiHD49z3nnnMDK87Jjf07ccdNdEaj6TEyUeffRRhhcv5oLzLkBa9qvWdqUkTz71BONHp7j6ig3Ay1AAmQW2v7iDF3dsY/Wpqznx1OXxuDhWBpMQAqEJhC6YPDLJzx/7JUuWLmXdmrNe8Xt1giY0ap7Nzx9+CIXkoktfRyGfRa83DMVjtbdH19+1dxebN29m/WUXsSA3jGaB5/gIpbWdny8HSgucINHhc/TAKM899xzzFi/mwnPPQkgNTeloGYHneq+4M8bIGHi2h2ZoSE/y4M8e5Oqrr+YrX/kKw8PDiarv3tfqy2A8++wL+M1vnnw5zz6HOcxhDv8PQPxfyx2ewxzmMIdjBaHDB2+9jT/7zGcZHBoMFaT0VKpMfRmMc5jDHOYwhznMYQ5z+P8Pxz67dw5zmMMc5jCHOcxhDv9PY85gnMMc5jCHOcxhDnOYQ1fMGYxzmMMc5jCHOcxhDnPoiv8Dtw3JK4cCIi4AAAAASUVORK5CYII=;" vertex="1" parent="1">
          <mxGeometry x="80" y="160" width="652" height="349" as="geometry" />
        </mxCell>
        <mxCell id="fszYzf7_crKhQ_tD_Uuh-2" value="" style="rounded=0;whiteSpace=wrap;html=1;fillColor=default;gradientColor=none;strokeColor=none;" vertex="1" parent="1">
          <mxGeometry x="390" y="220" width="40" height="120" as="geometry" />
        </mxCell>
        <mxCell id="fszYzf7_crKhQ_tD_Uuh-3" value="" style="rounded=0;whiteSpace=wrap;html=1;fillColor=default;gradientColor=none;strokeColor=none;" vertex="1" parent="1">
          <mxGeometry x="692" y="220" width="40" height="120" as="geometry" />
        </mxCell>
        <mxCell id="fszYzf7_crKhQ_tD_Uuh-4" value="" style="rounded=0;whiteSpace=wrap;html=1;fillColor=default;gradientColor=none;strokeColor=none;" vertex="1" parent="1">
          <mxGeometry x="531" y="309" width="162" height="30" as="geometry" />
        </mxCell>
        <mxCell id="fszYzf7_crKhQ_tD_Uuh-5" value="&lt;font style=&quot;font-size: 22px;&quot;&gt;Коллизия&lt;/font&gt;" style="text;html=1;align=center;verticalAlign=middle;whiteSpace=wrap;rounded=0;fillColor=#f5f5f5;fontColor=#333333;strokeColor=#666666;shadow=1;" vertex="1" parent="1">
          <mxGeometry x="541" y="240" width="142" height="30" as="geometry" />
        </mxCell>
        <mxCell id="fszYzf7_crKhQ_tD_Uuh-7" value="&lt;font style=&quot;font-size: 22px;&quot;&gt;Хэш-индекс&lt;/font&gt;" style="text;html=1;align=center;verticalAlign=middle;whiteSpace=wrap;rounded=0;fillColor=#f5f5f5;fontColor=#333333;strokeColor=#666666;shadow=1;rotation=0;" vertex="1" parent="1">
          <mxGeometry x="389" y="347" width="142" height="30" as="geometry" />
        </mxCell>
      </root>
    </mxGraphModel>
  </diagram>
</mxfile>
